SplineFontDB: 3.0
FontName: Siilvik-Regular
FullName: Siilvik
FamilyName: Siilvik
Weight: Regular
Copyright: (c) 2015 Microsoft Corporation (www.microsoft.com), with Reserved Font Name Selawik. Selawik is a trademark of Microsoft Corporation in the United States and/or other countries.
Version: 1.00
ItalicAngle: 0
UnderlinePosition: -100
UnderlineWidth: 50
Ascent: 1638
Descent: 410
InvalidEm: 0
sfntRevision: 0x00010000
LayerCount: 2
Layer: 0 1 "Back" 1
Layer: 1 1 "Fore" 0
XUID: [1021 564 1990902961 4231472]
FSType: 0
OS2Version: 4
OS2_WeightWidthSlopeOnly: 0
OS2_UseTypoMetrics: 0
CreationTime: 1428098003
ModificationTime: 1493518992
PfmFamily: 17
TTFWeight: 400
TTFWidth: 5
LineGap: 0
VLineGap: 0
Panose: 2 11 5 2 4 2 4 2 2 3
OS2TypoAscent: 1491
OS2TypoAOffset: 0
OS2TypoDescent: -431
OS2TypoDOffset: 0
OS2TypoLinegap: 269
OS2WinAscent: 2210
OS2WinAOffset: 0
OS2WinDescent: 514
OS2WinDOffset: 0
HheadAscent: 2027
HheadAOffset: 0
HheadDescent: -431
HheadDOffset: 0
OS2SubXSize: 1331
OS2SubYSize: 1228
OS2SubXOff: 0
OS2SubYOff: 153
OS2SupXSize: 1331
OS2SupYSize: 1228
OS2SupXOff: 0
OS2SupYOff: 716
OS2StrikeYSize: 50
OS2StrikeYPos: 584
OS2CapHeight: 1434
OS2XHeight: 1024
OS2FamilyClass: 2053
OS2Vendor: 'MS  '
OS2CodePages: 20000093.00000000
OS2UnicodeRanges: 00000007.00000000.00000000.00000000
Lookup: 1 0 0 "'aalt' Access All Alternates in Latin lookup 0" { "'aalt' Access All Alternates in Latin lookup 0 subtable"  } ['aalt' ('DFLT' <'dflt' > 'latn' <'AZE ' 'CAT ' 'CRT ' 'KAZ ' 'MOL ' 'ROM ' 'TAT ' 'TRK ' 'dflt' > ) ]
Lookup: 3 0 0 "'aalt' Access All Alternates in Latin lookup 1" { "'aalt' Access All Alternates in Latin lookup 1 subtable"  } ['aalt' ('DFLT' <'dflt' > 'latn' <'AZE ' 'CAT ' 'CRT ' 'KAZ ' 'MOL ' 'ROM ' 'TAT ' 'TRK ' 'dflt' > ) ]

StartChar: A
Encoding: 65 65 2
Width: 1321
GlyphClass: 2
Flags: W
AnchorPoint: "Anchor-3" 0 0 basechar 0
AnchorPoint: "Anchor-2" 661 1384 basechar 0
AnchorPoint: "Anchor-1" 661 0 basechar 0
AnchorPoint: "Anchor-0" 1189 10 basechar 0
LayerCount: 2
Back
Fore
SplineSet
998 312 m 1,0,-1
 324 312 l 1,1,-1
 211 0 l 1,2,-1
 24 0 l 1,3,-1
 574 1434 l 1,4,-1
 748 1434 l 1,5,-1
 1300 0 l 1,6,-1
 1114 0 l 1,7,-1
 998 312 l 1,0,-1
942 463 m 1,8,-1
 682 1164 l 2,9,10
 678 1180 678 1180 671 1208.5 c 128,-1,11
 664 1237 664 1237 659 1260 c 1,12,-1
 655 1260 l 1,13,14
 653 1245 653 1245 644 1209 c 128,-1,15
 635 1173 635 1173 631 1164 c 2,16,-1
 378 463 l 1,17,-1
 942 463 l 1,8,-1
EndSplineSet
Validated: 1
EndChar

StartChar: Aacute
Encoding: 193 193 3
Width: 1321
GlyphClass: 2
Flags: W
AnchorPoint: "Anchor-3" 0 0 basechar 0
AnchorPoint: "Anchor-2" 672 1956 basechar 0
AnchorPoint: "Anchor-1" 661 0 basechar 0
AnchorPoint: "Anchor-0" 1189 10 basechar 0
LayerCount: 2
Back
Fore
SplineSet
752 1628 m 1,0,-1
 575 1628 l 1,1,-1
 798 1826 l 1,2,-1
 1014 1826 l 1,3,-1
 752 1628 l 1,0,-1
998 312 m 1,4,-1
 324 312 l 1,5,-1
 211 0 l 1,6,-1
 24 0 l 1,7,-1
 574 1434 l 1,8,-1
 748 1434 l 1,9,-1
 1300 0 l 1,10,-1
 1114 0 l 1,11,-1
 998 312 l 1,4,-1
942 463 m 1,12,-1
 682 1164 l 2,13,14
 678 1180 678 1180 671 1208.5 c 128,-1,15
 664 1237 664 1237 659 1260 c 1,16,-1
 655 1260 l 1,17,18
 653 1245 653 1245 644 1209 c 128,-1,19
 635 1173 635 1173 631 1164 c 2,20,-1
 378 463 l 1,21,-1
 942 463 l 1,12,-1
EndSplineSet
Validated: 1
EndChar

StartChar: Abreve
Encoding: 258 258 4
Width: 1321
GlyphClass: 2
Flags: W
AnchorPoint: "Anchor-3" 0 0 basechar 0
AnchorPoint: "Anchor-2" 663 1880 basechar 0
AnchorPoint: "Anchor-1" 661 0 basechar 0
AnchorPoint: "Anchor-0" 1189 10 basechar 0
LayerCount: 2
Back
Fore
SplineSet
448 1643.5 m 128,-1,1
 372 1699 372 1699 366 1800 c 1,2,-1
 526 1800 l 1,3,4
 531 1759 531 1759 565.5 1737 c 128,-1,5
 600 1715 600 1715 658 1715 c 0,6,7
 714 1715 714 1715 750 1737.5 c 128,-1,8
 786 1760 786 1760 793 1800 c 1,9,-1
 955 1800 l 1,10,11
 944 1699 944 1699 865.5 1643.5 c 128,-1,12
 787 1588 787 1588 656 1588 c 0,13,0
 524 1588 524 1588 448 1643.5 c 128,-1,1
998 312 m 1,14,-1
 324 312 l 1,15,-1
 211 0 l 1,16,-1
 24 0 l 1,17,-1
 574 1434 l 1,18,-1
 748 1434 l 1,19,-1
 1300 0 l 1,20,-1
 1114 0 l 1,21,-1
 998 312 l 1,14,-1
942 463 m 1,22,-1
 682 1164 l 2,23,24
 678 1180 678 1180 671 1208.5 c 128,-1,25
 664 1237 664 1237 659 1260 c 1,26,-1
 655 1260 l 1,27,28
 653 1245 653 1245 644 1209 c 128,-1,29
 635 1173 635 1173 631 1164 c 2,30,-1
 378 463 l 1,31,-1
 942 463 l 1,22,-1
EndSplineSet
Validated: 1
EndChar

StartChar: Acircumflex
Encoding: 194 194 5
Width: 1321
GlyphClass: 2
Flags: W
AnchorPoint: "Anchor-3" 0 0 basechar 0
AnchorPoint: "Anchor-2" 663 1960 basechar 0
AnchorPoint: "Anchor-1" 661 0 basechar 0
AnchorPoint: "Anchor-0" 1189 10 basechar 0
LayerCount: 2
Back
Fore
SplineSet
515 1596 m 1,0,-1
 332 1596 l 1,1,-1
 607 1830 l 1,2,-1
 740 1830 l 1,3,-1
 1016 1596 l 1,4,-1
 824 1596 l 1,5,-1
 670 1717 l 1,6,-1
 515 1596 l 1,0,-1
998 312 m 1,7,-1
 324 312 l 1,8,-1
 211 0 l 1,9,-1
 24 0 l 1,10,-1
 574 1434 l 1,11,-1
 748 1434 l 1,12,-1
 1300 0 l 1,13,-1
 1114 0 l 1,14,-1
 998 312 l 1,7,-1
942 463 m 1,15,-1
 682 1164 l 2,16,17
 678 1180 678 1180 671 1208.5 c 128,-1,18
 664 1237 664 1237 659 1260 c 1,19,-1
 655 1260 l 1,20,21
 653 1245 653 1245 644 1209 c 128,-1,22
 635 1173 635 1173 631 1164 c 2,23,-1
 378 463 l 1,24,-1
 942 463 l 1,15,-1
EndSplineSet
Validated: 1
EndChar

StartChar: Adieresis
Encoding: 196 196 6
Width: 1321
GlyphClass: 2
Flags: W
AnchorPoint: "Anchor-3" 0 0 basechar 0
AnchorPoint: "Anchor-2" 663 1825 basechar 0
AnchorPoint: "Anchor-1" 661 0 basechar 0
AnchorPoint: "Anchor-0" 1189 10 basechar 0
LayerCount: 2
Back
Fore
SplineSet
409 1593.5 m 128,-1,1
 381 1610 381 1610 364.5 1637.5 c 128,-1,2
 348 1665 348 1665 348 1697 c 0,3,4
 348 1748 348 1748 382.5 1782 c 128,-1,5
 417 1816 417 1816 467 1816 c 256,6,7
 517 1816 517 1816 553 1781.5 c 128,-1,8
 589 1747 589 1747 589 1697 c 0,9,10
 589 1665 589 1665 572.5 1637 c 128,-1,11
 556 1609 556 1609 529 1593 c 128,-1,12
 502 1577 502 1577 470 1577 c 0,13,0
 437 1577 437 1577 409 1593.5 c 128,-1,1
770 1611.5 m 128,-1,15
 735 1646 735 1646 735 1697 c 256,16,17
 735 1748 735 1748 769 1782 c 128,-1,18
 803 1816 803 1816 852 1816 c 0,19,20
 902 1816 902 1816 937.5 1781.5 c 128,-1,21
 973 1747 973 1747 973 1697 c 256,22,23
 973 1647 973 1647 939 1612 c 128,-1,24
 905 1577 905 1577 854 1577 c 0,25,14
 805 1577 805 1577 770 1611.5 c 128,-1,15
998 312 m 1,26,-1
 324 312 l 1,27,-1
 211 0 l 1,28,-1
 24 0 l 1,29,-1
 574 1434 l 1,30,-1
 748 1434 l 1,31,-1
 1300 0 l 1,32,-1
 1114 0 l 1,33,-1
 998 312 l 1,26,-1
942 463 m 1,34,-1
 682 1164 l 2,35,36
 678 1180 678 1180 671 1208.5 c 128,-1,37
 664 1237 664 1237 659 1260 c 1,38,-1
 655 1260 l 1,39,40
 653 1245 653 1245 644 1209 c 128,-1,41
 635 1173 635 1173 631 1164 c 2,42,-1
 378 463 l 1,43,-1
 942 463 l 1,34,-1
EndSplineSet
Validated: 1
EndChar

StartChar: Agrave
Encoding: 192 192 7
Width: 1321
GlyphClass: 2
Flags: W
AnchorPoint: "Anchor-3" 0 0 basechar 0
AnchorPoint: "Anchor-2" 528 1956 basechar 0
AnchorPoint: "Anchor-1" 661 0 basechar 0
AnchorPoint: "Anchor-0" 1189 10 basechar 0
LayerCount: 2
Back
Fore
SplineSet
583 1596 m 1,0,-1
 341 1824 l 1,1,-1
 539 1824 l 1,2,-1
 740 1596 l 1,3,-1
 583 1596 l 1,0,-1
998 312 m 1,4,-1
 324 312 l 1,5,-1
 211 0 l 1,6,-1
 24 0 l 1,7,-1
 574 1434 l 1,8,-1
 748 1434 l 1,9,-1
 1300 0 l 1,10,-1
 1114 0 l 1,11,-1
 998 312 l 1,4,-1
942 463 m 1,12,-1
 682 1164 l 2,13,14
 678 1180 678 1180 671 1208.5 c 128,-1,15
 664 1237 664 1237 659 1260 c 1,16,-1
 655 1260 l 1,17,18
 653 1245 653 1245 644 1209 c 128,-1,19
 635 1173 635 1173 631 1164 c 2,20,-1
 378 463 l 1,21,-1
 942 463 l 1,12,-1
EndSplineSet
Validated: 1
EndChar

StartChar: Amacron
Encoding: 256 256 8
Width: 1321
GlyphClass: 2
Flags: W
AnchorPoint: "Anchor-3" 0 0 basechar 0
AnchorPoint: "Anchor-2" 663 1926 basechar 0
AnchorPoint: "Anchor-1" 661 0 basechar 0
AnchorPoint: "Anchor-0" 1189 10 basechar 0
LayerCount: 2
Back
Fore
SplineSet
976 1599 m 1,0,-1
 346 1599 l 1,1,-1
 346 1739 l 1,2,-1
 976 1739 l 1,3,-1
 976 1599 l 1,0,-1
998 312 m 1,4,-1
 324 312 l 1,5,-1
 211 0 l 1,6,-1
 24 0 l 1,7,-1
 574 1434 l 1,8,-1
 748 1434 l 1,9,-1
 1300 0 l 1,10,-1
 1114 0 l 1,11,-1
 998 312 l 1,4,-1
942 463 m 1,12,-1
 682 1164 l 2,13,14
 678 1180 678 1180 671 1208.5 c 128,-1,15
 664 1237 664 1237 659 1260 c 1,16,-1
 655 1260 l 1,17,18
 653 1245 653 1245 644 1209 c 128,-1,19
 635 1173 635 1173 631 1164 c 2,20,-1
 378 463 l 1,21,-1
 942 463 l 1,12,-1
EndSplineSet
Validated: 1
EndChar

StartChar: Aogonek
Encoding: 260 260 9
Width: 1321
GlyphClass: 2
Flags: W
AnchorPoint: "Anchor-3" 0 0 basechar 0
AnchorPoint: "Anchor-2" 661 1384 basechar 0
AnchorPoint: "Anchor-1" 661 0 basechar 0
AnchorPoint: "Anchor-0" 1189 10 basechar 0
LayerCount: 2
Back
Fore
SplineSet
1236 -270 m 1,1,-1
 1252 -387 l 1,2,3
 1233 -400 1233 -400 1140 -400 c 0,4,5
 932 -400 932 -400 932 -240 c 0,6,7
 932 -191 932 -191 961.5 -140.5 c 128,-1,8
 991 -90 991 -90 1034 -52 c 128,-1,9
 1077 -14 1077 -14 1114 0 c 1,10,-1
 998 312 l 1,11,-1
 324 312 l 1,12,-1
 211 0 l 1,13,-1
 24 0 l 1,14,-1
 574 1434 l 1,15,-1
 748 1434 l 1,16,-1
 1300 0 l 1,17,18
 1228 -15 1228 -15 1175.5 -50.5 c 128,-1,19
 1123 -86 1123 -86 1095.5 -126.5 c 128,-1,20
 1068 -167 1068 -167 1068 -193 c 0,21,22
 1068 -277 1068 -277 1166 -277 c 0,23,0
 1215 -277 1215 -277 1236 -270 c 1,1,-1
942 463 m 1,24,-1
 682 1164 l 2,25,26
 678 1180 678 1180 671 1208.5 c 128,-1,27
 664 1237 664 1237 659 1260 c 1,28,-1
 655 1260 l 1,29,30
 653 1245 653 1245 644 1209 c 128,-1,31
 635 1173 635 1173 631 1164 c 2,32,-1
 378 463 l 1,33,-1
 942 463 l 1,24,-1
EndSplineSet
Validated: 1
EndChar

StartChar: Aring
Encoding: 197 197 10
Width: 1321
GlyphClass: 2
Flags: W
AnchorPoint: "Anchor-3" 0 0 basechar 0
AnchorPoint: "Anchor-2" 663 1484 basechar 0
AnchorPoint: "Anchor-1" 661 0 basechar 0
AnchorPoint: "Anchor-0" 1189 10 basechar 0
LayerCount: 2
Back
Fore
SplineSet
554 1541 m 128,-1,1
 508 1566 508 1566 481.5 1609.5 c 128,-1,2
 455 1653 455 1653 455 1706 c 0,3,4
 455 1762 455 1762 482.5 1807 c 128,-1,5
 510 1852 510 1852 557.5 1878 c 128,-1,6
 605 1904 605 1904 664 1904 c 0,7,8
 721 1904 721 1904 767.5 1879 c 128,-1,9
 814 1854 814 1854 840.5 1810 c 128,-1,10
 867 1766 867 1766 867 1712 c 0,11,12
 867 1657 867 1657 839.5 1612 c 128,-1,13
 812 1567 812 1567 764 1541.5 c 128,-1,14
 716 1516 716 1516 657 1516 c 0,15,0
 600 1516 600 1516 554 1541 c 128,-1,1
595.5 1776.5 m 128,-1,17
 569 1750 569 1750 569 1710 c 0,18,19
 569 1671 569 1671 595.5 1644.5 c 128,-1,20
 622 1618 622 1618 661 1618 c 0,21,22
 702 1618 702 1618 729.5 1644.5 c 128,-1,23
 757 1671 757 1671 757 1710 c 0,24,25
 757 1750 757 1750 729.5 1776.5 c 128,-1,26
 702 1803 702 1803 661 1803 c 0,27,16
 622 1803 622 1803 595.5 1776.5 c 128,-1,17
998 312 m 1,28,-1
 324 312 l 1,29,-1
 211 0 l 1,30,-1
 24 0 l 1,31,-1
 574 1434 l 1,32,-1
 748 1434 l 1,33,-1
 1300 0 l 1,34,-1
 1114 0 l 1,35,-1
 998 312 l 1,28,-1
942 463 m 1,36,-1
 682 1164 l 2,37,38
 678 1180 678 1180 671 1208.5 c 128,-1,39
 664 1237 664 1237 659 1260 c 1,40,-1
 655 1260 l 1,41,42
 653 1245 653 1245 644 1209 c 128,-1,43
 635 1173 635 1173 631 1164 c 2,44,-1
 378 463 l 1,45,-1
 942 463 l 1,36,-1
EndSplineSet
Validated: 1
EndChar

StartChar: Atilde
Encoding: 195 195 11
Width: 1321
GlyphClass: 2
Flags: W
AnchorPoint: "Anchor-3" 0 0 basechar 0
AnchorPoint: "Anchor-2" 663 1868 basechar 0
AnchorPoint: "Anchor-1" 661 0 basechar 0
AnchorPoint: "Anchor-0" 1189 10 basechar 0
LayerCount: 2
Back
Fore
SplineSet
454 1612 m 1,1,-1
 340 1612 l 1,2,3
 340 1720 340 1720 388.5 1784 c 128,-1,4
 437 1848 437 1848 522 1848 c 0,5,6
 558 1848 558 1848 588 1835 c 128,-1,7
 618 1822 618 1822 662 1796 c 0,8,9
 702 1771 702 1771 730 1759 c 128,-1,10
 758 1747 758 1747 789 1747 c 0,11,12
 863 1747 863 1747 863 1843 c 1,13,-1
 981 1843 l 1,14,15
 981 1773 981 1773 959 1719 c 128,-1,16
 937 1665 937 1665 897 1635 c 128,-1,17
 857 1605 857 1605 803 1605 c 0,18,19
 767 1605 767 1605 733 1618.5 c 128,-1,20
 699 1632 699 1632 648 1659 c 0,21,22
 606 1682 606 1682 577.5 1693.5 c 128,-1,23
 549 1705 549 1705 522 1705 c 0,24,0
 454 1705 454 1705 454 1612 c 1,1,-1
998 312 m 1,25,-1
 324 312 l 1,26,-1
 211 0 l 1,27,-1
 24 0 l 1,28,-1
 574 1434 l 1,29,-1
 748 1434 l 1,30,-1
 1300 0 l 1,31,-1
 1114 0 l 1,32,-1
 998 312 l 1,25,-1
942 463 m 1,33,-1
 682 1164 l 2,34,35
 678 1180 678 1180 671 1208.5 c 128,-1,36
 664 1237 664 1237 659 1260 c 1,37,-1
 655 1260 l 1,38,39
 653 1245 653 1245 644 1209 c 128,-1,40
 635 1173 635 1173 631 1164 c 2,41,-1
 378 463 l 1,42,-1
 942 463 l 1,33,-1
EndSplineSet
Validated: 1
EndChar

StartChar: AE
Encoding: 198 198 12
Width: 1762
GlyphClass: 2
Flags: W
AnchorPoint: "Anchor-3" 0 0 basechar 0
AnchorPoint: "Anchor-2" 1267 1354 basechar 0
AnchorPoint: "Anchor-1" 1227 0 basechar 0
AnchorPoint: "Anchor-0" 1538 10 basechar 0
LayerCount: 2
Back
Fore
SplineSet
1667 152 m 1,0,-1
 1667 0 l 1,1,-1
 907 0 l 1,2,-1
 907 312 l 1,3,-1
 380 312 l 1,4,-1
 211 0 l 1,5,-1
 24 0 l 1,6,-1
 821 1434 l 1,7,-1
 1635 1434 l 1,8,-1
 1635 1282 l 1,9,-1
 1075 1282 l 1,10,-1
 1075 805 l 1,11,-1
 1573 805 l 1,12,-1
 1573 654 l 1,13,-1
 1075 654 l 1,14,-1
 1075 152 l 1,15,-1
 1667 152 l 1,0,-1
907 463 m 1,16,-1
 907 1281 l 1,17,-1
 463 463 l 1,18,-1
 907 463 l 1,16,-1
EndSplineSet
Validated: 1
EndChar

StartChar: B
Encoding: 66 66 13
Width: 1174
GlyphClass: 2
Flags: W
AnchorPoint: "Anchor-3" 0 0 basechar 0
AnchorPoint: "Anchor-2" 587 1434 basechar 0
AnchorPoint: "Anchor-1" 587 0 basechar 0
AnchorPoint: "Anchor-0" 0 0 basechar 0
LayerCount: 2
Back
Fore
SplineSet
188 1 m 1,0,-1
 188 1435 l 1,1,-1
 596 1435 l 2,2,3
 707 1435 707 1435 794 1396 c 128,-1,4
 881 1357 881 1357 930.5 1283 c 128,-1,5
 980 1209 980 1209 980 1107 c 0,6,7
 980 984 980 984 920 894.5 c 128,-1,8
 860 805 860 805 752 767 c 1,9,-1
 752 763 l 1,10,11
 850 752 850 752 922 705.5 c 128,-1,12
 994 659 994 659 1032.5 583.5 c 128,-1,13
 1071 508 1071 508 1071 412 c 0,14,15
 1071 288 1071 288 1010 194.5 c 128,-1,16
 949 101 949 101 843 50.5 c 128,-1,17
 737 0 737 0 606 0 c 2,18,-1
 188 1 l 1,0,-1
529 820 m 2,19,20
 656 820 656 820 730.5 885 c 128,-1,21
 805 950 805 950 805 1074 c 0,22,23
 805 1185 805 1185 738.5 1234 c 128,-1,24
 672 1283 672 1283 549 1283 c 2,25,-1
 357 1283 l 1,26,-1
 357 820 l 1,27,-1
 529 820 l 2,19,20
586 153 m 2,28,29
 730 153 730 153 813.5 220 c 128,-1,30
 897 287 897 287 897 415 c 0,31,32
 897 669 897 669 550 669 c 2,33,-1
 358 669 l 1,34,-1
 358 153 l 1,35,-1
 586 153 l 2,28,29
EndSplineSet
Validated: 1
EndChar

StartChar: C
Encoding: 67 67 14
Width: 1268
GlyphClass: 2
Flags: W
AnchorPoint: "Anchor-3" 0 0 basechar 0
AnchorPoint: "Anchor-2" 714 1354 basechar 0
AnchorPoint: "Anchor-1" 634 0 basechar 0
AnchorPoint: "Anchor-0" 0 0 basechar 0
LayerCount: 2
Back
Fore
SplineSet
385 66 m 128,-1,1
 242 152 242 152 167.5 316.5 c 128,-1,2
 93 481 93 481 93 713 c 0,3,4
 93 949 93 949 179 1117 c 128,-1,5
 265 1285 265 1285 429.5 1372.5 c 128,-1,6
 594 1460 594 1460 825 1460 c 0,7,8
 979 1460 979 1460 1149 1416 c 1,9,-1
 1100 1256 l 1,10,11
 1061 1269 1061 1269 972.5 1279 c 128,-1,12
 884 1289 884 1289 823 1292 c 0,13,14
 811 1293 811 1293 787 1293 c 0,15,16
 627 1293 627 1293 513 1223.5 c 128,-1,17
 399 1154 399 1154 339 1025 c 128,-1,18
 279 896 279 896 279 721 c 0,19,20
 279 540 279 540 334.5 410 c 128,-1,21
 390 280 390 280 496.5 211 c 128,-1,22
 603 142 603 142 752 142 c 0,23,24
 840 142 840 142 932 163 c 128,-1,25
 1024 184 1024 184 1124 218 c 1,26,-1
 1180 65 l 1,27,28
 1086 29 1086 29 963.5 4.5 c 128,-1,29
 841 -20 841 -20 729 -20 c 0,30,0
 528 -20 528 -20 385 66 c 128,-1,1
EndSplineSet
Validated: 1
EndChar

StartChar: Cacute
Encoding: 262 262 15
Width: 1268
GlyphClass: 2
Flags: W
AnchorPoint: "Anchor-3" 0 0 basechar 0
AnchorPoint: "Anchor-2" 725 1926 basechar 0
AnchorPoint: "Anchor-1" 634 0 basechar 0
AnchorPoint: "Anchor-0" 0 0 basechar 0
LayerCount: 2
Back
Fore
SplineSet
851 1796 m 1,0,-1
 1067 1796 l 1,1,-1
 805 1598 l 1,2,-1
 628 1598 l 1,3,-1
 851 1796 l 1,0,-1
385 66 m 128,-1,5
 242 152 242 152 167.5 316.5 c 128,-1,6
 93 481 93 481 93 713 c 0,7,8
 93 949 93 949 179 1117 c 128,-1,9
 265 1285 265 1285 429.5 1372.5 c 128,-1,10
 594 1460 594 1460 825 1460 c 0,11,12
 979 1460 979 1460 1149 1416 c 1,13,-1
 1100 1256 l 1,14,15
 1061 1269 1061 1269 972.5 1279 c 128,-1,16
 884 1289 884 1289 823 1292 c 0,17,18
 811 1293 811 1293 787 1293 c 0,19,20
 627 1293 627 1293 513 1223.5 c 128,-1,21
 399 1154 399 1154 339 1025 c 128,-1,22
 279 896 279 896 279 721 c 0,23,24
 279 540 279 540 334.5 410 c 128,-1,25
 390 280 390 280 496.5 211 c 128,-1,26
 603 142 603 142 752 142 c 0,27,28
 840 142 840 142 932 163 c 128,-1,29
 1024 184 1024 184 1124 218 c 1,30,-1
 1180 65 l 1,31,32
 1086 29 1086 29 963.5 4.5 c 128,-1,33
 841 -20 841 -20 729 -20 c 0,34,4
 528 -20 528 -20 385 66 c 128,-1,5
EndSplineSet
Validated: 1
EndChar

StartChar: Ccaron
Encoding: 268 268 16
Width: 1268
GlyphClass: 2
Flags: W
AnchorPoint: "Anchor-3" 0 0 basechar 0
AnchorPoint: "Anchor-2" 716 1928 basechar 0
AnchorPoint: "Anchor-1" 634 0 basechar 0
AnchorPoint: "Anchor-0" 0 0 basechar 0
LayerCount: 2
Back
Fore
SplineSet
373 1802 m 1,0,-1
 548 1802 l 1,1,-1
 712 1668 l 1,2,-1
 876 1802 l 1,3,-1
 1055 1802 l 1,4,-1
 781 1567 l 1,5,-1
 649 1567 l 1,6,-1
 373 1802 l 1,0,-1
385 66 m 128,-1,8
 242 152 242 152 167.5 316.5 c 128,-1,9
 93 481 93 481 93 713 c 0,10,11
 93 949 93 949 179 1117 c 128,-1,12
 265 1285 265 1285 429.5 1372.5 c 128,-1,13
 594 1460 594 1460 825 1460 c 0,14,15
 979 1460 979 1460 1149 1416 c 1,16,-1
 1100 1256 l 1,17,18
 1061 1269 1061 1269 972.5 1279 c 128,-1,19
 884 1289 884 1289 823 1292 c 0,20,21
 811 1293 811 1293 787 1293 c 0,22,23
 627 1293 627 1293 513 1223.5 c 128,-1,24
 399 1154 399 1154 339 1025 c 128,-1,25
 279 896 279 896 279 721 c 0,26,27
 279 540 279 540 334.5 410 c 128,-1,28
 390 280 390 280 496.5 211 c 128,-1,29
 603 142 603 142 752 142 c 0,30,31
 840 142 840 142 932 163 c 128,-1,32
 1024 184 1024 184 1124 218 c 1,33,-1
 1180 65 l 1,34,35
 1086 29 1086 29 963.5 4.5 c 128,-1,36
 841 -20 841 -20 729 -20 c 0,37,7
 528 -20 528 -20 385 66 c 128,-1,8
EndSplineSet
Validated: 1
EndChar

StartChar: Ccedilla
Encoding: 199 199 17
Width: 1268
GlyphClass: 2
Flags: W
AnchorPoint: "Anchor-3" 0 0 basechar 0
AnchorPoint: "Anchor-2" 714 1354 basechar 0
AnchorPoint: "Anchor-1" 636 -432 basechar 0
AnchorPoint: "Anchor-0" 0 0 basechar 0
LayerCount: 2
Back
Fore
SplineSet
846 -109.5 m 128,-1,1
 907 -155 907 -155 907 -236 c 0,2,3
 907 -432 907 -432 612 -432 c 0,4,5
 583 -432 583 -432 547 -430 c 1,6,-1
 547 -310 l 1,7,8
 590 -316 590 -316 617 -316 c 0,9,10
 758 -316 758 -316 758 -246 c 0,11,12
 758 -174 758 -174 629 -174 c 0,13,14
 616 -174 616 -174 591 -178 c 1,15,-1
 591 -9 l 1,16,17
 432 19 432 19 320.5 112 c 128,-1,18
 209 205 209 205 151 357 c 128,-1,19
 93 509 93 509 93 713 c 0,20,21
 93 949 93 949 179 1117 c 128,-1,22
 265 1285 265 1285 429.5 1372.5 c 128,-1,23
 594 1460 594 1460 825 1460 c 0,24,25
 979 1460 979 1460 1149 1416 c 1,26,-1
 1100 1256 l 1,27,28
 1061 1269 1061 1269 972.5 1279 c 128,-1,29
 884 1289 884 1289 823 1292 c 0,30,31
 811 1293 811 1293 787 1293 c 0,32,33
 627 1293 627 1293 513 1223.5 c 128,-1,34
 399 1154 399 1154 339 1025 c 128,-1,35
 279 896 279 896 279 721 c 0,36,37
 279 540 279 540 334.5 410 c 128,-1,38
 390 280 390 280 496.5 211 c 128,-1,39
 603 142 603 142 752 142 c 0,40,41
 840 142 840 142 932 163 c 128,-1,42
 1024 184 1024 184 1124 218 c 1,43,-1
 1180 65 l 1,44,45
 1086 29 1086 29 963.5 4.5 c 128,-1,46
 841 -20 841 -20 729 -20 c 0,47,48
 695 -20 695 -20 679 -19 c 1,49,-1
 679 -64 l 1,50,0
 785 -64 785 -64 846 -109.5 c 128,-1,1
EndSplineSet
Validated: 1
EndChar

StartChar: Cdotaccent
Encoding: 266 266 18
Width: 1268
GlyphClass: 2
Flags: W
AnchorPoint: "Anchor-3" 0 0 basechar 0
AnchorPoint: "Anchor-2" 716 1793 basechar 0
AnchorPoint: "Anchor-1" 634 0 basechar 0
AnchorPoint: "Anchor-0" 0 0 basechar 0
LayerCount: 2
Back
Fore
SplineSet
654.5 1578 m 128,-1,1
 627 1594 627 1594 610.5 1621.5 c 128,-1,2
 594 1649 594 1649 594 1682 c 0,3,4
 594 1730 594 1730 629.5 1764.5 c 128,-1,5
 665 1799 665 1799 714 1799 c 0,6,7
 764 1799 764 1799 798.5 1765.5 c 128,-1,8
 833 1732 833 1732 833 1682 c 256,9,10
 833 1632 833 1632 798.5 1597 c 128,-1,11
 764 1562 764 1562 714 1562 c 0,12,0
 682 1562 682 1562 654.5 1578 c 128,-1,1
385 66 m 128,-1,14
 242 152 242 152 167.5 316.5 c 128,-1,15
 93 481 93 481 93 713 c 0,16,17
 93 949 93 949 179 1117 c 128,-1,18
 265 1285 265 1285 429.5 1372.5 c 128,-1,19
 594 1460 594 1460 825 1460 c 0,20,21
 979 1460 979 1460 1149 1416 c 1,22,-1
 1100 1256 l 1,23,24
 1061 1269 1061 1269 972.5 1279 c 128,-1,25
 884 1289 884 1289 823 1292 c 0,26,27
 811 1293 811 1293 787 1293 c 0,28,29
 627 1293 627 1293 513 1223.5 c 128,-1,30
 399 1154 399 1154 339 1025 c 128,-1,31
 279 896 279 896 279 721 c 0,32,33
 279 540 279 540 334.5 410 c 128,-1,34
 390 280 390 280 496.5 211 c 128,-1,35
 603 142 603 142 752 142 c 0,36,37
 840 142 840 142 932 163 c 128,-1,38
 1024 184 1024 184 1124 218 c 1,39,-1
 1180 65 l 1,40,41
 1086 29 1086 29 963.5 4.5 c 128,-1,42
 841 -20 841 -20 729 -20 c 0,43,13
 528 -20 528 -20 385 66 c 128,-1,14
EndSplineSet
Validated: 1
EndChar

StartChar: D
Encoding: 68 68 19
Width: 1436
GlyphClass: 2
Flags: W
AnchorPoint: "Anchor-3" 0 0 basechar 0
AnchorPoint: "Anchor-2" 668 1354 basechar 0
AnchorPoint: "Anchor-1" 718 0 basechar 0
AnchorPoint: "Anchor-0" 0 0 basechar 0
LayerCount: 2
Back
Fore
SplineSet
187 1432 m 1,0,-1
 583 1432 l 2,1,2
 959 1432 959 1432 1150 1260.5 c 128,-1,3
 1341 1089 1341 1089 1341 734 c 0,4,5
 1341 510 1341 510 1244.5 344 c 128,-1,6
 1148 178 1148 178 973.5 89 c 128,-1,7
 799 0 799 0 568 0 c 2,8,-1
 187 -2 l 1,9,-1
 187 1432 l 1,0,-1
570 148 m 2,10,11
 758 148 758 148 892 216 c 128,-1,12
 1026 284 1026 284 1096 414 c 128,-1,13
 1166 544 1166 544 1166 728 c 0,14,15
 1166 1280 1166 1280 579 1280 c 1,16,-1
 356 1278 l 1,17,-1
 356 148 l 1,18,-1
 570 148 l 2,10,11
EndSplineSet
Validated: 1
EndChar

StartChar: Dcaron
Encoding: 270 270 21
Width: 1436
GlyphClass: 2
Flags: W
AnchorPoint: "Anchor-3" 0 0 basechar 0
AnchorPoint: "Anchor-2" 670 1928 basechar 0
AnchorPoint: "Anchor-1" 718 0 basechar 0
AnchorPoint: "Anchor-0" 0 0 basechar 0
LayerCount: 2
Back
Fore
SplineSet
327 1802 m 1,0,-1
 502 1802 l 1,1,-1
 666 1668 l 1,2,-1
 830 1802 l 1,3,-1
 1009 1802 l 1,4,-1
 735 1567 l 1,5,-1
 603 1567 l 1,6,-1
 327 1802 l 1,0,-1
187 1432 m 1,7,-1
 583 1432 l 2,8,9
 959 1432 959 1432 1150 1260.5 c 128,-1,10
 1341 1089 1341 1089 1341 734 c 0,11,12
 1341 510 1341 510 1244.5 344 c 128,-1,13
 1148 178 1148 178 973.5 89 c 128,-1,14
 799 0 799 0 568 0 c 2,15,-1
 187 -2 l 1,16,-1
 187 1432 l 1,7,-1
570 148 m 2,17,18
 758 148 758 148 892 216 c 128,-1,19
 1026 284 1026 284 1096 414 c 128,-1,20
 1166 544 1166 544 1166 728 c 0,21,22
 1166 1280 1166 1280 579 1280 c 1,23,-1
 356 1278 l 1,24,-1
 356 148 l 1,25,-1
 570 148 l 2,17,18
EndSplineSet
Validated: 1
EndChar

StartChar: E
Encoding: 69 69 23
Width: 1036
GlyphClass: 2
Flags: W
AnchorPoint: "Anchor-3" 0 0 basechar 0
AnchorPoint: "Anchor-2" 548 1354 basechar 0
AnchorPoint: "Anchor-1" 508 0 basechar 0
AnchorPoint: "Anchor-0" 819 10 basechar 0
LayerCount: 2
Back
Fore
SplineSet
188 1434 m 1,0,-1
 916 1434 l 1,1,-1
 916 1282 l 1,2,-1
 356 1282 l 1,3,-1
 356 805 l 1,4,-1
 854 805 l 1,5,-1
 854 654 l 1,6,-1
 356 654 l 1,7,-1
 356 152 l 1,8,-1
 948 152 l 1,9,-1
 948 0 l 1,10,-1
 188 0 l 1,11,-1
 188 1434 l 1,0,-1
EndSplineSet
Validated: 1
EndChar

StartChar: Eacute
Encoding: 201 201 24
Width: 1036
GlyphClass: 2
Flags: W
AnchorPoint: "Anchor-3" 0 0 basechar 0
AnchorPoint: "Anchor-2" 559 1926 basechar 0
AnchorPoint: "Anchor-1" 508 0 basechar 0
AnchorPoint: "Anchor-0" 819 10 basechar 0
LayerCount: 2
Back
Fore
SplineSet
685 1796 m 1,0,-1
 901 1796 l 1,1,-1
 639 1598 l 1,2,-1
 462 1598 l 1,3,-1
 685 1796 l 1,0,-1
188 1434 m 1,4,-1
 916 1434 l 1,5,-1
 916 1282 l 1,6,-1
 356 1282 l 1,7,-1
 356 805 l 1,8,-1
 854 805 l 1,9,-1
 854 654 l 1,10,-1
 356 654 l 1,11,-1
 356 152 l 1,12,-1
 948 152 l 1,13,-1
 948 0 l 1,14,-1
 188 0 l 1,15,-1
 188 1434 l 1,4,-1
EndSplineSet
Validated: 1
EndChar

StartChar: Ecaron
Encoding: 282 282 25
Width: 1036
GlyphClass: 2
Flags: W
AnchorPoint: "Anchor-3" 0 0 basechar 0
AnchorPoint: "Anchor-2" 550 1928 basechar 0
AnchorPoint: "Anchor-1" 508 0 basechar 0
AnchorPoint: "Anchor-0" 819 10 basechar 0
LayerCount: 2
Back
Fore
SplineSet
207 1802 m 1,0,-1
 382 1802 l 1,1,-1
 546 1668 l 1,2,-1
 710 1802 l 1,3,-1
 889 1802 l 1,4,-1
 615 1567 l 1,5,-1
 483 1567 l 1,6,-1
 207 1802 l 1,0,-1
188 1434 m 1,7,-1
 916 1434 l 1,8,-1
 916 1282 l 1,9,-1
 356 1282 l 1,10,-1
 356 805 l 1,11,-1
 854 805 l 1,12,-1
 854 654 l 1,13,-1
 356 654 l 1,14,-1
 356 152 l 1,15,-1
 948 152 l 1,16,-1
 948 0 l 1,17,-1
 188 0 l 1,18,-1
 188 1434 l 1,7,-1
EndSplineSet
Validated: 1
EndChar

StartChar: Ecircumflex
Encoding: 202 202 26
Width: 1036
GlyphClass: 2
Flags: W
AnchorPoint: "Anchor-3" 0 0 basechar 0
AnchorPoint: "Anchor-2" 550 1930 basechar 0
AnchorPoint: "Anchor-1" 508 0 basechar 0
AnchorPoint: "Anchor-0" 819 10 basechar 0
LayerCount: 2
Back
Fore
SplineSet
494 1800 m 1,0,-1
 627 1800 l 1,1,-1
 903 1566 l 1,2,-1
 711 1566 l 1,3,-1
 557 1687 l 1,4,-1
 402 1566 l 1,5,-1
 219 1566 l 1,6,-1
 494 1800 l 1,0,-1
188 1434 m 1,7,-1
 916 1434 l 1,8,-1
 916 1282 l 1,9,-1
 356 1282 l 1,10,-1
 356 805 l 1,11,-1
 854 805 l 1,12,-1
 854 654 l 1,13,-1
 356 654 l 1,14,-1
 356 152 l 1,15,-1
 948 152 l 1,16,-1
 948 0 l 1,17,-1
 188 0 l 1,18,-1
 188 1434 l 1,7,-1
EndSplineSet
Validated: 1
EndChar

StartChar: Edieresis
Encoding: 203 203 27
Width: 1036
GlyphClass: 2
Flags: W
AnchorPoint: "Anchor-3" 0 0 basechar 0
AnchorPoint: "Anchor-2" 550 1795 basechar 0
AnchorPoint: "Anchor-1" 508 0 basechar 0
AnchorPoint: "Anchor-0" 819 10 basechar 0
LayerCount: 2
Back
Fore
SplineSet
296 1563.5 m 128,-1,1
 268 1580 268 1580 251.5 1607.5 c 128,-1,2
 235 1635 235 1635 235 1667 c 0,3,4
 235 1718 235 1718 269.5 1752 c 128,-1,5
 304 1786 304 1786 354 1786 c 256,6,7
 404 1786 404 1786 440 1751.5 c 128,-1,8
 476 1717 476 1717 476 1667 c 0,9,10
 476 1635 476 1635 459.5 1607 c 128,-1,11
 443 1579 443 1579 416 1563 c 128,-1,12
 389 1547 389 1547 357 1547 c 0,13,0
 324 1547 324 1547 296 1563.5 c 128,-1,1
657 1581.5 m 128,-1,15
 622 1616 622 1616 622 1667 c 256,16,17
 622 1718 622 1718 656 1752 c 128,-1,18
 690 1786 690 1786 739 1786 c 0,19,20
 789 1786 789 1786 824.5 1751.5 c 128,-1,21
 860 1717 860 1717 860 1667 c 256,22,23
 860 1617 860 1617 826 1582 c 128,-1,24
 792 1547 792 1547 741 1547 c 0,25,14
 692 1547 692 1547 657 1581.5 c 128,-1,15
188 1434 m 1,26,-1
 916 1434 l 1,27,-1
 916 1282 l 1,28,-1
 356 1282 l 1,29,-1
 356 805 l 1,30,-1
 854 805 l 1,31,-1
 854 654 l 1,32,-1
 356 654 l 1,33,-1
 356 152 l 1,34,-1
 948 152 l 1,35,-1
 948 0 l 1,36,-1
 188 0 l 1,37,-1
 188 1434 l 1,26,-1
EndSplineSet
Validated: 1
EndChar

StartChar: Edotaccent
Encoding: 278 278 28
Width: 1036
GlyphClass: 2
Flags: W
AnchorPoint: "Anchor-3" 0 0 basechar 0
AnchorPoint: "Anchor-2" 550 1793 basechar 0
AnchorPoint: "Anchor-1" 508 0 basechar 0
AnchorPoint: "Anchor-0" 819 10 basechar 0
LayerCount: 2
Back
Fore
SplineSet
488.5 1578 m 128,-1,1
 461 1594 461 1594 444.5 1621.5 c 128,-1,2
 428 1649 428 1649 428 1682 c 0,3,4
 428 1730 428 1730 463.5 1764.5 c 128,-1,5
 499 1799 499 1799 548 1799 c 0,6,7
 598 1799 598 1799 632.5 1765.5 c 128,-1,8
 667 1732 667 1732 667 1682 c 256,9,10
 667 1632 667 1632 632.5 1597 c 128,-1,11
 598 1562 598 1562 548 1562 c 0,12,0
 516 1562 516 1562 488.5 1578 c 128,-1,1
188 1434 m 1,13,-1
 916 1434 l 1,14,-1
 916 1282 l 1,15,-1
 356 1282 l 1,16,-1
 356 805 l 1,17,-1
 854 805 l 1,18,-1
 854 654 l 1,19,-1
 356 654 l 1,20,-1
 356 152 l 1,21,-1
 948 152 l 1,22,-1
 948 0 l 1,23,-1
 188 0 l 1,24,-1
 188 1434 l 1,13,-1
EndSplineSet
Validated: 1
EndChar

StartChar: Egrave
Encoding: 200 200 29
Width: 1036
GlyphClass: 2
Flags: W
AnchorPoint: "Anchor-3" 0 0 basechar 0
AnchorPoint: "Anchor-2" 415 1926 basechar 0
AnchorPoint: "Anchor-1" 508 0 basechar 0
AnchorPoint: "Anchor-0" 819 10 basechar 0
LayerCount: 2
Back
Fore
SplineSet
228 1794 m 1,0,-1
 426 1794 l 1,1,-1
 627 1566 l 1,2,-1
 470 1566 l 1,3,-1
 228 1794 l 1,0,-1
188 1434 m 1,4,-1
 916 1434 l 1,5,-1
 916 1282 l 1,6,-1
 356 1282 l 1,7,-1
 356 805 l 1,8,-1
 854 805 l 1,9,-1
 854 654 l 1,10,-1
 356 654 l 1,11,-1
 356 152 l 1,12,-1
 948 152 l 1,13,-1
 948 0 l 1,14,-1
 188 0 l 1,15,-1
 188 1434 l 1,4,-1
EndSplineSet
Validated: 1
EndChar

StartChar: Emacron
Encoding: 274 274 30
Width: 1036
GlyphClass: 2
Flags: W
AnchorPoint: "Anchor-3" 0 0 basechar 0
AnchorPoint: "Anchor-2" 550 1896 basechar 0
AnchorPoint: "Anchor-1" 508 0 basechar 0
AnchorPoint: "Anchor-0" 819 10 basechar 0
LayerCount: 2
Back
Fore
SplineSet
233 1709 m 1,0,-1
 863 1709 l 1,1,-1
 863 1569 l 1,2,-1
 233 1569 l 1,3,-1
 233 1709 l 1,0,-1
188 1434 m 1,4,-1
 916 1434 l 1,5,-1
 916 1282 l 1,6,-1
 356 1282 l 1,7,-1
 356 805 l 1,8,-1
 854 805 l 1,9,-1
 854 654 l 1,10,-1
 356 654 l 1,11,-1
 356 152 l 1,12,-1
 948 152 l 1,13,-1
 948 0 l 1,14,-1
 188 0 l 1,15,-1
 188 1434 l 1,4,-1
EndSplineSet
Validated: 1
EndChar

StartChar: Eogonek
Encoding: 280 280 31
Width: 1036
GlyphClass: 2
Flags: W
AnchorPoint: "Anchor-3" 0 0 basechar 0
AnchorPoint: "Anchor-2" 548 1354 basechar 0
AnchorPoint: "Anchor-1" 508 0 basechar 0
AnchorPoint: "Anchor-0" 819 10 basechar 0
LayerCount: 2
Back
Fore
SplineSet
963 -387 m 1,0,1
 944 -400 944 -400 851 -400 c 0,2,3
 643 -400 643 -400 643 -240 c 0,4,5
 643 -191 643 -191 672.5 -140.5 c 128,-1,6
 702 -90 702 -90 745 -52 c 128,-1,7
 788 -14 788 -14 825 0 c 1,8,-1
 188 0 l 1,9,-1
 188 1434 l 1,10,-1
 916 1434 l 1,11,-1
 916 1282 l 1,12,-1
 356 1282 l 1,13,-1
 356 805 l 1,14,-1
 854 805 l 1,15,-1
 854 654 l 1,16,-1
 356 654 l 1,17,-1
 356 152 l 1,18,-1
 948 152 l 1,19,-1
 948 0 l 1,20,-1
 949 0 l 1,21,22
 896 -15 896 -15 857.5 -50.5 c 128,-1,23
 819 -86 819 -86 799 -126.5 c 128,-1,24
 779 -167 779 -167 779 -193 c 0,25,26
 779 -277 779 -277 877 -277 c 0,27,28
 926 -277 926 -277 947 -270 c 1,29,-1
 963 -387 l 1,0,1
EndSplineSet
Validated: 1
EndChar

StartChar: F
Encoding: 70 70 32
Width: 1000
GlyphClass: 2
Flags: W
AnchorPoint: "Anchor-3" 0 0 basechar 0
AnchorPoint: "Anchor-2" 500 1434 basechar 0
AnchorPoint: "Anchor-1" 500 0 basechar 0
AnchorPoint: "Anchor-0" 0 0 basechar 0
LayerCount: 2
Back
Fore
SplineSet
188 1434 m 1,0,-1
 916 1434 l 1,1,-1
 916 1282 l 1,2,-1
 356 1282 l 1,3,-1
 356 786 l 1,4,-1
 854 786 l 1,5,-1
 854 635 l 1,6,-1
 356 635 l 1,7,-1
 356 0 l 1,8,-1
 188 0 l 1,9,-1
 188 1434 l 1,0,-1
EndSplineSet
Validated: 1
EndChar

StartChar: G
Encoding: 71 71 33
Width: 1405
GlyphClass: 2
Flags: W
AnchorPoint: "Anchor-3" 0 0 basechar 0
AnchorPoint: "Anchor-2" 783 1354 basechar 0
AnchorPoint: "Anchor-1" 703 0 basechar 0
AnchorPoint: "Anchor-0" 0 0 basechar 0
LayerCount: 2
Back
Fore
SplineSet
410 63 m 128,-1,1
 256 148 256 148 175.5 310 c 128,-1,2
 95 472 95 472 95 700 c 0,3,4
 95 940 95 940 182.5 1110.5 c 128,-1,5
 270 1281 270 1281 436.5 1370 c 128,-1,6
 603 1459 603 1459 838 1459 c 0,7,8
 930 1459 930 1459 1034 1445.5 c 128,-1,9
 1138 1432 1138 1432 1232 1413 c 1,10,-1
 1177 1265 l 1,11,12
 1103 1278 1103 1278 1006 1290 c 128,-1,13
 909 1302 909 1302 820 1302 c 0,14,15
 646 1302 646 1302 522.5 1232.5 c 128,-1,16
 399 1163 399 1163 334.5 1030.5 c 128,-1,17
 270 898 270 898 270 711 c 0,18,19
 270 526 270 526 332 395 c 128,-1,20
 394 264 394 264 513 195.5 c 128,-1,21
 632 127 632 127 800 127 c 0,22,23
 881 127 881 127 957 144.5 c 128,-1,24
 1033 162 1033 162 1092 194 c 1,25,-1
 1092 586 l 1,26,-1
 728 586 l 1,27,-1
 728 738 l 1,28,-1
 1260 738 l 1,29,-1
 1261 100 l 1,30,31
 1159 42 1159 42 1033.5 10 c 128,-1,32
 908 -22 908 -22 781 -22 c 0,33,0
 564 -22 564 -22 410 63 c 128,-1,1
EndSplineSet
Validated: 1
EndChar

StartChar: Gbreve
Encoding: 286 286 34
Width: 1405
GlyphClass: 2
Flags: W
AnchorPoint: "Anchor-3" 0 0 basechar 0
AnchorPoint: "Anchor-2" 785 1850 basechar 0
AnchorPoint: "Anchor-1" 703 0 basechar 0
AnchorPoint: "Anchor-0" 0 0 basechar 0
LayerCount: 2
Back
Fore
SplineSet
570 1613.5 m 128,-1,1
 494 1669 494 1669 488 1770 c 1,2,-1
 648 1770 l 1,3,4
 653 1729 653 1729 687.5 1707 c 128,-1,5
 722 1685 722 1685 780 1685 c 0,6,7
 836 1685 836 1685 872 1707.5 c 128,-1,8
 908 1730 908 1730 915 1770 c 1,9,-1
 1077 1770 l 1,10,11
 1066 1669 1066 1669 987.5 1613.5 c 128,-1,12
 909 1558 909 1558 778 1558 c 0,13,0
 646 1558 646 1558 570 1613.5 c 128,-1,1
410 63 m 128,-1,15
 256 148 256 148 175.5 310 c 128,-1,16
 95 472 95 472 95 700 c 0,17,18
 95 940 95 940 182.5 1110.5 c 128,-1,19
 270 1281 270 1281 436.5 1370 c 128,-1,20
 603 1459 603 1459 838 1459 c 0,21,22
 930 1459 930 1459 1034 1445.5 c 128,-1,23
 1138 1432 1138 1432 1232 1413 c 1,24,-1
 1177 1265 l 1,25,26
 1103 1278 1103 1278 1006 1290 c 128,-1,27
 909 1302 909 1302 820 1302 c 0,28,29
 646 1302 646 1302 522.5 1232.5 c 128,-1,30
 399 1163 399 1163 334.5 1030.5 c 128,-1,31
 270 898 270 898 270 711 c 0,32,33
 270 526 270 526 332 395 c 128,-1,34
 394 264 394 264 513 195.5 c 128,-1,35
 632 127 632 127 800 127 c 0,36,37
 881 127 881 127 957 144.5 c 128,-1,38
 1033 162 1033 162 1092 194 c 1,39,-1
 1092 586 l 1,40,-1
 728 586 l 1,41,-1
 728 738 l 1,42,-1
 1260 738 l 1,43,-1
 1261 100 l 1,44,45
 1159 42 1159 42 1033.5 10 c 128,-1,46
 908 -22 908 -22 781 -22 c 0,47,14
 564 -22 564 -22 410 63 c 128,-1,15
EndSplineSet
Validated: 1
EndChar

StartChar: uni0122
Encoding: 290 290 35
Width: 1405
GlyphClass: 2
Flags: W
AnchorPoint: "Anchor-3" 0 0 basechar 0
AnchorPoint: "Anchor-2" 783 1354 basechar 0
AnchorPoint: "Anchor-1" 648 -617 basechar 0
AnchorPoint: "Anchor-0" 0 0 basechar 0
LayerCount: 2
Back
Fore
SplineSet
410 63 m 128,-1,1
 256 148 256 148 175.5 310 c 128,-1,2
 95 472 95 472 95 700 c 0,3,4
 95 940 95 940 182.5 1110.5 c 128,-1,5
 270 1281 270 1281 436.5 1370 c 128,-1,6
 603 1459 603 1459 838 1459 c 0,7,8
 930 1459 930 1459 1034 1445.5 c 128,-1,9
 1138 1432 1138 1432 1232 1413 c 1,10,-1
 1177 1265 l 1,11,12
 1103 1278 1103 1278 1006 1290 c 128,-1,13
 909 1302 909 1302 820 1302 c 0,14,15
 646 1302 646 1302 522.5 1232.5 c 128,-1,16
 399 1163 399 1163 334.5 1030.5 c 128,-1,17
 270 898 270 898 270 711 c 0,18,19
 270 526 270 526 332 395 c 128,-1,20
 394 264 394 264 513 195.5 c 128,-1,21
 632 127 632 127 800 127 c 0,22,23
 881 127 881 127 957 144.5 c 128,-1,24
 1033 162 1033 162 1092 194 c 1,25,-1
 1092 586 l 1,26,-1
 728 586 l 1,27,-1
 728 738 l 1,28,-1
 1260 738 l 1,29,-1
 1261 100 l 1,30,31
 1159 42 1159 42 1033.5 10 c 128,-1,32
 908 -22 908 -22 781 -22 c 0,33,0
 564 -22 564 -22 410 63 c 128,-1,1
557 -407 m 1,34,35
 596 -322 596 -322 610 -264 c 128,-1,36
 624 -206 624 -206 624 -125 c 1,37,-1
 784 -125 l 1,38,39
 784 -213 784 -213 754 -309.5 c 128,-1,40
 724 -406 724 -406 674 -477 c 1,41,-1
 557 -407 l 1,34,35
EndSplineSet
Validated: 1
EndChar

StartChar: Gdotaccent
Encoding: 288 288 36
Width: 1405
GlyphClass: 2
Flags: W
AnchorPoint: "Anchor-3" 0 0 basechar 0
AnchorPoint: "Anchor-2" 785 1793 basechar 0
AnchorPoint: "Anchor-1" 703 0 basechar 0
AnchorPoint: "Anchor-0" 0 0 basechar 0
LayerCount: 2
Back
Fore
SplineSet
723.5 1578 m 128,-1,1
 696 1594 696 1594 679.5 1621.5 c 128,-1,2
 663 1649 663 1649 663 1682 c 0,3,4
 663 1730 663 1730 698.5 1764.5 c 128,-1,5
 734 1799 734 1799 783 1799 c 0,6,7
 833 1799 833 1799 867.5 1765.5 c 128,-1,8
 902 1732 902 1732 902 1682 c 256,9,10
 902 1632 902 1632 867.5 1597 c 128,-1,11
 833 1562 833 1562 783 1562 c 0,12,0
 751 1562 751 1562 723.5 1578 c 128,-1,1
410 63 m 128,-1,14
 256 148 256 148 175.5 310 c 128,-1,15
 95 472 95 472 95 700 c 0,16,17
 95 940 95 940 182.5 1110.5 c 128,-1,18
 270 1281 270 1281 436.5 1370 c 128,-1,19
 603 1459 603 1459 838 1459 c 0,20,21
 930 1459 930 1459 1034 1445.5 c 128,-1,22
 1138 1432 1138 1432 1232 1413 c 1,23,-1
 1177 1265 l 1,24,25
 1103 1278 1103 1278 1006 1290 c 128,-1,26
 909 1302 909 1302 820 1302 c 0,27,28
 646 1302 646 1302 522.5 1232.5 c 128,-1,29
 399 1163 399 1163 334.5 1030.5 c 128,-1,30
 270 898 270 898 270 711 c 0,31,32
 270 526 270 526 332 395 c 128,-1,33
 394 264 394 264 513 195.5 c 128,-1,34
 632 127 632 127 800 127 c 0,35,36
 881 127 881 127 957 144.5 c 128,-1,37
 1033 162 1033 162 1092 194 c 1,38,-1
 1092 586 l 1,39,-1
 728 586 l 1,40,-1
 728 738 l 1,41,-1
 1260 738 l 1,42,-1
 1261 100 l 1,43,44
 1159 42 1159 42 1033.5 10 c 128,-1,45
 908 -22 908 -22 781 -22 c 0,46,13
 564 -22 564 -22 410 63 c 128,-1,14
EndSplineSet
Validated: 1
EndChar

StartChar: H
Encoding: 72 72 37
Width: 1454
GlyphClass: 2
Flags: W
AnchorPoint: "Anchor-3" 0 0 basechar 0
AnchorPoint: "Anchor-2" 727 1354 basechar 0
AnchorPoint: "Anchor-1" 727 0 basechar 0
AnchorPoint: "Anchor-0" 0 0 basechar 0
LayerCount: 2
Back
Fore
SplineSet
188 1434 m 1,0,-1
 356 1434 l 1,1,-1
 356 785 l 1,2,-1
 1098 785 l 1,3,-1
 1098 1434 l 1,4,-1
 1266 1434 l 1,5,-1
 1266 0 l 1,6,-1
 1098 0 l 1,7,-1
 1098 634 l 1,8,-1
 356 634 l 1,9,-1
 356 0 l 1,10,-1
 188 0 l 1,11,-1
 188 1434 l 1,0,-1
EndSplineSet
Validated: 1
EndChar

StartChar: Hbar
Encoding: 294 294 38
Width: 1454
GlyphClass: 2
Flags: W
AnchorPoint: "Anchor-3" 0 0 basechar 0
AnchorPoint: "Anchor-2" 727 1354 basechar 0
AnchorPoint: "Anchor-1" 727 0 basechar 0
AnchorPoint: "Anchor-0" 0 0 basechar 0
LayerCount: 2
Back
Fore
SplineSet
1426 998 m 1,0,-1
 1266 998 l 1,1,-1
 1266 0 l 1,2,-1
 1098 0 l 1,3,-1
 1098 634 l 1,4,-1
 356 634 l 1,5,-1
 356 0 l 1,6,-1
 188 0 l 1,7,-1
 188 998 l 1,8,-1
 28 998 l 1,9,-1
 28 1150 l 1,10,-1
 188 1150 l 1,11,-1
 188 1434 l 1,12,-1
 356 1434 l 1,13,-1
 356 1150 l 1,14,-1
 1098 1150 l 1,15,-1
 1098 1434 l 1,16,-1
 1266 1434 l 1,17,-1
 1266 1150 l 1,18,-1
 1426 1150 l 1,19,-1
 1426 998 l 1,0,-1
1098 998 m 1,20,-1
 356 998 l 1,21,-1
 356 785 l 1,22,-1
 1098 785 l 1,23,-1
 1098 998 l 1,20,-1
EndSplineSet
Validated: 1
EndChar

StartChar: I
Encoding: 73 73 39
Width: 545
GlyphClass: 2
Flags: W
AnchorPoint: "Anchor-3" 0 0 basechar 0
AnchorPoint: "Anchor-2" 273 1354 basechar 0
AnchorPoint: "Anchor-1" 273 0 basechar 0
AnchorPoint: "Anchor-0" 286 10 basechar 0
LayerCount: 2
Back
Fore
SplineSet
188 1434 m 1,0,-1
 356 1434 l 1,1,-1
 356 0 l 1,2,-1
 188 0 l 1,3,-1
 188 1434 l 1,0,-1
EndSplineSet
Validated: 1
EndChar

StartChar: Iacute
Encoding: 205 205 41
Width: 545
GlyphClass: 2
Flags: W
AnchorPoint: "Anchor-3" 0 0 basechar 0
AnchorPoint: "Anchor-2" 284 1926 basechar 0
AnchorPoint: "Anchor-1" 273 0 basechar 0
AnchorPoint: "Anchor-0" 286 10 basechar 0
LayerCount: 2
Back
Fore
SplineSet
410 1796 m 1,0,-1
 626 1796 l 1,1,-1
 364 1598 l 1,2,-1
 187 1598 l 1,3,-1
 410 1796 l 1,0,-1
188 1434 m 1,4,-1
 356 1434 l 1,5,-1
 356 0 l 1,6,-1
 188 0 l 1,7,-1
 188 1434 l 1,4,-1
EndSplineSet
Validated: 1
EndChar

StartChar: Icircumflex
Encoding: 206 206 42
Width: 545
GlyphClass: 2
Flags: W
AnchorPoint: "Anchor-3" 0 0 basechar 0
AnchorPoint: "Anchor-2" 275 1930 basechar 0
AnchorPoint: "Anchor-1" 273 0 basechar 0
AnchorPoint: "Anchor-0" 286 10 basechar 0
LayerCount: 2
Back
Fore
SplineSet
219 1800 m 1,0,-1
 352 1800 l 1,1,-1
 628 1566 l 1,2,-1
 436 1566 l 1,3,-1
 282 1687 l 1,4,-1
 127 1566 l 1,5,-1
 -56 1566 l 1,6,-1
 219 1800 l 1,0,-1
188 1434 m 1,7,-1
 356 1434 l 1,8,-1
 356 0 l 1,9,-1
 188 0 l 1,10,-1
 188 1434 l 1,7,-1
EndSplineSet
Validated: 1
EndChar

StartChar: Idieresis
Encoding: 207 207 43
Width: 545
GlyphClass: 2
Flags: W
AnchorPoint: "Anchor-3" 0 0 basechar 0
AnchorPoint: "Anchor-2" 275 1795 basechar 0
AnchorPoint: "Anchor-1" 273 0 basechar 0
AnchorPoint: "Anchor-0" 286 10 basechar 0
LayerCount: 2
Back
Fore
SplineSet
21 1563.5 m 128,-1,1
 -7 1580 -7 1580 -23.5 1607.5 c 128,-1,2
 -40 1635 -40 1635 -40 1667 c 0,3,4
 -40 1718 -40 1718 -5.5 1752 c 128,-1,5
 29 1786 29 1786 79 1786 c 256,6,7
 129 1786 129 1786 165 1751.5 c 128,-1,8
 201 1717 201 1717 201 1667 c 0,9,10
 201 1635 201 1635 184.5 1607 c 128,-1,11
 168 1579 168 1579 141 1563 c 128,-1,12
 114 1547 114 1547 82 1547 c 0,13,0
 49 1547 49 1547 21 1563.5 c 128,-1,1
382 1581.5 m 128,-1,15
 347 1616 347 1616 347 1667 c 256,16,17
 347 1718 347 1718 381 1752 c 128,-1,18
 415 1786 415 1786 464 1786 c 0,19,20
 514 1786 514 1786 549.5 1751.5 c 128,-1,21
 585 1717 585 1717 585 1667 c 256,22,23
 585 1617 585 1617 551 1582 c 128,-1,24
 517 1547 517 1547 466 1547 c 0,25,14
 417 1547 417 1547 382 1581.5 c 128,-1,15
188 1434 m 1,26,-1
 356 1434 l 1,27,-1
 356 0 l 1,28,-1
 188 0 l 1,29,-1
 188 1434 l 1,26,-1
EndSplineSet
Validated: 1
EndChar

StartChar: Idotaccent
Encoding: 304 304 44
Width: 545
GlyphClass: 2
Flags: W
AnchorPoint: "Anchor-3" 0 0 basechar 0
AnchorPoint: "Anchor-2" 275 1793 basechar 0
AnchorPoint: "Anchor-1" 273 0 basechar 0
AnchorPoint: "Anchor-0" 286 10 basechar 0
LayerCount: 2
Back
Fore
SplineSet
213.5 1578 m 128,-1,1
 186 1594 186 1594 169.5 1621.5 c 128,-1,2
 153 1649 153 1649 153 1682 c 0,3,4
 153 1730 153 1730 188.5 1764.5 c 128,-1,5
 224 1799 224 1799 273 1799 c 0,6,7
 323 1799 323 1799 357.5 1765.5 c 128,-1,8
 392 1732 392 1732 392 1682 c 256,9,10
 392 1632 392 1632 357.5 1597 c 128,-1,11
 323 1562 323 1562 273 1562 c 0,12,0
 241 1562 241 1562 213.5 1578 c 128,-1,1
188 1434 m 1,13,-1
 356 1434 l 1,14,-1
 356 0 l 1,15,-1
 188 0 l 1,16,-1
 188 1434 l 1,13,-1
EndSplineSet
Validated: 1
EndChar

StartChar: Igrave
Encoding: 204 204 45
Width: 545
GlyphClass: 2
Flags: W
AnchorPoint: "Anchor-3" 0 0 basechar 0
AnchorPoint: "Anchor-2" 140 1926 basechar 0
AnchorPoint: "Anchor-1" 273 0 basechar 0
AnchorPoint: "Anchor-0" 286 10 basechar 0
LayerCount: 2
Back
Fore
SplineSet
-47 1794 m 1,0,-1
 151 1794 l 1,1,-1
 352 1566 l 1,2,-1
 195 1566 l 1,3,-1
 -47 1794 l 1,0,-1
188 1434 m 1,4,-1
 356 1434 l 1,5,-1
 356 0 l 1,6,-1
 188 0 l 1,7,-1
 188 1434 l 1,4,-1
EndSplineSet
Validated: 1
EndChar

StartChar: Imacron
Encoding: 298 298 46
Width: 545
GlyphClass: 2
Flags: W
AnchorPoint: "Anchor-3" 0 0 basechar 0
AnchorPoint: "Anchor-2" 275 1896 basechar 0
AnchorPoint: "Anchor-1" 273 0 basechar 0
AnchorPoint: "Anchor-0" 286 10 basechar 0
LayerCount: 2
Back
Fore
SplineSet
-42 1709 m 1,0,-1
 588 1709 l 1,1,-1
 588 1569 l 1,2,-1
 -42 1569 l 1,3,-1
 -42 1709 l 1,0,-1
188 1434 m 1,4,-1
 356 1434 l 1,5,-1
 356 0 l 1,6,-1
 188 0 l 1,7,-1
 188 1434 l 1,4,-1
EndSplineSet
Validated: 1
EndChar

StartChar: Iogonek
Encoding: 302 302 47
Width: 545
GlyphClass: 2
Flags: W
AnchorPoint: "Anchor-3" 0 0 basechar 0
AnchorPoint: "Anchor-2" 273 1354 basechar 0
AnchorPoint: "Anchor-1" 273 0 basechar 0
AnchorPoint: "Anchor-0" 286 10 basechar 0
LayerCount: 2
Back
Fore
SplineSet
430 -387 m 1,0,1
 411 -400 411 -400 318 -400 c 0,2,3
 110 -400 110 -400 110 -240 c 0,4,5
 110 -191 110 -191 139.5 -140.5 c 128,-1,6
 169 -90 169 -90 212 -52 c 128,-1,7
 255 -14 255 -14 292 0 c 1,8,-1
 188 0 l 1,9,-1
 188 1434 l 1,10,-1
 356 1434 l 1,11,-1
 356 0 l 1,12,-1
 416 0 l 1,13,14
 363 -15 363 -15 324.5 -50.5 c 128,-1,15
 286 -86 286 -86 266 -126.5 c 128,-1,16
 246 -167 246 -167 246 -193 c 0,17,18
 246 -277 246 -277 344 -277 c 0,19,20
 393 -277 393 -277 414 -270 c 1,21,-1
 430 -387 l 1,0,1
EndSplineSet
Validated: 1
EndChar

StartChar: J
Encoding: 74 74 48
Width: 731
GlyphClass: 2
Flags: W
AnchorPoint: "Anchor-3" 0 0 basechar 0
AnchorPoint: "Anchor-2" 366 1434 basechar 0
AnchorPoint: "Anchor-1" 366 0 basechar 0
AnchorPoint: "Anchor-0" 0 0 basechar 0
LayerCount: 2
Back
Fore
SplineSet
69 -332 m 1,0,1
 179 -319 179 -319 246 -294.5 c 128,-1,2
 313 -270 313 -270 352 -208 c 128,-1,3
 391 -146 391 -146 391 -29 c 2,4,-1
 391 1434 l 1,5,-1
 555 1434 l 1,6,-1
 555 -20 l 2,7,8
 555 -258 555 -258 430.5 -364.5 c 128,-1,9
 306 -471 306 -471 90 -482 c 1,10,-1
 69 -332 l 1,0,1
EndSplineSet
Validated: 1
EndChar

StartChar: K
Encoding: 75 75 49
Width: 1188
GlyphClass: 2
Flags: W
AnchorPoint: "Anchor-3" 0 0 basechar 0
AnchorPoint: "Anchor-2" 594 1434 basechar 0
AnchorPoint: "Anchor-1" 594 0 basechar 0
AnchorPoint: "Anchor-0" 0 0 basechar 0
LayerCount: 2
Back
Fore
SplineSet
589 749 m 1,0,-1
 356 465 l 1,1,-1
 356 0 l 1,2,-1
 188 0 l 1,3,-1
 188 1434 l 1,4,-1
 356 1434 l 1,5,-1
 356 721 l 1,6,7
 424 805 424 805 459 847 c 2,8,-1
 984 1484 l 1,9,-1
 1169 1459 l 1,10,-1
 713 902 l 1,11,-1
 1179 0 l 1,12,-1
 978 0 l 1,13,-1
 589 749 l 1,0,-1
EndSplineSet
Validated: 1
EndChar

StartChar: uni0136
Encoding: 310 310 50
Width: 1188
GlyphClass: 2
Flags: W
AnchorPoint: "Anchor-3" 0 0 basechar 0
AnchorPoint: "Anchor-2" 594 1434 basechar 0
AnchorPoint: "Anchor-1" 539 -617 basechar 0
AnchorPoint: "Anchor-0" 0 0 basechar 0
LayerCount: 2
Back
Fore
SplineSet
1179 0 m 1,0,-1
 978 0 l 1,1,-1
 589 749 l 1,2,-1
 356 465 l 1,3,-1
 356 0 l 1,4,-1
 188 0 l 1,5,-1
 188 1434 l 1,6,-1
 356 1434 l 1,7,-1
 356 721 l 1,8,9
 424 805 424 805 459 847 c 2,10,-1
 984 1484 l 1,11,-1
 1169 1459 l 1,12,-1
 713 902 l 1,13,-1
 1179 0 l 1,0,-1
501 -264 m 128,-1,15
 515 -206 515 -206 515 -125 c 1,16,-1
 675 -125 l 1,17,18
 675 -213 675 -213 645 -309.5 c 128,-1,19
 615 -406 615 -406 565 -477 c 1,20,-1
 448 -407 l 1,21,14
 487 -322 487 -322 501 -264 c 128,-1,15
EndSplineSet
Validated: 1
EndChar

StartChar: L
Encoding: 76 76 51
Width: 964
GlyphClass: 2
Flags: W
AnchorPoint: "Anchor-3" 944 1434 basechar 0
AnchorPoint: "Anchor-2" 272 1344 basechar 0
AnchorPoint: "Anchor-1" 482 0 basechar 0
AnchorPoint: "Anchor-0" 0 0 basechar 0
LayerCount: 2
Back
Fore
SplineSet
188 1434 m 1,0,-1
 356 1434 l 1,1,-1
 356 152 l 1,2,-1
 932 152 l 1,3,-1
 932 0 l 1,4,-1
 188 0 l 1,5,-1
 188 1434 l 1,0,-1
EndSplineSet
Validated: 1
EndChar

StartChar: Lacute
Encoding: 313 313 52
Width: 964
GlyphClass: 2
Flags: W
AnchorPoint: "Anchor-3" 944 1434 basechar 0
AnchorPoint: "Anchor-2" 283 1916 basechar 0
AnchorPoint: "Anchor-1" 482 0 basechar 0
AnchorPoint: "Anchor-0" 0 0 basechar 0
LayerCount: 2
Back
Fore
SplineSet
409 1786 m 1,0,-1
 625 1786 l 1,1,-1
 363 1588 l 1,2,-1
 186 1588 l 1,3,-1
 409 1786 l 1,0,-1
188 1434 m 1,4,-1
 356 1434 l 1,5,-1
 356 152 l 1,6,-1
 932 152 l 1,7,-1
 932 0 l 1,8,-1
 188 0 l 1,9,-1
 188 1434 l 1,4,-1
EndSplineSet
Validated: 1
EndChar

StartChar: uni013B
Encoding: 315 315 54
Width: 964
GlyphClass: 2
Flags: W
AnchorPoint: "Anchor-3" 944 1434 basechar 0
AnchorPoint: "Anchor-2" 272 1344 basechar 0
AnchorPoint: "Anchor-1" 427 -617 basechar 0
AnchorPoint: "Anchor-0" 0 0 basechar 0
LayerCount: 2
Back
Fore
SplineSet
188 1434 m 1,0,-1
 356 1434 l 1,1,-1
 356 152 l 1,2,-1
 932 152 l 1,3,-1
 932 0 l 1,4,-1
 188 0 l 1,5,-1
 188 1434 l 1,0,-1
336 -407 m 1,6,7
 375 -322 375 -322 389 -264 c 128,-1,8
 403 -206 403 -206 403 -125 c 1,9,-1
 563 -125 l 1,10,11
 563 -213 563 -213 533 -309.5 c 128,-1,12
 503 -406 503 -406 453 -477 c 1,13,-1
 336 -407 l 1,6,7
EndSplineSet
Validated: 1
EndChar

StartChar: Lslash
Encoding: 321 321 56
Width: 964
GlyphClass: 2
Flags: W
AnchorPoint: "Anchor-3" 944 1434 basechar 0
AnchorPoint: "Anchor-2" 272 1344 basechar 0
AnchorPoint: "Anchor-1" 482 0 basechar 0
AnchorPoint: "Anchor-0" 0 0 basechar 0
LayerCount: 2
Back
Fore
SplineSet
932 152 m 1,0,-1
 932 0 l 1,1,-1
 188 0 l 1,2,-1
 188 546 l 1,3,-1
 33 450 l 1,4,-1
 33 602 l 1,5,-1
 188 698 l 1,6,-1
 188 1434 l 1,7,-1
 356 1434 l 1,8,-1
 356 802 l 1,9,-1
 684 1006 l 1,10,-1
 684 852 l 1,11,-1
 356 649 l 1,12,-1
 356 152 l 1,13,-1
 932 152 l 1,0,-1
EndSplineSet
Validated: 1
EndChar

StartChar: M
Encoding: 77 77 57
Width: 1839
GlyphClass: 2
Flags: W
AnchorPoint: "Anchor-3" 0 0 basechar 0
AnchorPoint: "Anchor-2" 920 1434 basechar 0
AnchorPoint: "Anchor-1" 920 0 basechar 0
AnchorPoint: "Anchor-0" 0 0 basechar 0
LayerCount: 2
Back
Fore
SplineSet
188 1434 m 1,0,-1
 410 1434 l 1,1,-1
 850 441 l 2,2,3
 866 403 866 403 887 346 c 128,-1,4
 908 289 908 289 916 259 c 1,5,-1
 922 259 l 1,6,-1
 938 302 l 2,7,8
 974 405 974 405 991 443 c 2,9,-1
 1440 1434 l 1,10,-1
 1650 1434 l 1,11,-1
 1650 0 l 1,12,-1
 1486 0 l 1,13,-1
 1486 923 l 2,14,15
 1486 1118 1486 1118 1497 1233 c 1,16,-1
 1493 1233 l 1,17,18
 1484 1197 1484 1197 1474.5 1170 c 128,-1,19
 1465 1143 1465 1143 1449 1104 c 2,20,-1
 959 0 l 1,21,-1
 877 0 l 1,22,-1
 388 1096 l 2,23,24
 361 1149 361 1149 346 1214 c 1,25,-1
 342 1214 l 1,26,27
 347 1151 347 1151 347 902 c 2,28,-1
 347 0 l 1,29,-1
 188 0 l 1,30,-1
 188 1434 l 1,0,-1
EndSplineSet
Validated: 1
EndChar

StartChar: N
Encoding: 78 78 58
Width: 1532
GlyphClass: 2
Flags: W
AnchorPoint: "Anchor-3" 0 0 basechar 0
AnchorPoint: "Anchor-2" 766 1354 basechar 0
AnchorPoint: "Anchor-1" 766 0 basechar 0
AnchorPoint: "Anchor-0" 0 0 basechar 0
LayerCount: 2
Back
Fore
SplineSet
188 1435 m 1,0,-1
 406 1435 l 1,1,-1
 1124 310 l 2,2,3
 1136 290 1136 290 1155.5 252.5 c 128,-1,4
 1175 215 1175 215 1185 194 c 1,5,-1
 1189 194 l 1,6,7
 1184 231 1184 231 1181 298 c 128,-1,8
 1178 365 1178 365 1178 424 c 2,9,-1
 1178 1434 l 1,10,-1
 1344 1434 l 1,11,-1
 1345 0 l 1,12,-1
 1139 0 l 1,13,-1
 404 1145 l 2,14,15
 392 1163 392 1163 377 1196 c 128,-1,16
 362 1229 362 1229 352 1255 c 1,17,-1
 346 1255 l 1,18,19
 350 1234 350 1234 352 1166.5 c 128,-1,20
 354 1099 354 1099 354 1037 c 2,21,-1
 354 0 l 1,22,-1
 188 0 l 1,23,-1
 188 1435 l 1,0,-1
EndSplineSet
Validated: 1
EndChar

StartChar: Nacute
Encoding: 323 323 59
Width: 1532
GlyphClass: 2
Flags: W
AnchorPoint: "Anchor-3" 0 0 basechar 0
AnchorPoint: "Anchor-2" 777 1926 basechar 0
AnchorPoint: "Anchor-1" 766 0 basechar 0
AnchorPoint: "Anchor-0" 0 0 basechar 0
LayerCount: 2
Back
Fore
SplineSet
903 1796 m 1,0,-1
 1119 1796 l 1,1,-1
 857 1598 l 1,2,-1
 680 1598 l 1,3,-1
 903 1796 l 1,0,-1
188 1435 m 1,4,-1
 406 1435 l 1,5,-1
 1124 310 l 2,6,7
 1136 290 1136 290 1155.5 252.5 c 128,-1,8
 1175 215 1175 215 1185 194 c 1,9,-1
 1189 194 l 1,10,11
 1184 231 1184 231 1181 298 c 128,-1,12
 1178 365 1178 365 1178 424 c 2,13,-1
 1178 1434 l 1,14,-1
 1344 1434 l 1,15,-1
 1345 0 l 1,16,-1
 1139 0 l 1,17,-1
 404 1145 l 2,18,19
 392 1163 392 1163 377 1196 c 128,-1,20
 362 1229 362 1229 352 1255 c 1,21,-1
 346 1255 l 1,22,23
 350 1234 350 1234 352 1166.5 c 128,-1,24
 354 1099 354 1099 354 1037 c 2,25,-1
 354 0 l 1,26,-1
 188 0 l 1,27,-1
 188 1435 l 1,4,-1
EndSplineSet
Validated: 1
EndChar

StartChar: Ncaron
Encoding: 327 327 60
Width: 1532
GlyphClass: 2
Flags: W
AnchorPoint: "Anchor-3" 0 0 basechar 0
AnchorPoint: "Anchor-2" 768 1928 basechar 0
AnchorPoint: "Anchor-1" 766 0 basechar 0
AnchorPoint: "Anchor-0" 0 0 basechar 0
LayerCount: 2
Back
Fore
SplineSet
425 1802 m 1,0,-1
 600 1802 l 1,1,-1
 764 1668 l 1,2,-1
 928 1802 l 1,3,-1
 1107 1802 l 1,4,-1
 833 1567 l 1,5,-1
 701 1567 l 1,6,-1
 425 1802 l 1,0,-1
188 1435 m 1,7,-1
 406 1435 l 1,8,-1
 1124 310 l 2,9,10
 1136 290 1136 290 1155.5 252.5 c 128,-1,11
 1175 215 1175 215 1185 194 c 1,12,-1
 1189 194 l 1,13,14
 1184 231 1184 231 1181 298 c 128,-1,15
 1178 365 1178 365 1178 424 c 2,16,-1
 1178 1434 l 1,17,-1
 1344 1434 l 1,18,-1
 1345 0 l 1,19,-1
 1139 0 l 1,20,-1
 404 1145 l 2,21,22
 392 1163 392 1163 377 1196 c 128,-1,23
 362 1229 362 1229 352 1255 c 1,24,-1
 346 1255 l 1,25,26
 350 1234 350 1234 352 1166.5 c 128,-1,27
 354 1099 354 1099 354 1037 c 2,28,-1
 354 0 l 1,29,-1
 188 0 l 1,30,-1
 188 1435 l 1,7,-1
EndSplineSet
Validated: 1
EndChar

StartChar: uni0145
Encoding: 325 325 61
Width: 1532
GlyphClass: 2
Flags: W
AnchorPoint: "Anchor-3" 0 0 basechar 0
AnchorPoint: "Anchor-2" 766 1354 basechar 0
AnchorPoint: "Anchor-1" 711 -617 basechar 0
AnchorPoint: "Anchor-0" 0 0 basechar 0
LayerCount: 2
Back
Fore
SplineSet
188 1435 m 1,0,-1
 406 1435 l 1,1,-1
 1124 310 l 2,2,3
 1136 290 1136 290 1155.5 252.5 c 128,-1,4
 1175 215 1175 215 1185 194 c 1,5,-1
 1189 194 l 1,6,7
 1184 231 1184 231 1181 298 c 128,-1,8
 1178 365 1178 365 1178 424 c 2,9,-1
 1178 1434 l 1,10,-1
 1344 1434 l 1,11,-1
 1345 0 l 1,12,-1
 1139 0 l 1,13,-1
 404 1145 l 2,14,15
 392 1163 392 1163 377 1196 c 128,-1,16
 362 1229 362 1229 352 1255 c 1,17,-1
 346 1255 l 1,18,19
 350 1234 350 1234 352 1166.5 c 128,-1,20
 354 1099 354 1099 354 1037 c 2,21,-1
 354 0 l 1,22,-1
 188 0 l 1,23,-1
 188 1435 l 1,0,-1
620 -407 m 1,24,25
 659 -322 659 -322 673 -264 c 128,-1,26
 687 -206 687 -206 687 -125 c 1,27,-1
 847 -125 l 1,28,29
 847 -213 847 -213 817 -309.5 c 128,-1,30
 787 -406 787 -406 737 -477 c 1,31,-1
 620 -407 l 1,24,25
EndSplineSet
Validated: 1
EndChar

StartChar: Eng
Encoding: 330 330 62
Width: 1532
GlyphClass: 2
Flags: W
LayerCount: 2
Back
Fore
SplineSet
1345 1 m 1,0,-1
 1345 0 l 2,1,2
 1345 -242 1345 -242 1218.5 -356.5 c 128,-1,3
 1092 -471 1092 -471 877 -482 c 1,4,-1
 856 -322 l 1,5,6
 975 -306 975 -306 1042.5 -268.5 c 128,-1,7
 1110 -231 1110 -231 1141 -165.5 c 128,-1,8
 1172 -100 1172 -100 1177 6 c 1,9,-1
 404 1145 l 2,10,11
 381 1178 381 1178 352 1255 c 1,12,-1
 346 1255 l 1,13,14
 350 1234 350 1234 352 1166.5 c 128,-1,15
 354 1099 354 1099 354 1037 c 2,16,-1
 354 0 l 1,17,-1
 188 0 l 1,18,-1
 188 1435 l 1,19,-1
 406 1435 l 1,20,-1
 1124 370 l 2,21,22
 1137 351 1137 351 1156 313 c 128,-1,23
 1175 275 1175 275 1185 254 c 1,24,-1
 1189 254 l 1,25,26
 1184 291 1184 291 1181 358 c 128,-1,27
 1178 425 1178 425 1178 484 c 2,28,-1
 1178 1434 l 1,29,-1
 1344 1434 l 1,30,-1
 1345 114 l 1,31,-1
 1345 1 l 1,0,-1
EndSplineSet
Validated: 1
EndChar

StartChar: Ntilde
Encoding: 209 209 63
Width: 1532
GlyphClass: 2
Flags: W
AnchorPoint: "Anchor-3" 0 0 basechar 0
AnchorPoint: "Anchor-2" 768 1838 basechar 0
AnchorPoint: "Anchor-1" 766 0 basechar 0
AnchorPoint: "Anchor-0" 0 0 basechar 0
LayerCount: 2
Back
Fore
SplineSet
838 1588.5 m 128,-1,1
 804 1602 804 1602 753 1629 c 0,2,3
 711 1652 711 1652 682.5 1663.5 c 128,-1,4
 654 1675 654 1675 627 1675 c 0,5,6
 559 1675 559 1675 559 1582 c 1,7,-1
 445 1582 l 1,8,9
 445 1690 445 1690 493.5 1754 c 128,-1,10
 542 1818 542 1818 627 1818 c 0,11,12
 663 1818 663 1818 693 1805 c 128,-1,13
 723 1792 723 1792 767 1766 c 0,14,15
 807 1741 807 1741 835 1729 c 128,-1,16
 863 1717 863 1717 894 1717 c 0,17,18
 968 1717 968 1717 968 1813 c 1,19,-1
 1086 1813 l 1,20,21
 1086 1743 1086 1743 1064 1689 c 128,-1,22
 1042 1635 1042 1635 1002 1605 c 128,-1,23
 962 1575 962 1575 908 1575 c 0,24,0
 872 1575 872 1575 838 1588.5 c 128,-1,1
188 1435 m 1,25,-1
 406 1435 l 1,26,-1
 1124 310 l 2,27,28
 1136 290 1136 290 1155.5 252.5 c 128,-1,29
 1175 215 1175 215 1185 194 c 1,30,-1
 1189 194 l 1,31,32
 1184 231 1184 231 1181 298 c 128,-1,33
 1178 365 1178 365 1178 424 c 2,34,-1
 1178 1434 l 1,35,-1
 1344 1434 l 1,36,-1
 1345 0 l 1,37,-1
 1139 0 l 1,38,-1
 404 1145 l 2,39,40
 392 1163 392 1163 377 1196 c 128,-1,41
 362 1229 362 1229 352 1255 c 1,42,-1
 346 1255 l 1,43,44
 350 1234 350 1234 352 1166.5 c 128,-1,45
 354 1099 354 1099 354 1037 c 2,46,-1
 354 0 l 1,47,-1
 188 0 l 1,48,-1
 188 1435 l 1,25,-1
EndSplineSet
Validated: 1
EndChar

StartChar: O
Encoding: 79 79 64
Width: 1544
GlyphClass: 2
Flags: W
AnchorPoint: "Anchor-3" 1524 1434 basechar 0
AnchorPoint: "Anchor-2" 772 1354 basechar 0
AnchorPoint: "Anchor-1" 772 0 basechar 0
AnchorPoint: "Anchor-0" 0 0 basechar 0
LayerCount: 2
Back
Fore
SplineSet
410 70.5 m 128,-1,1
 256 166 256 166 174 333.5 c 128,-1,2
 92 501 92 501 92 712 c 0,3,4
 92 925 92 925 174 1094 c 128,-1,5
 256 1263 256 1263 410 1360 c 128,-1,6
 564 1457 564 1457 770 1457 c 0,7,8
 979 1457 979 1457 1133 1360.5 c 128,-1,9
 1287 1264 1287 1264 1368 1094.5 c 128,-1,10
 1449 925 1449 925 1447 712 c 0,11,12
 1447 500 1447 500 1366 332.5 c 128,-1,13
 1285 165 1285 165 1132 70 c 128,-1,14
 979 -25 979 -25 770 -25 c 0,15,0
 564 -25 564 -25 410 70.5 c 128,-1,1
1037.5 206 m 128,-1,17
 1148 277 1148 277 1204.5 407 c 128,-1,18
 1261 537 1261 537 1260 712 c 0,19,20
 1260 889 1260 889 1203.5 1020.5 c 128,-1,21
 1147 1152 1147 1152 1037 1224 c 128,-1,22
 927 1296 927 1296 770 1296 c 0,23,24
 612 1296 612 1296 501 1224 c 128,-1,25
 390 1152 390 1152 333 1020.5 c 128,-1,26
 276 889 276 889 276 712 c 0,27,28
 276 537 276 537 333 407 c 128,-1,29
 390 277 390 277 501 206 c 128,-1,30
 612 135 612 135 770 135 c 0,31,16
 927 135 927 135 1037.5 206 c 128,-1,17
EndSplineSet
Validated: 33
EndChar

StartChar: Oacute
Encoding: 211 211 65
Width: 1544
GlyphClass: 2
Flags: W
AnchorPoint: "Anchor-3" 1524 1434 basechar 0
AnchorPoint: "Anchor-2" 783 1926 basechar 0
AnchorPoint: "Anchor-1" 772 0 basechar 0
AnchorPoint: "Anchor-0" 0 0 basechar 0
LayerCount: 2
Back
Fore
SplineSet
909 1796 m 1,0,-1
 1125 1796 l 1,1,-1
 863 1598 l 1,2,-1
 686 1598 l 1,3,-1
 909 1796 l 1,0,-1
410 70.5 m 128,-1,5
 256 166 256 166 174 333.5 c 128,-1,6
 92 501 92 501 92 712 c 0,7,8
 92 925 92 925 174 1094 c 128,-1,9
 256 1263 256 1263 410 1360 c 128,-1,10
 564 1457 564 1457 770 1457 c 0,11,12
 979 1457 979 1457 1133 1360.5 c 128,-1,13
 1287 1264 1287 1264 1368 1094.5 c 128,-1,14
 1449 925 1449 925 1447 712 c 0,15,16
 1447 500 1447 500 1366 332.5 c 128,-1,17
 1285 165 1285 165 1132 70 c 128,-1,18
 979 -25 979 -25 770 -25 c 0,19,4
 564 -25 564 -25 410 70.5 c 128,-1,5
1037.5 206 m 128,-1,21
 1148 277 1148 277 1204.5 407 c 128,-1,22
 1261 537 1261 537 1260 712 c 0,23,24
 1260 889 1260 889 1203.5 1020.5 c 128,-1,25
 1147 1152 1147 1152 1037 1224 c 128,-1,26
 927 1296 927 1296 770 1296 c 0,27,28
 612 1296 612 1296 501 1224 c 128,-1,29
 390 1152 390 1152 333 1020.5 c 128,-1,30
 276 889 276 889 276 712 c 0,31,32
 276 537 276 537 333 407 c 128,-1,33
 390 277 390 277 501 206 c 128,-1,34
 612 135 612 135 770 135 c 0,35,20
 927 135 927 135 1037.5 206 c 128,-1,21
EndSplineSet
Validated: 33
EndChar

StartChar: Ocircumflex
Encoding: 212 212 66
Width: 1544
GlyphClass: 2
Flags: W
AnchorPoint: "Anchor-3" 1524 1434 basechar 0
AnchorPoint: "Anchor-2" 774 1930 basechar 0
AnchorPoint: "Anchor-1" 772 0 basechar 0
AnchorPoint: "Anchor-0" 0 0 basechar 0
LayerCount: 2
Back
Fore
SplineSet
718 1800 m 1,0,-1
 851 1800 l 1,1,-1
 1127 1566 l 1,2,-1
 935 1566 l 1,3,-1
 781 1687 l 1,4,-1
 626 1566 l 1,5,-1
 443 1566 l 1,6,-1
 718 1800 l 1,0,-1
410 70.5 m 128,-1,8
 256 166 256 166 174 333.5 c 128,-1,9
 92 501 92 501 92 712 c 0,10,11
 92 925 92 925 174 1094 c 128,-1,12
 256 1263 256 1263 410 1360 c 128,-1,13
 564 1457 564 1457 770 1457 c 0,14,15
 979 1457 979 1457 1133 1360.5 c 128,-1,16
 1287 1264 1287 1264 1368 1094.5 c 128,-1,17
 1449 925 1449 925 1447 712 c 0,18,19
 1447 500 1447 500 1366 332.5 c 128,-1,20
 1285 165 1285 165 1132 70 c 128,-1,21
 979 -25 979 -25 770 -25 c 0,22,7
 564 -25 564 -25 410 70.5 c 128,-1,8
1037.5 206 m 128,-1,24
 1148 277 1148 277 1204.5 407 c 128,-1,25
 1261 537 1261 537 1260 712 c 0,26,27
 1260 889 1260 889 1203.5 1020.5 c 128,-1,28
 1147 1152 1147 1152 1037 1224 c 128,-1,29
 927 1296 927 1296 770 1296 c 0,30,31
 612 1296 612 1296 501 1224 c 128,-1,32
 390 1152 390 1152 333 1020.5 c 128,-1,33
 276 889 276 889 276 712 c 0,34,35
 276 537 276 537 333 407 c 128,-1,36
 390 277 390 277 501 206 c 128,-1,37
 612 135 612 135 770 135 c 0,38,23
 927 135 927 135 1037.5 206 c 128,-1,24
EndSplineSet
Validated: 33
EndChar

StartChar: Odieresis
Encoding: 214 214 67
Width: 1544
GlyphClass: 2
Flags: W
AnchorPoint: "Anchor-3" 1524 1434 basechar 0
AnchorPoint: "Anchor-2" 774 1795 basechar 0
AnchorPoint: "Anchor-1" 772 0 basechar 0
AnchorPoint: "Anchor-0" 0 0 basechar 0
LayerCount: 2
Back
Fore
SplineSet
520 1563.5 m 128,-1,1
 492 1580 492 1580 475.5 1607.5 c 128,-1,2
 459 1635 459 1635 459 1667 c 0,3,4
 459 1718 459 1718 493.5 1752 c 128,-1,5
 528 1786 528 1786 578 1786 c 256,6,7
 628 1786 628 1786 664 1751.5 c 128,-1,8
 700 1717 700 1717 700 1667 c 0,9,10
 700 1635 700 1635 683.5 1607 c 128,-1,11
 667 1579 667 1579 640 1563 c 128,-1,12
 613 1547 613 1547 581 1547 c 0,13,0
 548 1547 548 1547 520 1563.5 c 128,-1,1
881 1581.5 m 128,-1,15
 846 1616 846 1616 846 1667 c 256,16,17
 846 1718 846 1718 880 1752 c 128,-1,18
 914 1786 914 1786 963 1786 c 0,19,20
 1013 1786 1013 1786 1048.5 1751.5 c 128,-1,21
 1084 1717 1084 1717 1084 1667 c 256,22,23
 1084 1617 1084 1617 1050 1582 c 128,-1,24
 1016 1547 1016 1547 965 1547 c 0,25,14
 916 1547 916 1547 881 1581.5 c 128,-1,15
410 70.5 m 128,-1,27
 256 166 256 166 174 333.5 c 128,-1,28
 92 501 92 501 92 712 c 0,29,30
 92 925 92 925 174 1094 c 128,-1,31
 256 1263 256 1263 410 1360 c 128,-1,32
 564 1457 564 1457 770 1457 c 0,33,34
 979 1457 979 1457 1133 1360.5 c 128,-1,35
 1287 1264 1287 1264 1368 1094.5 c 128,-1,36
 1449 925 1449 925 1447 712 c 0,37,38
 1447 500 1447 500 1366 332.5 c 128,-1,39
 1285 165 1285 165 1132 70 c 128,-1,40
 979 -25 979 -25 770 -25 c 0,41,26
 564 -25 564 -25 410 70.5 c 128,-1,27
1037.5 206 m 128,-1,43
 1148 277 1148 277 1204.5 407 c 128,-1,44
 1261 537 1261 537 1260 712 c 0,45,46
 1260 889 1260 889 1203.5 1020.5 c 128,-1,47
 1147 1152 1147 1152 1037 1224 c 128,-1,48
 927 1296 927 1296 770 1296 c 0,49,50
 612 1296 612 1296 501 1224 c 128,-1,51
 390 1152 390 1152 333 1020.5 c 128,-1,52
 276 889 276 889 276 712 c 0,53,54
 276 537 276 537 333 407 c 128,-1,55
 390 277 390 277 501 206 c 128,-1,56
 612 135 612 135 770 135 c 0,57,42
 927 135 927 135 1037.5 206 c 128,-1,43
EndSplineSet
Validated: 33
EndChar

StartChar: Ograve
Encoding: 210 210 68
Width: 1544
GlyphClass: 2
Flags: W
AnchorPoint: "Anchor-3" 1524 1434 basechar 0
AnchorPoint: "Anchor-2" 639 1926 basechar 0
AnchorPoint: "Anchor-1" 772 0 basechar 0
AnchorPoint: "Anchor-0" 0 0 basechar 0
LayerCount: 2
Back
Fore
SplineSet
452 1794 m 1,0,-1
 650 1794 l 1,1,-1
 851 1566 l 1,2,-1
 694 1566 l 1,3,-1
 452 1794 l 1,0,-1
410 70.5 m 128,-1,5
 256 166 256 166 174 333.5 c 128,-1,6
 92 501 92 501 92 712 c 0,7,8
 92 925 92 925 174 1094 c 128,-1,9
 256 1263 256 1263 410 1360 c 128,-1,10
 564 1457 564 1457 770 1457 c 0,11,12
 979 1457 979 1457 1133 1360.5 c 128,-1,13
 1287 1264 1287 1264 1368 1094.5 c 128,-1,14
 1449 925 1449 925 1447 712 c 0,15,16
 1447 500 1447 500 1366 332.5 c 128,-1,17
 1285 165 1285 165 1132 70 c 128,-1,18
 979 -25 979 -25 770 -25 c 0,19,4
 564 -25 564 -25 410 70.5 c 128,-1,5
1037.5 206 m 128,-1,21
 1148 277 1148 277 1204.5 407 c 128,-1,22
 1261 537 1261 537 1260 712 c 0,23,24
 1260 889 1260 889 1203.5 1020.5 c 128,-1,25
 1147 1152 1147 1152 1037 1224 c 128,-1,26
 927 1296 927 1296 770 1296 c 0,27,28
 612 1296 612 1296 501 1224 c 128,-1,29
 390 1152 390 1152 333 1020.5 c 128,-1,30
 276 889 276 889 276 712 c 0,31,32
 276 537 276 537 333 407 c 128,-1,33
 390 277 390 277 501 206 c 128,-1,34
 612 135 612 135 770 135 c 0,35,20
 927 135 927 135 1037.5 206 c 128,-1,21
EndSplineSet
Validated: 33
EndChar

StartChar: Ohungarumlaut
Encoding: 336 336 69
Width: 1544
GlyphClass: 2
Flags: W
AnchorPoint: "Anchor-3" 1524 1434 basechar 0
AnchorPoint: "Anchor-2" 772 1354 basechar 0
AnchorPoint: "Anchor-1" 772 0 basechar 0
AnchorPoint: "Anchor-0" 0 0 basechar 0
LayerCount: 2
Back
Fore
SplineSet
726 1776 m 1,0,-1
 906 1776 l 1,1,-1
 686 1568 l 1,2,-1
 540 1568 l 1,3,-1
 726 1776 l 1,0,-1
1020 1776 m 1,4,-1
 1203 1776 l 1,5,-1
 978 1568 l 1,6,-1
 831 1568 l 1,7,-1
 1020 1776 l 1,4,-1
410 70.5 m 128,-1,9
 256 166 256 166 174 333.5 c 128,-1,10
 92 501 92 501 92 712 c 0,11,12
 92 925 92 925 174 1094 c 128,-1,13
 256 1263 256 1263 410 1360 c 128,-1,14
 564 1457 564 1457 770 1457 c 0,15,16
 979 1457 979 1457 1133 1360.5 c 128,-1,17
 1287 1264 1287 1264 1368 1094.5 c 128,-1,18
 1449 925 1449 925 1447 712 c 0,19,20
 1447 500 1447 500 1366 332.5 c 128,-1,21
 1285 165 1285 165 1132 70 c 128,-1,22
 979 -25 979 -25 770 -25 c 0,23,8
 564 -25 564 -25 410 70.5 c 128,-1,9
1037.5 206 m 128,-1,25
 1148 277 1148 277 1204.5 407 c 128,-1,26
 1261 537 1261 537 1260 712 c 0,27,28
 1260 889 1260 889 1203.5 1020.5 c 128,-1,29
 1147 1152 1147 1152 1037 1224 c 128,-1,30
 927 1296 927 1296 770 1296 c 0,31,32
 612 1296 612 1296 501 1224 c 128,-1,33
 390 1152 390 1152 333 1020.5 c 128,-1,34
 276 889 276 889 276 712 c 0,35,36
 276 537 276 537 333 407 c 128,-1,37
 390 277 390 277 501 206 c 128,-1,38
 612 135 612 135 770 135 c 0,39,24
 927 135 927 135 1037.5 206 c 128,-1,25
EndSplineSet
Validated: 33
EndChar

StartChar: Omacron
Encoding: 332 332 70
Width: 1544
GlyphClass: 2
Flags: W
AnchorPoint: "Anchor-3" 1524 1434 basechar 0
AnchorPoint: "Anchor-2" 774 1896 basechar 0
AnchorPoint: "Anchor-1" 772 0 basechar 0
AnchorPoint: "Anchor-0" 0 0 basechar 0
LayerCount: 2
Back
Fore
SplineSet
457 1709 m 1,0,-1
 1087 1709 l 1,1,-1
 1087 1569 l 1,2,-1
 457 1569 l 1,3,-1
 457 1709 l 1,0,-1
410 70.5 m 128,-1,5
 256 166 256 166 174 333.5 c 128,-1,6
 92 501 92 501 92 712 c 0,7,8
 92 925 92 925 174 1094 c 128,-1,9
 256 1263 256 1263 410 1360 c 128,-1,10
 564 1457 564 1457 770 1457 c 0,11,12
 979 1457 979 1457 1133 1360.5 c 128,-1,13
 1287 1264 1287 1264 1368 1094.5 c 128,-1,14
 1449 925 1449 925 1447 712 c 0,15,16
 1447 500 1447 500 1366 332.5 c 128,-1,17
 1285 165 1285 165 1132 70 c 128,-1,18
 979 -25 979 -25 770 -25 c 0,19,4
 564 -25 564 -25 410 70.5 c 128,-1,5
1037.5 206 m 128,-1,21
 1148 277 1148 277 1204.5 407 c 128,-1,22
 1261 537 1261 537 1260 712 c 0,23,24
 1260 889 1260 889 1203.5 1020.5 c 128,-1,25
 1147 1152 1147 1152 1037 1224 c 128,-1,26
 927 1296 927 1296 770 1296 c 0,27,28
 612 1296 612 1296 501 1224 c 128,-1,29
 390 1152 390 1152 333 1020.5 c 128,-1,30
 276 889 276 889 276 712 c 0,31,32
 276 537 276 537 333 407 c 128,-1,33
 390 277 390 277 501 206 c 128,-1,34
 612 135 612 135 770 135 c 0,35,20
 927 135 927 135 1037.5 206 c 128,-1,21
EndSplineSet
Validated: 33
EndChar

StartChar: Oslash
Encoding: 216 216 71
Width: 1544
GlyphClass: 2
Flags: W
AnchorPoint: "Anchor-3" 1524 1434 basechar 0
AnchorPoint: "Anchor-2" 772 1354 basechar 0
AnchorPoint: "Anchor-1" 772 0 basechar 0
AnchorPoint: "Anchor-0" 0 0 basechar 0
LayerCount: 2
Back
Fore
SplineSet
1400 1014.5 m 128,-1,1
 1448 875 1448 875 1447 712 c 0,2,3
 1447 500 1447 500 1366 332.5 c 128,-1,4
 1285 165 1285 165 1132 70 c 128,-1,5
 979 -25 979 -25 770 -25 c 0,6,7
 637 -25 637 -25 524 16 c 128,-1,8
 411 57 411 57 325 133 c 1,9,-1
 172 -51 l 1,10,-1
 94 14 l 1,11,-1
 255 207 l 1,12,13
 175 304 175 304 133.5 433 c 128,-1,14
 92 562 92 562 92 712 c 0,15,16
 92 925 92 925 174 1094 c 128,-1,17
 256 1263 256 1263 410 1360 c 128,-1,18
 564 1457 564 1457 770 1457 c 0,19,20
 893 1457 893 1457 998.5 1422.5 c 128,-1,21
 1104 1388 1104 1388 1187 1323 c 1,22,-1
 1327 1491 l 1,23,-1
 1405 1428 l 1,24,-1
 1260 1254 l 1,25,0
 1352 1154 1352 1154 1400 1014.5 c 128,-1,1
368 342 m 1,27,-1
 1078 1193 l 1,28,29
 956 1296 956 1296 770 1296 c 0,30,31
 612 1296 612 1296 501 1224 c 128,-1,32
 390 1152 390 1152 333 1020.5 c 128,-1,33
 276 889 276 889 276 712 c 0,34,26
 276 487 276 487 368 342 c 1,27,-1
1036.5 205.5 m 128,-1,36
 1147 276 1147 276 1203.5 405.5 c 128,-1,37
 1260 535 1260 535 1260 709 c 0,38,39
 1260 836 1260 836 1231.5 939.5 c 128,-1,40
 1203 1043 1203 1043 1147 1119 c 1,41,-1
 432 261 l 1,42,43
 560 135 560 135 770 135 c 0,44,35
 926 135 926 135 1036.5 205.5 c 128,-1,36
EndSplineSet
Validated: 33
EndChar

StartChar: Otilde
Encoding: 213 213 72
Width: 1544
GlyphClass: 2
Flags: W
AnchorPoint: "Anchor-3" 1524 1434 basechar 0
AnchorPoint: "Anchor-2" 774 1838 basechar 0
AnchorPoint: "Anchor-1" 772 0 basechar 0
AnchorPoint: "Anchor-0" 0 0 basechar 0
LayerCount: 2
Back
Fore
SplineSet
844 1588.5 m 128,-1,1
 810 1602 810 1602 759 1629 c 0,2,3
 717 1652 717 1652 688.5 1663.5 c 128,-1,4
 660 1675 660 1675 633 1675 c 0,5,6
 565 1675 565 1675 565 1582 c 1,7,-1
 451 1582 l 1,8,9
 451 1690 451 1690 499.5 1754 c 128,-1,10
 548 1818 548 1818 633 1818 c 0,11,12
 669 1818 669 1818 699 1805 c 128,-1,13
 729 1792 729 1792 773 1766 c 0,14,15
 813 1741 813 1741 841 1729 c 128,-1,16
 869 1717 869 1717 900 1717 c 0,17,18
 974 1717 974 1717 974 1813 c 1,19,-1
 1092 1813 l 1,20,21
 1092 1743 1092 1743 1070 1689 c 128,-1,22
 1048 1635 1048 1635 1008 1605 c 128,-1,23
 968 1575 968 1575 914 1575 c 0,24,0
 878 1575 878 1575 844 1588.5 c 128,-1,1
410 70.5 m 128,-1,26
 256 166 256 166 174 333.5 c 128,-1,27
 92 501 92 501 92 712 c 0,28,29
 92 925 92 925 174 1094 c 128,-1,30
 256 1263 256 1263 410 1360 c 128,-1,31
 564 1457 564 1457 770 1457 c 0,32,33
 979 1457 979 1457 1133 1360.5 c 128,-1,34
 1287 1264 1287 1264 1368 1094.5 c 128,-1,35
 1449 925 1449 925 1447 712 c 0,36,37
 1447 500 1447 500 1366 332.5 c 128,-1,38
 1285 165 1285 165 1132 70 c 128,-1,39
 979 -25 979 -25 770 -25 c 0,40,25
 564 -25 564 -25 410 70.5 c 128,-1,26
1037.5 206 m 128,-1,42
 1148 277 1148 277 1204.5 407 c 128,-1,43
 1261 537 1261 537 1260 712 c 0,44,45
 1260 889 1260 889 1203.5 1020.5 c 128,-1,46
 1147 1152 1147 1152 1037 1224 c 128,-1,47
 927 1296 927 1296 770 1296 c 0,48,49
 612 1296 612 1296 501 1224 c 128,-1,50
 390 1152 390 1152 333 1020.5 c 128,-1,51
 276 889 276 889 276 712 c 0,52,53
 276 537 276 537 333 407 c 128,-1,54
 390 277 390 277 501 206 c 128,-1,55
 612 135 612 135 770 135 c 0,56,41
 927 135 927 135 1037.5 206 c 128,-1,42
EndSplineSet
Validated: 33
EndChar

StartChar: OE
Encoding: 338 338 73
Width: 1906
GlyphClass: 2
Flags: W
AnchorPoint: "Anchor-3" 0 0 basechar 0
AnchorPoint: "Anchor-2" 1410 1354 basechar 0
AnchorPoint: "Anchor-1" 1370 0 basechar 0
AnchorPoint: "Anchor-0" 1681 10 basechar 0
LayerCount: 2
Back
Fore
SplineSet
1810 152 m 1,0,-1
 1810 0 l 1,1,-1
 1152 0 l 2,2,3
 1099 0 1099 0 989 -11 c 0,4,5
 843 -25 843 -25 750 -25 c 0,6,7
 549 -25 549 -25 400 70.5 c 128,-1,8
 251 166 251 166 171.5 333 c 128,-1,9
 92 500 92 500 92 712 c 0,10,11
 92 925 92 925 180.5 1094 c 128,-1,12
 269 1263 269 1263 434 1360 c 128,-1,13
 599 1457 599 1457 820 1457 c 0,14,15
 867 1457 867 1457 918.5 1453 c 128,-1,16
 970 1449 970 1449 1016 1444 c 0,17,18
 1116 1434 1116 1434 1152 1434 c 2,19,-1
 1778 1434 l 1,20,-1
 1778 1282 l 1,21,-1
 1218 1282 l 1,22,-1
 1218 805 l 1,23,-1
 1716 805 l 1,24,-1
 1716 654 l 1,25,-1
 1218 654 l 1,26,-1
 1218 152 l 1,27,-1
 1810 152 l 1,0,-1
330.5 407 m 128,-1,29
 385 277 385 277 492 206 c 128,-1,30
 599 135 599 135 750 135 c 0,31,32
 927 135 927 135 1050 163 c 1,33,-1
 1050 1270 l 1,34,35
 955 1296 955 1296 820 1296 c 0,36,37
 647 1296 647 1296 524.5 1224 c 128,-1,38
 402 1152 402 1152 339 1020.5 c 128,-1,39
 276 889 276 889 276 712 c 0,40,28
 276 537 276 537 330.5 407 c 128,-1,29
EndSplineSet
Validated: 1
EndChar

StartChar: P
Encoding: 80 80 74
Width: 1147
GlyphClass: 2
Flags: W
AnchorPoint: "Anchor-3" 0 0 basechar 0
AnchorPoint: "Anchor-2" 574 1434 basechar 0
AnchorPoint: "Anchor-1" 574 0 basechar 0
AnchorPoint: "Anchor-0" 0 0 basechar 0
LayerCount: 2
Back
Fore
SplineSet
190 1434 m 1,0,-1
 584 1434 l 2,1,2
 733 1434 733 1434 841.5 1385 c 128,-1,3
 950 1336 950 1336 1008 1240 c 128,-1,4
 1066 1144 1066 1144 1066 1006 c 0,5,6
 1066 865 1066 865 999.5 760 c 128,-1,7
 933 655 933 655 814.5 598.5 c 128,-1,8
 696 542 696 542 545 542 c 2,9,-1
 358 542 l 1,10,-1
 358 0 l 1,11,-1
 190 0 l 1,12,-1
 190 1434 l 1,0,-1
533 693 m 2,13,14
 701 693 701 693 796 770 c 128,-1,15
 891 847 891 847 891 998 c 0,16,17
 891 1145 891 1145 805 1213.5 c 128,-1,18
 719 1282 719 1282 555 1282 c 2,19,-1
 357 1281 l 1,20,-1
 357 693 l 1,21,-1
 533 693 l 2,13,14
EndSplineSet
Validated: 1
EndChar

StartChar: Thorn
Encoding: 222 222 75
Width: 1147
GlyphClass: 2
Flags: W
AnchorPoint: "Anchor-3" 0 0 basechar 0
AnchorPoint: "Anchor-2" 574 1434 basechar 0
AnchorPoint: "Anchor-1" 574 0 basechar 0
AnchorPoint: "Anchor-0" 0 0 basechar 0
LayerCount: 2
Back
Fore
SplineSet
841.5 1135 m 128,-1,1
 950 1086 950 1086 1008 990 c 128,-1,2
 1066 894 1066 894 1066 756 c 0,3,4
 1066 615 1066 615 999.5 510 c 128,-1,5
 933 405 933 405 814.5 348.5 c 128,-1,6
 696 292 696 292 545 292 c 2,7,-1
 358 292 l 1,8,-1
 358 0 l 1,9,-1
 190 0 l 1,10,-1
 190 1434 l 1,11,-1
 357 1434 l 1,12,-1
 357 1184 l 1,13,-1
 584 1184 l 2,14,0
 733 1184 733 1184 841.5 1135 c 128,-1,1
796 520 m 128,-1,16
 891 597 891 597 891 748 c 0,17,18
 891 895 891 895 805 963.5 c 128,-1,19
 719 1032 719 1032 555 1032 c 2,20,-1
 357 1031 l 1,21,-1
 357 443 l 1,22,-1
 533 443 l 2,23,15
 701 443 701 443 796 520 c 128,-1,16
EndSplineSet
Validated: 1
EndChar

StartChar: Q
Encoding: 81 81 76
Width: 1544
GlyphClass: 2
Flags: W
AnchorPoint: "Anchor-3" 1524 1434 basechar 0
AnchorPoint: "Anchor-2" 772 1434 basechar 0
AnchorPoint: "Anchor-1" 772 0 basechar 0
AnchorPoint: "Anchor-0" 0 0 basechar 0
LayerCount: 2
Back
Fore
SplineSet
1293 -106 m 128,-1,1
 1395 -175 1395 -175 1517 -203 c 1,2,-1
 1426 -361 l 1,3,4
 1281 -324 1281 -324 1156 -231 c 128,-1,5
 1031 -138 1031 -138 947 -5 c 1,6,7
 862 -25 862 -25 770 -25 c 0,8,9
 564 -25 564 -25 410 70.5 c 128,-1,10
 256 166 256 166 174 333.5 c 128,-1,11
 92 501 92 501 92 712 c 0,12,13
 92 925 92 925 174 1094 c 128,-1,14
 256 1263 256 1263 410 1360 c 128,-1,15
 564 1457 564 1457 770 1457 c 0,16,17
 978 1457 978 1457 1131 1361.5 c 128,-1,18
 1284 1266 1284 1266 1365.5 1098 c 128,-1,19
 1447 930 1447 930 1447 719 c 0,20,21
 1447 499 1447 499 1363 327 c 128,-1,22
 1279 155 1279 155 1122 64 c 1,23,0
 1191 -37 1191 -37 1293 -106 c 128,-1,1
333 407 m 128,-1,25
 390 277 390 277 501 206 c 128,-1,26
 612 135 612 135 770 135 c 0,27,28
 927 135 927 135 1037.5 206 c 128,-1,29
 1148 277 1148 277 1204.5 407 c 128,-1,30
 1261 537 1261 537 1260 712 c 0,31,32
 1260 889 1260 889 1203.5 1020.5 c 128,-1,33
 1147 1152 1147 1152 1037 1224 c 128,-1,34
 927 1296 927 1296 770 1296 c 0,35,36
 612 1296 612 1296 501 1224 c 128,-1,37
 390 1152 390 1152 333 1020.5 c 128,-1,38
 276 889 276 889 276 712 c 0,39,24
 276 537 276 537 333 407 c 128,-1,25
EndSplineSet
Validated: 33
EndChar

StartChar: R
Encoding: 82 82 77
Width: 1225
GlyphClass: 2
Flags: W
AnchorPoint: "Anchor-3" 0 0 basechar 0
AnchorPoint: "Anchor-2" 573 1344 basechar 0
AnchorPoint: "Anchor-1" 613 0 basechar 0
AnchorPoint: "Anchor-0" 0 0 basechar 0
LayerCount: 2
Back
Fore
SplineSet
970 0 m 1,0,-1
 569 612 l 1,1,-1
 545 612 l 1,2,-1
 358 612 l 1,3,-1
 358 0 l 1,4,-1
 190 0 l 1,5,-1
 190 1434 l 1,6,-1
 584 1434 l 2,7,8
 730 1434 730 1434 836 1389.5 c 128,-1,9
 942 1345 942 1345 999 1258 c 128,-1,10
 1056 1171 1056 1171 1056 1046 c 0,11,12
 1056 899 1056 899 976.5 795 c 128,-1,13
 897 691 897 691 758 644 c 1,14,-1
 1186 0 l 1,15,-1
 970 0 l 1,0,-1
788.5 832.5 m 128,-1,17
 881 902 881 902 881 1038 c 0,18,19
 881 1164 881 1164 797.5 1223 c 128,-1,20
 714 1282 714 1282 555 1282 c 2,21,-1
 357 1281 l 1,22,-1
 357 763 l 1,23,-1
 533 763 l 2,24,16
 696 763 696 763 788.5 832.5 c 128,-1,17
EndSplineSet
Validated: 1
EndChar

StartChar: Racute
Encoding: 340 340 78
Width: 1225
GlyphClass: 2
Flags: W
AnchorPoint: "Anchor-3" 0 0 basechar 0
AnchorPoint: "Anchor-2" 584 1916 basechar 0
AnchorPoint: "Anchor-1" 613 0 basechar 0
AnchorPoint: "Anchor-0" 0 0 basechar 0
LayerCount: 2
Back
Fore
SplineSet
664 1588 m 1,0,-1
 487 1588 l 1,1,-1
 710 1786 l 1,2,-1
 926 1786 l 1,3,-1
 664 1588 l 1,0,-1
970 0 m 1,4,-1
 569 612 l 1,5,-1
 545 612 l 1,6,-1
 358 612 l 1,7,-1
 358 0 l 1,8,-1
 190 0 l 1,9,-1
 190 1434 l 1,10,-1
 584 1434 l 2,11,12
 730 1434 730 1434 836 1389.5 c 128,-1,13
 942 1345 942 1345 999 1258 c 128,-1,14
 1056 1171 1056 1171 1056 1046 c 0,15,16
 1056 899 1056 899 976.5 795 c 128,-1,17
 897 691 897 691 758 644 c 1,18,-1
 1186 0 l 1,19,-1
 970 0 l 1,4,-1
788.5 832.5 m 128,-1,21
 881 902 881 902 881 1038 c 0,22,23
 881 1164 881 1164 797.5 1223 c 128,-1,24
 714 1282 714 1282 555 1282 c 2,25,-1
 357 1281 l 1,26,-1
 357 763 l 1,27,-1
 533 763 l 2,28,20
 696 763 696 763 788.5 832.5 c 128,-1,21
EndSplineSet
Validated: 1
EndChar

StartChar: Rcaron
Encoding: 344 344 79
Width: 1225
GlyphClass: 2
Flags: W
AnchorPoint: "Anchor-3" 0 0 basechar 0
AnchorPoint: "Anchor-2" 575 1918 basechar 0
AnchorPoint: "Anchor-1" 613 0 basechar 0
AnchorPoint: "Anchor-0" 0 0 basechar 0
LayerCount: 2
Back
Fore
SplineSet
508 1557 m 1,0,-1
 232 1792 l 1,1,-1
 407 1792 l 1,2,-1
 571 1658 l 1,3,-1
 735 1792 l 1,4,-1
 914 1792 l 1,5,-1
 640 1557 l 1,6,-1
 508 1557 l 1,0,-1
970 0 m 1,7,-1
 569 612 l 1,8,-1
 545 612 l 1,9,-1
 358 612 l 1,10,-1
 358 0 l 1,11,-1
 190 0 l 1,12,-1
 190 1434 l 1,13,-1
 584 1434 l 2,14,15
 730 1434 730 1434 836 1389.5 c 128,-1,16
 942 1345 942 1345 999 1258 c 128,-1,17
 1056 1171 1056 1171 1056 1046 c 0,18,19
 1056 899 1056 899 976.5 795 c 128,-1,20
 897 691 897 691 758 644 c 1,21,-1
 1186 0 l 1,22,-1
 970 0 l 1,7,-1
788.5 832.5 m 128,-1,24
 881 902 881 902 881 1038 c 0,25,26
 881 1164 881 1164 797.5 1223 c 128,-1,27
 714 1282 714 1282 555 1282 c 2,28,-1
 357 1281 l 1,29,-1
 357 763 l 1,30,-1
 533 763 l 2,31,23
 696 763 696 763 788.5 832.5 c 128,-1,24
EndSplineSet
Validated: 1
EndChar

StartChar: uni0156
Encoding: 342 342 80
Width: 1225
GlyphClass: 2
Flags: W
AnchorPoint: "Anchor-3" 0 0 basechar 0
AnchorPoint: "Anchor-2" 573 1344 basechar 0
AnchorPoint: "Anchor-1" 558 -617 basechar 0
AnchorPoint: "Anchor-0" 0 0 basechar 0
LayerCount: 2
Back
Fore
SplineSet
1186 0 m 1,0,-1
 970 0 l 1,1,-1
 569 612 l 1,2,-1
 545 612 l 1,3,-1
 358 612 l 1,4,-1
 358 0 l 1,5,-1
 190 0 l 1,6,-1
 190 1434 l 1,7,-1
 584 1434 l 2,8,9
 730 1434 730 1434 836 1389.5 c 128,-1,10
 942 1345 942 1345 999 1258 c 128,-1,11
 1056 1171 1056 1171 1056 1046 c 0,12,13
 1056 899 1056 899 976.5 795 c 128,-1,14
 897 691 897 691 758 644 c 1,15,-1
 1186 0 l 1,0,-1
788.5 832.5 m 128,-1,17
 881 902 881 902 881 1038 c 0,18,19
 881 1164 881 1164 797.5 1223 c 128,-1,20
 714 1282 714 1282 555 1282 c 2,21,-1
 357 1281 l 1,22,-1
 357 763 l 1,23,-1
 533 763 l 2,24,16
 696 763 696 763 788.5 832.5 c 128,-1,17
520 -264 m 128,-1,26
 534 -206 534 -206 534 -125 c 1,27,-1
 694 -125 l 1,28,29
 694 -213 694 -213 664 -309.5 c 128,-1,30
 634 -406 634 -406 584 -477 c 1,31,-1
 467 -407 l 1,32,25
 506 -322 506 -322 520 -264 c 128,-1,26
EndSplineSet
Validated: 1
EndChar

StartChar: S
Encoding: 83 83 81
Width: 1088
GlyphClass: 2
Flags: W
AnchorPoint: "Anchor-3" 0 0 basechar 0
AnchorPoint: "Anchor-2" 544 1354 basechar 0
AnchorPoint: "Anchor-1" 544 0 basechar 0
AnchorPoint: "Anchor-0" 0 0 basechar 0
LayerCount: 2
Back
Fore
SplineSet
296 14.5 m 128,-1,1
 201 40 201 40 80 98 c 1,2,-1
 145 247 l 1,3,4
 258 189 258 189 339.5 166.5 c 128,-1,5
 421 144 421 144 501 144 c 0,6,7
 658 144 658 144 729.5 210.5 c 128,-1,8
 801 277 801 277 801 386 c 0,9,10
 801 465 801 465 761.5 517.5 c 128,-1,11
 722 570 722 570 663.5 602 c 128,-1,12
 605 634 605 634 503 675 c 0,13,14
 383 724 383 724 310.5 766 c 128,-1,15
 238 808 238 808 187 884 c 128,-1,16
 136 960 136 960 136 1078 c 0,17,18
 136 1264 136 1264 262 1355.5 c 128,-1,19
 388 1447 388 1447 599 1447 c 0,20,21
 770 1447 770 1447 938 1380 c 1,22,-1
 873 1223 l 1,23,-1
 848 1232 l 2,24,25
 786 1256 786 1256 732 1269 c 128,-1,26
 678 1282 678 1282 602 1282 c 0,27,28
 473 1282 473 1282 389.5 1235.5 c 128,-1,29
 306 1189 306 1189 306 1088 c 0,30,31
 306 1025 306 1025 342.5 980 c 128,-1,32
 379 935 379 935 433 904.5 c 128,-1,33
 487 874 487 874 584 831 c 0,34,35
 710 776 710 776 789 728 c 128,-1,36
 868 680 868 680 924 596 c 128,-1,37
 980 512 980 512 980 386 c 0,38,39
 980 264 980 264 923 174.5 c 128,-1,40
 866 85 866 85 757 37 c 128,-1,41
 648 -11 648 -11 495 -11 c 0,42,0
 391 -11 391 -11 296 14.5 c 128,-1,1
EndSplineSet
Validated: 1
EndChar

StartChar: Sacute
Encoding: 346 346 82
Width: 1088
GlyphClass: 2
Flags: W
AnchorPoint: "Anchor-3" 0 0 basechar 0
AnchorPoint: "Anchor-2" 555 1926 basechar 0
AnchorPoint: "Anchor-1" 544 0 basechar 0
AnchorPoint: "Anchor-0" 0 0 basechar 0
LayerCount: 2
Back
Fore
SplineSet
681 1796 m 1,0,-1
 897 1796 l 1,1,-1
 635 1598 l 1,2,-1
 458 1598 l 1,3,-1
 681 1796 l 1,0,-1
296 14.5 m 128,-1,5
 201 40 201 40 80 98 c 1,6,-1
 145 247 l 1,7,8
 258 189 258 189 339.5 166.5 c 128,-1,9
 421 144 421 144 501 144 c 0,10,11
 658 144 658 144 729.5 210.5 c 128,-1,12
 801 277 801 277 801 386 c 0,13,14
 801 465 801 465 761.5 517.5 c 128,-1,15
 722 570 722 570 663.5 602 c 128,-1,16
 605 634 605 634 503 675 c 0,17,18
 383 724 383 724 310.5 766 c 128,-1,19
 238 808 238 808 187 884 c 128,-1,20
 136 960 136 960 136 1078 c 0,21,22
 136 1264 136 1264 262 1355.5 c 128,-1,23
 388 1447 388 1447 599 1447 c 0,24,25
 770 1447 770 1447 938 1380 c 1,26,-1
 873 1223 l 1,27,-1
 848 1232 l 2,28,29
 786 1256 786 1256 732 1269 c 128,-1,30
 678 1282 678 1282 602 1282 c 0,31,32
 473 1282 473 1282 389.5 1235.5 c 128,-1,33
 306 1189 306 1189 306 1088 c 0,34,35
 306 1025 306 1025 342.5 980 c 128,-1,36
 379 935 379 935 433 904.5 c 128,-1,37
 487 874 487 874 584 831 c 0,38,39
 710 776 710 776 789 728 c 128,-1,40
 868 680 868 680 924 596 c 128,-1,41
 980 512 980 512 980 386 c 0,42,43
 980 264 980 264 923 174.5 c 128,-1,44
 866 85 866 85 757 37 c 128,-1,45
 648 -11 648 -11 495 -11 c 0,46,4
 391 -11 391 -11 296 14.5 c 128,-1,5
EndSplineSet
Validated: 1
EndChar

StartChar: Scaron
Encoding: 352 352 83
Width: 1088
GlyphClass: 2
Flags: W
AnchorPoint: "Anchor-3" 0 0 basechar 0
AnchorPoint: "Anchor-2" 546 1928 basechar 0
AnchorPoint: "Anchor-1" 544 0 basechar 0
AnchorPoint: "Anchor-0" 0 0 basechar 0
LayerCount: 2
Back
Fore
SplineSet
203 1802 m 1,0,-1
 378 1802 l 1,1,-1
 542 1668 l 1,2,-1
 706 1802 l 1,3,-1
 885 1802 l 1,4,-1
 611 1567 l 1,5,-1
 479 1567 l 1,6,-1
 203 1802 l 1,0,-1
296 14.5 m 128,-1,8
 201 40 201 40 80 98 c 1,9,-1
 145 247 l 1,10,11
 258 189 258 189 339.5 166.5 c 128,-1,12
 421 144 421 144 501 144 c 0,13,14
 658 144 658 144 729.5 210.5 c 128,-1,15
 801 277 801 277 801 386 c 0,16,17
 801 465 801 465 761.5 517.5 c 128,-1,18
 722 570 722 570 663.5 602 c 128,-1,19
 605 634 605 634 503 675 c 0,20,21
 383 724 383 724 310.5 766 c 128,-1,22
 238 808 238 808 187 884 c 128,-1,23
 136 960 136 960 136 1078 c 0,24,25
 136 1264 136 1264 262 1355.5 c 128,-1,26
 388 1447 388 1447 599 1447 c 0,27,28
 770 1447 770 1447 938 1380 c 1,29,-1
 873 1223 l 1,30,-1
 848 1232 l 2,31,32
 786 1256 786 1256 732 1269 c 128,-1,33
 678 1282 678 1282 602 1282 c 0,34,35
 473 1282 473 1282 389.5 1235.5 c 128,-1,36
 306 1189 306 1189 306 1088 c 0,37,38
 306 1025 306 1025 342.5 980 c 128,-1,39
 379 935 379 935 433 904.5 c 128,-1,40
 487 874 487 874 584 831 c 0,41,42
 710 776 710 776 789 728 c 128,-1,43
 868 680 868 680 924 596 c 128,-1,44
 980 512 980 512 980 386 c 0,45,46
 980 264 980 264 923 174.5 c 128,-1,47
 866 85 866 85 757 37 c 128,-1,48
 648 -11 648 -11 495 -11 c 0,49,7
 391 -11 391 -11 296 14.5 c 128,-1,8
EndSplineSet
Validated: 1
EndChar

StartChar: Scedilla
Encoding: 350 350 84
Width: 1088
GlyphClass: 2
Flags: W
AnchorPoint: "Anchor-3" 0 0 basechar 0
AnchorPoint: "Anchor-2" 544 1354 basechar 0
AnchorPoint: "Anchor-1" 546 -432 basechar 0
AnchorPoint: "Anchor-0" 0 0 basechar 0
LayerCount: 2
Back
Fore
SplineSet
342.5 980 m 128,-1,1
 379 935 379 935 433 904.5 c 128,-1,2
 487 874 487 874 584 831 c 0,3,4
 710 776 710 776 789 728 c 128,-1,5
 868 680 868 680 924 596 c 128,-1,6
 980 512 980 512 980 386 c 0,7,8
 980 277 980 277 934.5 193.5 c 128,-1,9
 889 110 889 110 801 58.5 c 128,-1,10
 713 7 713 7 589 -6 c 1,11,-1
 589 -64 l 1,12,13
 695 -64 695 -64 756 -109.5 c 128,-1,14
 817 -155 817 -155 817 -236 c 0,15,16
 817 -432 817 -432 522 -432 c 0,17,18
 493 -432 493 -432 457 -430 c 1,19,-1
 457 -310 l 1,20,21
 501 -316 501 -316 527 -316 c 0,22,23
 668 -316 668 -316 668 -246 c 0,24,25
 668 -174 668 -174 539 -174 c 0,26,27
 526 -174 526 -174 501 -178 c 1,28,-1
 501 -11 l 1,29,30
 394 -12 394 -12 298.5 13.5 c 128,-1,31
 203 39 203 39 80 98 c 1,32,-1
 145 247 l 1,33,34
 258 189 258 189 339.5 166.5 c 128,-1,35
 421 144 421 144 501 144 c 0,36,37
 658 144 658 144 729.5 210.5 c 128,-1,38
 801 277 801 277 801 386 c 0,39,40
 801 465 801 465 761.5 517.5 c 128,-1,41
 722 570 722 570 663.5 602 c 128,-1,42
 605 634 605 634 503 675 c 0,43,44
 383 724 383 724 310.5 766 c 128,-1,45
 238 808 238 808 187 884 c 128,-1,46
 136 960 136 960 136 1078 c 0,47,48
 136 1264 136 1264 262 1355.5 c 128,-1,49
 388 1447 388 1447 599 1447 c 0,50,51
 770 1447 770 1447 938 1380 c 1,52,-1
 873 1223 l 1,53,-1
 848 1232 l 2,54,55
 786 1256 786 1256 732 1269 c 128,-1,56
 678 1282 678 1282 602 1282 c 0,57,58
 473 1282 473 1282 389.5 1235.5 c 128,-1,59
 306 1189 306 1189 306 1088 c 0,60,0
 306 1025 306 1025 342.5 980 c 128,-1,1
EndSplineSet
Validated: 33
Substitution2: "'locl' Localized Forms in Latin lookup 5 subtable" uni0218
Substitution2: "'locl' Localized Forms in Latin lookup 4 subtable" uni0218
Substitution2: "'aalt' Access All Alternates in Latin lookup 0 subtable" uni0218
EndChar

StartChar: uni0218
Encoding: 536 536 85
Width: 1088
GlyphClass: 2
Flags: W
AnchorPoint: "Anchor-3" 0 0 basechar 0
AnchorPoint: "Anchor-2" 544 1354 basechar 0
AnchorPoint: "Anchor-1" 489 -617 basechar 0
AnchorPoint: "Anchor-0" 0 0 basechar 0
LayerCount: 2
Back
Fore
SplineSet
296 14.5 m 128,-1,1
 201 40 201 40 80 98 c 1,2,-1
 145 247 l 1,3,4
 258 189 258 189 339.5 166.5 c 128,-1,5
 421 144 421 144 501 144 c 0,6,7
 658 144 658 144 729.5 210.5 c 128,-1,8
 801 277 801 277 801 386 c 0,9,10
 801 465 801 465 761.5 517.5 c 128,-1,11
 722 570 722 570 663.5 602 c 128,-1,12
 605 634 605 634 503 675 c 0,13,14
 383 724 383 724 310.5 766 c 128,-1,15
 238 808 238 808 187 884 c 128,-1,16
 136 960 136 960 136 1078 c 0,17,18
 136 1264 136 1264 262 1355.5 c 128,-1,19
 388 1447 388 1447 599 1447 c 0,20,21
 770 1447 770 1447 938 1380 c 1,22,-1
 873 1223 l 1,23,-1
 848 1232 l 2,24,25
 786 1256 786 1256 732 1269 c 128,-1,26
 678 1282 678 1282 602 1282 c 0,27,28
 473 1282 473 1282 389.5 1235.5 c 128,-1,29
 306 1189 306 1189 306 1088 c 0,30,31
 306 1025 306 1025 342.5 980 c 128,-1,32
 379 935 379 935 433 904.5 c 128,-1,33
 487 874 487 874 584 831 c 0,34,35
 710 776 710 776 789 728 c 128,-1,36
 868 680 868 680 924 596 c 128,-1,37
 980 512 980 512 980 386 c 0,38,39
 980 264 980 264 923 174.5 c 128,-1,40
 866 85 866 85 757 37 c 128,-1,41
 648 -11 648 -11 495 -11 c 0,42,0
 391 -11 391 -11 296 14.5 c 128,-1,1
398 -407 m 1,43,44
 437 -322 437 -322 451 -264 c 128,-1,45
 465 -206 465 -206 465 -125 c 1,46,-1
 625 -125 l 1,47,48
 625 -213 625 -213 595 -309.5 c 128,-1,49
 565 -406 565 -406 515 -477 c 1,50,-1
 398 -407 l 1,43,44
EndSplineSet
Validated: 1
EndChar

StartChar: T
Encoding: 84 84 86
Width: 1073
GlyphClass: 2
Flags: W
AnchorPoint: "Anchor-3" 0 0 basechar 0
AnchorPoint: "Anchor-2" 537 1354 basechar 0
AnchorPoint: "Anchor-1" 537 0 basechar 0
AnchorPoint: "Anchor-0" 0 0 basechar 0
LayerCount: 2
Back
Fore
SplineSet
454 1282 m 1,0,-1
 41 1282 l 1,1,-1
 41 1434 l 1,2,-1
 1036 1434 l 1,3,-1
 1036 1282 l 1,4,-1
 622 1282 l 1,5,-1
 622 0 l 1,6,-1
 454 0 l 1,7,-1
 454 1282 l 1,0,-1
EndSplineSet
Validated: 1
EndChar

StartChar: Tbar
Encoding: 358 358 87
Width: 1073
GlyphClass: 2
Flags: W
AnchorPoint: "Anchor-3" 0 0 basechar 0
AnchorPoint: "Anchor-2" 537 1354 basechar 0
AnchorPoint: "Anchor-1" 537 0 basechar 0
AnchorPoint: "Anchor-0" 0 0 basechar 0
LayerCount: 2
Back
Fore
SplineSet
622 1282 m 1,0,-1
 622 773 l 1,1,-1
 826 773 l 1,2,-1
 826 628 l 1,3,-1
 622 628 l 1,4,-1
 622 0 l 1,5,-1
 454 0 l 1,6,-1
 454 628 l 1,7,-1
 228 628 l 1,8,-1
 228 773 l 1,9,-1
 454 773 l 1,10,-1
 454 1282 l 1,11,-1
 41 1282 l 1,12,-1
 41 1434 l 1,13,-1
 1036 1434 l 1,14,-1
 1036 1282 l 1,15,-1
 622 1282 l 1,0,-1
EndSplineSet
Validated: 1
EndChar

StartChar: Tcaron
Encoding: 356 356 88
Width: 1073
GlyphClass: 2
Flags: W
AnchorPoint: "Anchor-3" 0 0 basechar 0
AnchorPoint: "Anchor-2" 539 1928 basechar 0
AnchorPoint: "Anchor-1" 537 0 basechar 0
AnchorPoint: "Anchor-0" 0 0 basechar 0
LayerCount: 2
Back
Fore
SplineSet
196 1802 m 1,0,-1
 371 1802 l 1,1,-1
 535 1668 l 1,2,-1
 699 1802 l 1,3,-1
 878 1802 l 1,4,-1
 604 1567 l 1,5,-1
 472 1567 l 1,6,-1
 196 1802 l 1,0,-1
454 1282 m 1,7,-1
 41 1282 l 1,8,-1
 41 1434 l 1,9,-1
 1036 1434 l 1,10,-1
 1036 1282 l 1,11,-1
 622 1282 l 1,12,-1
 622 0 l 1,13,-1
 454 0 l 1,14,-1
 454 1282 l 1,7,-1
EndSplineSet
Validated: 1
EndChar

StartChar: uni0162
Encoding: 354 354 89
Width: 1073
GlyphClass: 2
Flags: W
AnchorPoint: "Anchor-3" 0 0 basechar 0
AnchorPoint: "Anchor-2" 537 1354 basechar 0
AnchorPoint: "Anchor-1" 539 -432 basechar 0
AnchorPoint: "Anchor-0" 0 0 basechar 0
LayerCount: 2
Back
Fore
SplineSet
582 0 m 1,0,-1
 582 -64 l 1,1,2
 688 -64 688 -64 749 -109.5 c 128,-1,3
 810 -155 810 -155 810 -236 c 0,4,5
 810 -432 810 -432 515 -432 c 0,6,7
 486 -432 486 -432 450 -430 c 1,8,-1
 450 -310 l 1,9,10
 494 -316 494 -316 520 -316 c 0,11,12
 661 -316 661 -316 661 -246 c 0,13,14
 661 -174 661 -174 532 -174 c 0,15,16
 519 -174 519 -174 494 -178 c 1,17,-1
 494 0 l 1,18,-1
 454 0 l 1,19,-1
 454 1282 l 1,20,-1
 41 1282 l 1,21,-1
 41 1434 l 1,22,-1
 1036 1434 l 1,23,-1
 1036 1282 l 1,24,-1
 622 1282 l 1,25,-1
 622 0 l 1,26,-1
 582 0 l 1,0,-1
EndSplineSet
Validated: 1
Substitution2: "'locl' Localized Forms in Latin lookup 5 subtable" uni021A
Substitution2: "'locl' Localized Forms in Latin lookup 4 subtable" uni021A
Substitution2: "'aalt' Access All Alternates in Latin lookup 0 subtable" uni021A
EndChar

StartChar: uni021A
Encoding: 538 538 90
Width: 1073
GlyphClass: 2
Flags: W
AnchorPoint: "Anchor-3" 0 0 basechar 0
AnchorPoint: "Anchor-2" 537 1354 basechar 0
AnchorPoint: "Anchor-1" 482 -617 basechar 0
AnchorPoint: "Anchor-0" 0 0 basechar 0
LayerCount: 2
Back
Fore
SplineSet
454 1282 m 1,0,-1
 41 1282 l 1,1,-1
 41 1434 l 1,2,-1
 1036 1434 l 1,3,-1
 1036 1282 l 1,4,-1
 622 1282 l 1,5,-1
 622 0 l 1,6,-1
 454 0 l 1,7,-1
 454 1282 l 1,0,-1
391 -407 m 1,8,9
 430 -322 430 -322 444 -264 c 128,-1,10
 458 -206 458 -206 458 -125 c 1,11,-1
 618 -125 l 1,12,13
 618 -213 618 -213 588 -309.5 c 128,-1,14
 558 -406 558 -406 508 -477 c 1,15,-1
 391 -407 l 1,8,9
EndSplineSet
Validated: 1
EndChar

StartChar: U
Encoding: 85 85 91
Width: 1407
GlyphClass: 2
Flags: W
AnchorPoint: "Anchor-3" 1387 1434 basechar 0
AnchorPoint: "Anchor-2" 704 1354 basechar 0
AnchorPoint: "Anchor-1" 704 0 basechar 0
AnchorPoint: "Anchor-0" 702 10 basechar 0
LayerCount: 2
Back
Fore
SplineSet
297 125 m 128,-1,1
 169 274 169 274 169 557 c 2,2,-1
 169 1434 l 1,3,-1
 337 1434 l 1,4,-1
 337 568 l 2,5,6
 337 126 337 126 709 126 c 0,7,8
 1069 126 1069 126 1069 553 c 2,9,-1
 1069 1434 l 1,10,-1
 1237 1434 l 1,11,-1
 1237 580 l 2,12,13
 1237 -24 1237 -24 692 -24 c 0,14,0
 425 -24 425 -24 297 125 c 128,-1,1
EndSplineSet
Validated: 1
EndChar

StartChar: Uacute
Encoding: 218 218 92
Width: 1407
GlyphClass: 2
Flags: W
AnchorPoint: "Anchor-3" 1387 1434 basechar 0
AnchorPoint: "Anchor-2" 715 1926 basechar 0
AnchorPoint: "Anchor-1" 704 0 basechar 0
AnchorPoint: "Anchor-0" 702 10 basechar 0
LayerCount: 2
Back
Fore
SplineSet
841 1796 m 1,0,-1
 1057 1796 l 1,1,-1
 795 1598 l 1,2,-1
 618 1598 l 1,3,-1
 841 1796 l 1,0,-1
297 125 m 128,-1,5
 169 274 169 274 169 557 c 2,6,-1
 169 1434 l 1,7,-1
 337 1434 l 1,8,-1
 337 568 l 2,9,10
 337 126 337 126 709 126 c 0,11,12
 1069 126 1069 126 1069 553 c 2,13,-1
 1069 1434 l 1,14,-1
 1237 1434 l 1,15,-1
 1237 580 l 2,16,17
 1237 -24 1237 -24 692 -24 c 0,18,4
 425 -24 425 -24 297 125 c 128,-1,5
EndSplineSet
Validated: 1
EndChar

StartChar: Ucircumflex
Encoding: 219 219 93
Width: 1407
GlyphClass: 2
Flags: W
AnchorPoint: "Anchor-3" 1387 1434 basechar 0
AnchorPoint: "Anchor-2" 706 1930 basechar 0
AnchorPoint: "Anchor-1" 704 0 basechar 0
AnchorPoint: "Anchor-0" 702 10 basechar 0
LayerCount: 2
Back
Fore
SplineSet
650 1800 m 1,0,-1
 783 1800 l 1,1,-1
 1059 1566 l 1,2,-1
 867 1566 l 1,3,-1
 713 1687 l 1,4,-1
 558 1566 l 1,5,-1
 375 1566 l 1,6,-1
 650 1800 l 1,0,-1
297 125 m 128,-1,8
 169 274 169 274 169 557 c 2,9,-1
 169 1434 l 1,10,-1
 337 1434 l 1,11,-1
 337 568 l 2,12,13
 337 126 337 126 709 126 c 0,14,15
 1069 126 1069 126 1069 553 c 2,16,-1
 1069 1434 l 1,17,-1
 1237 1434 l 1,18,-1
 1237 580 l 2,19,20
 1237 -24 1237 -24 692 -24 c 0,21,7
 425 -24 425 -24 297 125 c 128,-1,8
EndSplineSet
Validated: 1
EndChar

StartChar: Udieresis
Encoding: 220 220 94
Width: 1407
GlyphClass: 2
Flags: W
AnchorPoint: "Anchor-3" 1387 1434 basechar 0
AnchorPoint: "Anchor-2" 706 1795 basechar 0
AnchorPoint: "Anchor-1" 704 0 basechar 0
AnchorPoint: "Anchor-0" 702 10 basechar 0
LayerCount: 2
Back
Fore
SplineSet
452 1563.5 m 128,-1,1
 424 1580 424 1580 407.5 1607.5 c 128,-1,2
 391 1635 391 1635 391 1667 c 0,3,4
 391 1718 391 1718 425.5 1752 c 128,-1,5
 460 1786 460 1786 510 1786 c 256,6,7
 560 1786 560 1786 596 1751.5 c 128,-1,8
 632 1717 632 1717 632 1667 c 0,9,10
 632 1635 632 1635 615.5 1607 c 128,-1,11
 599 1579 599 1579 572 1563 c 128,-1,12
 545 1547 545 1547 513 1547 c 0,13,0
 480 1547 480 1547 452 1563.5 c 128,-1,1
813 1581.5 m 128,-1,15
 778 1616 778 1616 778 1667 c 256,16,17
 778 1718 778 1718 812 1752 c 128,-1,18
 846 1786 846 1786 895 1786 c 0,19,20
 945 1786 945 1786 980.5 1751.5 c 128,-1,21
 1016 1717 1016 1717 1016 1667 c 256,22,23
 1016 1617 1016 1617 982 1582 c 128,-1,24
 948 1547 948 1547 897 1547 c 0,25,14
 848 1547 848 1547 813 1581.5 c 128,-1,15
297 125 m 128,-1,27
 169 274 169 274 169 557 c 2,28,-1
 169 1434 l 1,29,-1
 337 1434 l 1,30,-1
 337 568 l 2,31,32
 337 126 337 126 709 126 c 0,33,34
 1069 126 1069 126 1069 553 c 2,35,-1
 1069 1434 l 1,36,-1
 1237 1434 l 1,37,-1
 1237 580 l 2,38,39
 1237 -24 1237 -24 692 -24 c 0,40,26
 425 -24 425 -24 297 125 c 128,-1,27
EndSplineSet
Validated: 1
EndChar

StartChar: Ugrave
Encoding: 217 217 95
Width: 1407
GlyphClass: 2
Flags: W
AnchorPoint: "Anchor-3" 1387 1434 basechar 0
AnchorPoint: "Anchor-2" 571 1926 basechar 0
AnchorPoint: "Anchor-1" 704 0 basechar 0
AnchorPoint: "Anchor-0" 702 10 basechar 0
LayerCount: 2
Back
Fore
SplineSet
384 1794 m 1,0,-1
 582 1794 l 1,1,-1
 783 1566 l 1,2,-1
 626 1566 l 1,3,-1
 384 1794 l 1,0,-1
297 125 m 128,-1,5
 169 274 169 274 169 557 c 2,6,-1
 169 1434 l 1,7,-1
 337 1434 l 1,8,-1
 337 568 l 2,9,10
 337 126 337 126 709 126 c 0,11,12
 1069 126 1069 126 1069 553 c 2,13,-1
 1069 1434 l 1,14,-1
 1237 1434 l 1,15,-1
 1237 580 l 2,16,17
 1237 -24 1237 -24 692 -24 c 0,18,4
 425 -24 425 -24 297 125 c 128,-1,5
EndSplineSet
Validated: 1
EndChar

StartChar: Uhungarumlaut
Encoding: 368 368 96
Width: 1407
GlyphClass: 2
Flags: W
AnchorPoint: "Anchor-3" 1387 1434 basechar 0
AnchorPoint: "Anchor-2" 704 1354 basechar 0
AnchorPoint: "Anchor-1" 704 0 basechar 0
AnchorPoint: "Anchor-0" 702 10 basechar 0
LayerCount: 2
Back
Fore
SplineSet
658 1776 m 1,0,-1
 838 1776 l 1,1,-1
 618 1568 l 1,2,-1
 472 1568 l 1,3,-1
 658 1776 l 1,0,-1
952 1776 m 1,4,-1
 1135 1776 l 1,5,-1
 910 1568 l 1,6,-1
 763 1568 l 1,7,-1
 952 1776 l 1,4,-1
297 125 m 128,-1,9
 169 274 169 274 169 557 c 2,10,-1
 169 1434 l 1,11,-1
 337 1434 l 1,12,-1
 337 568 l 2,13,14
 337 126 337 126 709 126 c 0,15,16
 1069 126 1069 126 1069 553 c 2,17,-1
 1069 1434 l 1,18,-1
 1237 1434 l 1,19,-1
 1237 580 l 2,20,21
 1237 -24 1237 -24 692 -24 c 0,22,8
 425 -24 425 -24 297 125 c 128,-1,9
EndSplineSet
Validated: 1
EndChar

StartChar: Umacron
Encoding: 362 362 97
Width: 1407
GlyphClass: 2
Flags: W
AnchorPoint: "Anchor-3" 1387 1434 basechar 0
AnchorPoint: "Anchor-2" 706 1896 basechar 0
AnchorPoint: "Anchor-1" 704 0 basechar 0
AnchorPoint: "Anchor-0" 702 10 basechar 0
LayerCount: 2
Back
Fore
SplineSet
389 1709 m 1,0,-1
 1019 1709 l 1,1,-1
 1019 1569 l 1,2,-1
 389 1569 l 1,3,-1
 389 1709 l 1,0,-1
297 125 m 128,-1,5
 169 274 169 274 169 557 c 2,6,-1
 169 1434 l 1,7,-1
 337 1434 l 1,8,-1
 337 568 l 2,9,10
 337 126 337 126 709 126 c 0,11,12
 1069 126 1069 126 1069 553 c 2,13,-1
 1069 1434 l 1,14,-1
 1237 1434 l 1,15,-1
 1237 580 l 2,16,17
 1237 -24 1237 -24 692 -24 c 0,18,4
 425 -24 425 -24 297 125 c 128,-1,5
EndSplineSet
Validated: 1
EndChar

StartChar: Uogonek
Encoding: 370 370 98
Width: 1407
GlyphClass: 2
Flags: W
AnchorPoint: "Anchor-3" 1387 1434 basechar 0
AnchorPoint: "Anchor-2" 704 1354 basechar 0
AnchorPoint: "Anchor-1" 704 0 basechar 0
AnchorPoint: "Anchor-0" 702 10 basechar 0
LayerCount: 2
Back
Fore
SplineSet
1237 1434 m 1,0,-1
 1237 580 l 2,1,2
 1237 30 1237 30 785 -19 c 1,3,4
 747 -40 747 -40 719 -72.5 c 128,-1,5
 691 -105 691 -105 676.5 -138 c 128,-1,6
 662 -171 662 -171 662 -193 c 0,7,8
 662 -277 662 -277 760 -277 c 0,9,10
 809 -277 809 -277 830 -270 c 1,11,-1
 846 -387 l 1,12,13
 827 -400 827 -400 734 -400 c 0,14,15
 526 -400 526 -400 526 -240 c 0,16,17
 526 -181 526 -181 568 -121 c 128,-1,18
 610 -61 610 -61 664 -24 c 1,19,20
 412 -16 412 -16 290.5 133 c 128,-1,21
 169 282 169 282 169 557 c 2,22,-1
 169 1434 l 1,23,-1
 337 1434 l 1,24,-1
 337 568 l 2,25,26
 337 126 337 126 709 126 c 0,27,28
 1069 126 1069 126 1069 553 c 2,29,-1
 1069 1434 l 1,30,-1
 1237 1434 l 1,0,-1
EndSplineSet
Validated: 1
EndChar

StartChar: Uring
Encoding: 366 366 99
Width: 1407
GlyphClass: 2
Flags: W
AnchorPoint: "Anchor-3" 1387 1434 basechar 0
AnchorPoint: "Anchor-2" 706 1454 basechar 0
AnchorPoint: "Anchor-1" 704 0 basechar 0
AnchorPoint: "Anchor-0" 702 10 basechar 0
LayerCount: 2
Back
Fore
SplineSet
597 1511 m 128,-1,1
 551 1536 551 1536 524.5 1579.5 c 128,-1,2
 498 1623 498 1623 498 1676 c 0,3,4
 498 1732 498 1732 525.5 1777 c 128,-1,5
 553 1822 553 1822 600.5 1848 c 128,-1,6
 648 1874 648 1874 707 1874 c 0,7,8
 764 1874 764 1874 810.5 1849 c 128,-1,9
 857 1824 857 1824 883.5 1780 c 128,-1,10
 910 1736 910 1736 910 1682 c 0,11,12
 910 1627 910 1627 882.5 1582 c 128,-1,13
 855 1537 855 1537 807 1511.5 c 128,-1,14
 759 1486 759 1486 700 1486 c 0,15,0
 643 1486 643 1486 597 1511 c 128,-1,1
772.5 1614.5 m 128,-1,17
 800 1641 800 1641 800 1680 c 0,18,19
 800 1720 800 1720 772.5 1746.5 c 128,-1,20
 745 1773 745 1773 704 1773 c 0,21,22
 665 1773 665 1773 638.5 1746.5 c 128,-1,23
 612 1720 612 1720 612 1680 c 0,24,25
 612 1641 612 1641 638.5 1614.5 c 128,-1,26
 665 1588 665 1588 704 1588 c 0,27,16
 745 1588 745 1588 772.5 1614.5 c 128,-1,17
297 125 m 128,-1,29
 169 274 169 274 169 557 c 2,30,-1
 169 1434 l 1,31,-1
 337 1434 l 1,32,-1
 337 568 l 2,33,34
 337 126 337 126 709 126 c 0,35,36
 1069 126 1069 126 1069 553 c 2,37,-1
 1069 1434 l 1,38,-1
 1237 1434 l 1,39,-1
 1237 580 l 2,40,41
 1237 -24 1237 -24 692 -24 c 0,42,28
 425 -24 425 -24 297 125 c 128,-1,29
EndSplineSet
Validated: 1
EndChar

StartChar: V
Encoding: 86 86 100
Width: 1272
GlyphClass: 2
Flags: W
AnchorPoint: "Anchor-3" 0 0 basechar 0
AnchorPoint: "Anchor-2" 636 1384 basechar 0
AnchorPoint: "Anchor-1" 636 0 basechar 0
AnchorPoint: "Anchor-0" 0 0 basechar 0
LayerCount: 2
Back
Fore
SplineSet
16 1433 m 1,0,-1
 200 1433 l 1,1,-1
 600 291 l 2,2,3
 621 236 621 236 630 164 c 1,4,-1
 634 164 l 1,5,6
 642 218 642 218 668 294 c 2,7,-1
 1076 1434 l 1,8,-1
 1252 1433 l 1,9,-1
 721 -1 l 1,10,-1
 536 -1 l 1,11,-1
 16 1433 l 1,0,-1
EndSplineSet
Validated: 1
EndChar

StartChar: W
Encoding: 87 87 101
Width: 1913
GlyphClass: 2
Flags: W
AnchorPoint: "Anchor-3" 0 0 basechar 0
AnchorPoint: "Anchor-2" 967 1354 basechar 0
AnchorPoint: "Anchor-1" 957 0 basechar 0
AnchorPoint: "Anchor-0" 0 0 basechar 0
LayerCount: 2
Back
Fore
SplineSet
25 1434 m 1,0,-1
 208 1434 l 1,1,-1
 515 329 l 2,2,3
 524 298 524 298 531 257 c 128,-1,4
 538 216 538 216 539 185 c 1,5,-1
 544 185 l 1,6,7
 547 209 547 209 556.5 251 c 128,-1,8
 566 293 566 293 576 329 c 2,9,-1
 893 1434 l 1,10,-1
 1054 1434 l 1,11,-1
 1358 321 l 2,12,13
 1374 261 1374 261 1382 187 c 1,14,-1
 1386 187 l 1,15,16
 1389 230 1389 230 1413 325 c 2,17,-1
 1708 1434 l 1,18,-1
 1887 1434 l 1,19,-1
 1482 0 l 1,20,-1
 1285 0 l 1,21,-1
 990 1053 l 2,22,23
 982 1083 982 1083 975 1124.5 c 128,-1,24
 968 1166 968 1166 967 1199 c 1,25,-1
 963 1199 l 1,26,27
 957 1128 957 1128 937 1055 c 2,28,-1
 640 0 l 1,29,-1
 445 0 l 1,30,-1
 25 1434 l 1,0,-1
EndSplineSet
Validated: 1
EndChar

StartChar: Wacute
Encoding: 7810 7810 102
Width: 1913
GlyphClass: 2
Flags: W
AnchorPoint: "Anchor-3" 0 0 basechar 0
AnchorPoint: "Anchor-2" 978 1926 basechar 0
AnchorPoint: "Anchor-1" 957 0 basechar 0
AnchorPoint: "Anchor-0" 0 0 basechar 0
LayerCount: 2
Back
Fore
SplineSet
1104 1796 m 1,0,-1
 1320 1796 l 1,1,-1
 1058 1598 l 1,2,-1
 881 1598 l 1,3,-1
 1104 1796 l 1,0,-1
25 1434 m 1,4,-1
 208 1434 l 1,5,-1
 515 329 l 2,6,7
 524 298 524 298 531 257 c 128,-1,8
 538 216 538 216 539 185 c 1,9,-1
 544 185 l 1,10,11
 547 209 547 209 556.5 251 c 128,-1,12
 566 293 566 293 576 329 c 2,13,-1
 893 1434 l 1,14,-1
 1054 1434 l 1,15,-1
 1358 321 l 2,16,17
 1374 261 1374 261 1382 187 c 1,18,-1
 1386 187 l 1,19,20
 1389 230 1389 230 1413 325 c 2,21,-1
 1708 1434 l 1,22,-1
 1887 1434 l 1,23,-1
 1482 0 l 1,24,-1
 1285 0 l 1,25,-1
 990 1053 l 2,26,27
 982 1083 982 1083 975 1124.5 c 128,-1,28
 968 1166 968 1166 967 1199 c 1,29,-1
 963 1199 l 1,30,31
 957 1128 957 1128 937 1055 c 2,32,-1
 640 0 l 1,33,-1
 445 0 l 1,34,-1
 25 1434 l 1,4,-1
EndSplineSet
Validated: 1
EndChar

StartChar: Wcircumflex
Encoding: 372 372 103
Width: 1913
GlyphClass: 2
Flags: W
AnchorPoint: "Anchor-3" 0 0 basechar 0
AnchorPoint: "Anchor-2" 969 1930 basechar 0
AnchorPoint: "Anchor-1" 957 0 basechar 0
AnchorPoint: "Anchor-0" 0 0 basechar 0
LayerCount: 2
Back
Fore
SplineSet
913 1800 m 1,0,-1
 1046 1800 l 1,1,-1
 1322 1566 l 1,2,-1
 1130 1566 l 1,3,-1
 976 1687 l 1,4,-1
 821 1566 l 1,5,-1
 638 1566 l 1,6,-1
 913 1800 l 1,0,-1
25 1434 m 1,7,-1
 208 1434 l 1,8,-1
 515 329 l 2,9,10
 524 298 524 298 531 257 c 128,-1,11
 538 216 538 216 539 185 c 1,12,-1
 544 185 l 1,13,14
 547 209 547 209 556.5 251 c 128,-1,15
 566 293 566 293 576 329 c 2,16,-1
 893 1434 l 1,17,-1
 1054 1434 l 1,18,-1
 1358 321 l 2,19,20
 1374 261 1374 261 1382 187 c 1,21,-1
 1386 187 l 1,22,23
 1389 230 1389 230 1413 325 c 2,24,-1
 1708 1434 l 1,25,-1
 1887 1434 l 1,26,-1
 1482 0 l 1,27,-1
 1285 0 l 1,28,-1
 990 1053 l 2,29,30
 982 1083 982 1083 975 1124.5 c 128,-1,31
 968 1166 968 1166 967 1199 c 1,32,-1
 963 1199 l 1,33,34
 957 1128 957 1128 937 1055 c 2,35,-1
 640 0 l 1,36,-1
 445 0 l 1,37,-1
 25 1434 l 1,7,-1
EndSplineSet
Validated: 1
EndChar

StartChar: Wdieresis
Encoding: 7812 7812 104
Width: 1913
GlyphClass: 2
Flags: W
AnchorPoint: "Anchor-3" 0 0 basechar 0
AnchorPoint: "Anchor-2" 969 1795 basechar 0
AnchorPoint: "Anchor-1" 957 0 basechar 0
AnchorPoint: "Anchor-0" 0 0 basechar 0
LayerCount: 2
Back
Fore
SplineSet
715 1563.5 m 128,-1,1
 687 1580 687 1580 670.5 1607.5 c 128,-1,2
 654 1635 654 1635 654 1667 c 0,3,4
 654 1718 654 1718 688.5 1752 c 128,-1,5
 723 1786 723 1786 773 1786 c 256,6,7
 823 1786 823 1786 859 1751.5 c 128,-1,8
 895 1717 895 1717 895 1667 c 0,9,10
 895 1635 895 1635 878.5 1607 c 128,-1,11
 862 1579 862 1579 835 1563 c 128,-1,12
 808 1547 808 1547 776 1547 c 0,13,0
 743 1547 743 1547 715 1563.5 c 128,-1,1
1076 1581.5 m 128,-1,15
 1041 1616 1041 1616 1041 1667 c 256,16,17
 1041 1718 1041 1718 1075 1752 c 128,-1,18
 1109 1786 1109 1786 1158 1786 c 0,19,20
 1208 1786 1208 1786 1243.5 1751.5 c 128,-1,21
 1279 1717 1279 1717 1279 1667 c 256,22,23
 1279 1617 1279 1617 1245 1582 c 128,-1,24
 1211 1547 1211 1547 1160 1547 c 0,25,14
 1111 1547 1111 1547 1076 1581.5 c 128,-1,15
25 1434 m 1,26,-1
 208 1434 l 1,27,-1
 515 329 l 2,28,29
 524 298 524 298 531 257 c 128,-1,30
 538 216 538 216 539 185 c 1,31,-1
 544 185 l 1,32,33
 547 209 547 209 556.5 251 c 128,-1,34
 566 293 566 293 576 329 c 2,35,-1
 893 1434 l 1,36,-1
 1054 1434 l 1,37,-1
 1358 321 l 2,38,39
 1374 261 1374 261 1382 187 c 1,40,-1
 1386 187 l 1,41,42
 1389 230 1389 230 1413 325 c 2,43,-1
 1708 1434 l 1,44,-1
 1887 1434 l 1,45,-1
 1482 0 l 1,46,-1
 1285 0 l 1,47,-1
 990 1053 l 2,48,49
 982 1083 982 1083 975 1124.5 c 128,-1,50
 968 1166 968 1166 967 1199 c 1,51,-1
 963 1199 l 1,52,53
 957 1128 957 1128 937 1055 c 2,54,-1
 640 0 l 1,55,-1
 445 0 l 1,56,-1
 25 1434 l 1,26,-1
EndSplineSet
Validated: 1
EndChar

StartChar: Wgrave
Encoding: 7808 7808 105
Width: 1913
GlyphClass: 2
Flags: W
AnchorPoint: "Anchor-3" 0 0 basechar 0
AnchorPoint: "Anchor-2" 834 1926 basechar 0
AnchorPoint: "Anchor-1" 957 0 basechar 0
AnchorPoint: "Anchor-0" 0 0 basechar 0
LayerCount: 2
Back
Fore
SplineSet
647 1794 m 1,0,-1
 845 1794 l 1,1,-1
 1046 1566 l 1,2,-1
 889 1566 l 1,3,-1
 647 1794 l 1,0,-1
25 1434 m 1,4,-1
 208 1434 l 1,5,-1
 515 329 l 2,6,7
 524 298 524 298 531 257 c 128,-1,8
 538 216 538 216 539 185 c 1,9,-1
 544 185 l 1,10,11
 547 209 547 209 556.5 251 c 128,-1,12
 566 293 566 293 576 329 c 2,13,-1
 893 1434 l 1,14,-1
 1054 1434 l 1,15,-1
 1358 321 l 2,16,17
 1374 261 1374 261 1382 187 c 1,18,-1
 1386 187 l 1,19,20
 1389 230 1389 230 1413 325 c 2,21,-1
 1708 1434 l 1,22,-1
 1887 1434 l 1,23,-1
 1482 0 l 1,24,-1
 1285 0 l 1,25,-1
 990 1053 l 2,26,27
 982 1083 982 1083 975 1124.5 c 128,-1,28
 968 1166 968 1166 967 1199 c 1,29,-1
 963 1199 l 1,30,31
 957 1128 957 1128 937 1055 c 2,32,-1
 640 0 l 1,33,-1
 445 0 l 1,34,-1
 25 1434 l 1,4,-1
EndSplineSet
Validated: 1
EndChar

StartChar: X
Encoding: 88 88 106
Width: 1208
GlyphClass: 2
Flags: W
AnchorPoint: "Anchor-3" 0 0 basechar 0
AnchorPoint: "Anchor-2" 604 1434 basechar 0
AnchorPoint: "Anchor-1" 604 0 basechar 0
AnchorPoint: "Anchor-0" 0 0 basechar 0
LayerCount: 2
Back
Fore
SplineSet
507 723 m 1,0,-1
 65 1436 l 1,1,-1
 269 1436 l 1,2,-1
 564 930 l 2,3,4
 574 913 574 913 589 882.5 c 128,-1,5
 604 852 604 852 614 828 c 1,6,-1
 618 828 l 1,7,8
 660 910 660 910 674 932 c 2,9,-1
 981 1434 l 1,10,-1
 1172 1434 l 1,11,-1
 721 723 l 1,12,-1
 1181 0 l 1,13,-1
 978 0 l 1,14,-1
 646 552 l 2,15,16
 638 566 638 566 628.5 586 c 128,-1,17
 619 606 619 606 612 624 c 1,18,-1
 608 624 l 1,19,-1
 573 553 l 1,20,-1
 231 0 l 1,21,-1
 27 0 l 1,22,-1
 507 723 l 1,0,-1
EndSplineSet
Validated: 1
EndChar

StartChar: Y
Encoding: 89 89 107
Width: 1132
GlyphClass: 2
Flags: W
AnchorPoint: "Anchor-3" 0 0 basechar 0
AnchorPoint: "Anchor-2" 566 1354 basechar 0
AnchorPoint: "Anchor-1" 566 0 basechar 0
AnchorPoint: "Anchor-0" 0 0 basechar 0
LayerCount: 2
Back
Fore
SplineSet
480 526 m 1,0,-1
 19 1434 l 1,1,-1
 207 1434 l 1,2,-1
 531 781 l 2,3,4
 537 768 537 768 547 742.5 c 128,-1,5
 557 717 557 717 566 693 c 1,6,-1
 569 693 l 1,7,8
 578 726 578 726 606 781 c 2,9,-1
 945 1434 l 1,10,-1
 1121 1434 l 1,11,-1
 648 530 l 1,12,-1
 648 0 l 1,13,-1
 480 0 l 1,14,-1
 480 526 l 1,0,-1
EndSplineSet
Validated: 1
EndChar

StartChar: Yacute
Encoding: 221 221 108
Width: 1132
GlyphClass: 2
Flags: W
AnchorPoint: "Anchor-3" 0 0 basechar 0
AnchorPoint: "Anchor-2" 577 1926 basechar 0
AnchorPoint: "Anchor-1" 566 0 basechar 0
AnchorPoint: "Anchor-0" 0 0 basechar 0
LayerCount: 2
Back
Fore
SplineSet
703 1796 m 1,0,-1
 919 1796 l 1,1,-1
 657 1598 l 1,2,-1
 480 1598 l 1,3,-1
 703 1796 l 1,0,-1
480 526 m 1,4,-1
 19 1434 l 1,5,-1
 207 1434 l 1,6,-1
 531 781 l 2,7,8
 537 768 537 768 547 742.5 c 128,-1,9
 557 717 557 717 566 693 c 1,10,-1
 569 693 l 1,11,12
 578 726 578 726 606 781 c 2,13,-1
 945 1434 l 1,14,-1
 1121 1434 l 1,15,-1
 648 530 l 1,16,-1
 648 0 l 1,17,-1
 480 0 l 1,18,-1
 480 526 l 1,4,-1
EndSplineSet
Validated: 1
EndChar

StartChar: Ycircumflex
Encoding: 374 374 109
Width: 1132
GlyphClass: 2
Flags: W
AnchorPoint: "Anchor-3" 0 0 basechar 0
AnchorPoint: "Anchor-2" 568 1930 basechar 0
AnchorPoint: "Anchor-1" 566 0 basechar 0
AnchorPoint: "Anchor-0" 0 0 basechar 0
LayerCount: 2
Back
Fore
SplineSet
512 1800 m 1,0,-1
 645 1800 l 1,1,-1
 921 1566 l 1,2,-1
 729 1566 l 1,3,-1
 575 1687 l 1,4,-1
 420 1566 l 1,5,-1
 237 1566 l 1,6,-1
 512 1800 l 1,0,-1
480 526 m 1,7,-1
 19 1434 l 1,8,-1
 207 1434 l 1,9,-1
 531 781 l 2,10,11
 537 768 537 768 547 742.5 c 128,-1,12
 557 717 557 717 566 693 c 1,13,-1
 569 693 l 1,14,15
 578 726 578 726 606 781 c 2,16,-1
 945 1434 l 1,17,-1
 1121 1434 l 1,18,-1
 648 530 l 1,19,-1
 648 0 l 1,20,-1
 480 0 l 1,21,-1
 480 526 l 1,7,-1
EndSplineSet
Validated: 1
EndChar

StartChar: Ydieresis
Encoding: 376 376 110
Width: 1132
GlyphClass: 2
Flags: W
AnchorPoint: "Anchor-3" 0 0 basechar 0
AnchorPoint: "Anchor-2" 568 1795 basechar 0
AnchorPoint: "Anchor-1" 566 0 basechar 0
AnchorPoint: "Anchor-0" 0 0 basechar 0
LayerCount: 2
Back
Fore
SplineSet
314 1563.5 m 128,-1,1
 286 1580 286 1580 269.5 1607.5 c 128,-1,2
 253 1635 253 1635 253 1667 c 0,3,4
 253 1718 253 1718 287.5 1752 c 128,-1,5
 322 1786 322 1786 372 1786 c 256,6,7
 422 1786 422 1786 458 1751.5 c 128,-1,8
 494 1717 494 1717 494 1667 c 0,9,10
 494 1635 494 1635 477.5 1607 c 128,-1,11
 461 1579 461 1579 434 1563 c 128,-1,12
 407 1547 407 1547 375 1547 c 0,13,0
 342 1547 342 1547 314 1563.5 c 128,-1,1
675 1581.5 m 128,-1,15
 640 1616 640 1616 640 1667 c 256,16,17
 640 1718 640 1718 674 1752 c 128,-1,18
 708 1786 708 1786 757 1786 c 0,19,20
 807 1786 807 1786 842.5 1751.5 c 128,-1,21
 878 1717 878 1717 878 1667 c 256,22,23
 878 1617 878 1617 844 1582 c 128,-1,24
 810 1547 810 1547 759 1547 c 0,25,14
 710 1547 710 1547 675 1581.5 c 128,-1,15
480 526 m 1,26,-1
 19 1434 l 1,27,-1
 207 1434 l 1,28,-1
 531 781 l 2,29,30
 537 768 537 768 547 742.5 c 128,-1,31
 557 717 557 717 566 693 c 1,32,-1
 569 693 l 1,33,34
 578 726 578 726 606 781 c 2,35,-1
 945 1434 l 1,36,-1
 1121 1434 l 1,37,-1
 648 530 l 1,38,-1
 648 0 l 1,39,-1
 480 0 l 1,40,-1
 480 526 l 1,26,-1
EndSplineSet
Validated: 1
EndChar

StartChar: Ygrave
Encoding: 7922 7922 111
Width: 1132
GlyphClass: 2
Flags: W
AnchorPoint: "Anchor-3" 0 0 basechar 0
AnchorPoint: "Anchor-2" 433 1926 basechar 0
AnchorPoint: "Anchor-1" 566 0 basechar 0
AnchorPoint: "Anchor-0" 0 0 basechar 0
LayerCount: 2
Back
Fore
SplineSet
246 1794 m 1,0,-1
 444 1794 l 1,1,-1
 645 1566 l 1,2,-1
 488 1566 l 1,3,-1
 246 1794 l 1,0,-1
480 526 m 1,4,-1
 19 1434 l 1,5,-1
 207 1434 l 1,6,-1
 531 781 l 2,7,8
 537 768 537 768 547 742.5 c 128,-1,9
 557 717 557 717 566 693 c 1,10,-1
 569 693 l 1,11,12
 578 726 578 726 606 781 c 2,13,-1
 945 1434 l 1,14,-1
 1121 1434 l 1,15,-1
 648 530 l 1,16,-1
 648 0 l 1,17,-1
 480 0 l 1,18,-1
 480 526 l 1,4,-1
EndSplineSet
Validated: 1
EndChar

StartChar: Z
Encoding: 90 90 112
Width: 1168
GlyphClass: 2
Flags: W
AnchorPoint: "Anchor-3" 0 0 basechar 0
AnchorPoint: "Anchor-2" 584 1354 basechar 0
AnchorPoint: "Anchor-1" 584 0 basechar 0
AnchorPoint: "Anchor-0" 0 0 basechar 0
LayerCount: 2
Back
Fore
SplineSet
53 47 m 1,0,-1
 816 1282 l 1,1,-1
 80 1282 l 1,2,-1
 80 1434 l 1,3,-1
 1084 1434 l 1,4,-1
 1084 1394 l 1,5,-1
 314 152 l 1,6,-1
 1104 152 l 1,7,-1
 1104 0 l 1,8,-1
 53 0 l 1,9,-1
 53 47 l 1,0,-1
EndSplineSet
Validated: 1
EndChar

StartChar: Zacute
Encoding: 377 377 113
Width: 1168
GlyphClass: 2
Flags: W
AnchorPoint: "Anchor-3" 0 0 basechar 0
AnchorPoint: "Anchor-2" 595 1926 basechar 0
AnchorPoint: "Anchor-1" 584 0 basechar 0
AnchorPoint: "Anchor-0" 0 0 basechar 0
LayerCount: 2
Back
Fore
SplineSet
721 1796 m 1,0,-1
 937 1796 l 1,1,-1
 675 1598 l 1,2,-1
 498 1598 l 1,3,-1
 721 1796 l 1,0,-1
53 47 m 1,4,-1
 816 1282 l 1,5,-1
 80 1282 l 1,6,-1
 80 1434 l 1,7,-1
 1084 1434 l 1,8,-1
 1084 1394 l 1,9,-1
 314 152 l 1,10,-1
 1104 152 l 1,11,-1
 1104 0 l 1,12,-1
 53 0 l 1,13,-1
 53 47 l 1,4,-1
EndSplineSet
Validated: 1
EndChar

StartChar: Zcaron
Encoding: 381 381 114
Width: 1168
GlyphClass: 2
Flags: W
AnchorPoint: "Anchor-3" 0 0 basechar 0
AnchorPoint: "Anchor-2" 586 1928 basechar 0
AnchorPoint: "Anchor-1" 584 0 basechar 0
AnchorPoint: "Anchor-0" 0 0 basechar 0
LayerCount: 2
Back
Fore
SplineSet
243 1802 m 1,0,-1
 418 1802 l 1,1,-1
 582 1668 l 1,2,-1
 746 1802 l 1,3,-1
 925 1802 l 1,4,-1
 651 1567 l 1,5,-1
 519 1567 l 1,6,-1
 243 1802 l 1,0,-1
53 47 m 1,7,-1
 816 1282 l 1,8,-1
 80 1282 l 1,9,-1
 80 1434 l 1,10,-1
 1084 1434 l 1,11,-1
 1084 1394 l 1,12,-1
 314 152 l 1,13,-1
 1104 152 l 1,14,-1
 1104 0 l 1,15,-1
 53 0 l 1,16,-1
 53 47 l 1,7,-1
EndSplineSet
Validated: 1
EndChar

StartChar: Zdotaccent
Encoding: 379 379 115
Width: 1168
GlyphClass: 2
Flags: W
AnchorPoint: "Anchor-3" 0 0 basechar 0
AnchorPoint: "Anchor-2" 586 1793 basechar 0
AnchorPoint: "Anchor-1" 584 0 basechar 0
AnchorPoint: "Anchor-0" 0 0 basechar 0
LayerCount: 2
Back
Fore
SplineSet
524.5 1578 m 128,-1,1
 497 1594 497 1594 480.5 1621.5 c 128,-1,2
 464 1649 464 1649 464 1682 c 0,3,4
 464 1730 464 1730 499.5 1764.5 c 128,-1,5
 535 1799 535 1799 584 1799 c 0,6,7
 634 1799 634 1799 668.5 1765.5 c 128,-1,8
 703 1732 703 1732 703 1682 c 256,9,10
 703 1632 703 1632 668.5 1597 c 128,-1,11
 634 1562 634 1562 584 1562 c 0,12,0
 552 1562 552 1562 524.5 1578 c 128,-1,1
53 47 m 1,13,-1
 816 1282 l 1,14,-1
 80 1282 l 1,15,-1
 80 1434 l 1,16,-1
 1084 1434 l 1,17,-1
 1084 1394 l 1,18,-1
 314 152 l 1,19,-1
 1104 152 l 1,20,-1
 1104 0 l 1,21,-1
 53 0 l 1,22,-1
 53 47 l 1,13,-1
EndSplineSet
Validated: 1
EndChar

StartChar: a
Encoding: 97 97 116
Width: 1035
GlyphClass: 2
Flags: W
HStem: -27 147.095<298.423 620.896> 445 120<320.793 733.715> 817 139<243.769 699.023> 837 142<266.939 680.977>
VStem: 91 170<175.103 386.805> 736 164<227.658 428.735 526 784.507>
AnchorPoint: "Anchor-3" 0 0 basechar 0
AnchorPoint: "Anchor-2" 521 974 basechar 0
AnchorPoint: "Anchor-1" 521 0 basechar 0
AnchorPoint: "Anchor-0" 842 0 basechar 0
LayerCount: 2
Back
Fore
SplineSet
775 -18 m 1,0,1
 760 159 l 1,2,3
 745 112 745 112 691.5 65.5 c 0,4,5
 642 21 642 21 575 -3 c 128,-1,6
 508 -27 508 -27 438 -27 c 0,7,8
 339 -27 339 -27 260.5 4 c 128,-1,9
 182 35 182 35 136.5 100 c 128,-1,10
 91 165 91 165 91 266 c 0,11,12
 91 365 91 365 144 440 c 128,-1,13
 197 515 197 515 268.5 547 c 0,14,15
 372 593 372 593 471 597 c 0,16,17
 652 604 652 604 741 581 c 1,18,-1
 739 612 l 2,19,20
 731 740 731 740 696 781 c 0,21,22
 659 825 659 825 514 831 c 0,23,24
 407 835 407 835 302 818 c 0,25,-1
 212 799 l 1,26,-1
 188 949 l 1,27,28
 276 976 276 976 385 984 c 0,29,30
 452 989 452 989 532.5 984 c 0,31,32
 738 973 738 973 811.4921875 895.5078125 c 0,33,34
 883.877454662 819.129305732 883.877454662 819.129305732 891 614 c 2,35,-1
 901 326 l 2,36,37
 907 140 907 140 924 -3 c 1,38,-1
 775 -18 l 1,0,1
593 150 m 0,39,40
 641 172 641 172 679 206 c 0,41,42
 738.011223131 259.010081796 738.011223131 259.010081796 739 348 c 2,43,-1
 740 438 l 1,44,45
 727 439 727 439 677.25 447.5 c 0,46,47
 618 457 618 457 505 455 c 0,48,49
 374 452 374 452 318 401.5 c 128,-1,50
 262 351 262 351 261 282 c 128,-1,51
 260 213 260 213 290 178 c 0,52,53
 317 146 317 146 352 134 c 0,54,55
 403 117 403 117 461.70703125 120.094726562 c 0,56,57
 538 125 538 125 593 150 c 0,39,40
EndSplineSet
EndChar

StartChar: aogonek
Encoding: 261 261 123
Width: 1042
GlyphClass: 2
Flags: W
AnchorPoint: "Anchor-3" 0 0 basechar 0
AnchorPoint: "Anchor-2" 521 974 basechar 0
AnchorPoint: "Anchor-1" 521 0 basechar 0
AnchorPoint: "Anchor-0" 938 10 basechar 0
LayerCount: 2
Back
Fore
SplineSet
962 -260 m 1,1,-1
 977 -387 l 1,2,3
 942 -400 942 -400 880 -400 c 0,4,5
 682 -400 682 -400 682 -230 c 0,6,7
 682 -119 682 -119 824 -5 c 1,8,9
 780 82 780 82 759 159 c 1,10,11
 742 109 742 109 693 67 c 128,-1,12
 644 25 644 25 576 1 c 128,-1,13
 508 -23 508 -23 438 -23 c 0,14,15
 339 -23 339 -23 260.5 8 c 128,-1,16
 182 39 182 39 136.5 104 c 128,-1,17
 91 169 91 169 91 266 c 0,18,19
 91 360 91 360 138 429.5 c 128,-1,20
 185 499 185 499 271.5 536 c 128,-1,21
 358 573 358 573 473 573 c 0,22,23
 611 573 611 573 736 502 c 1,24,-1
 736 604 l 2,25,26
 736 724 736 724 680 779 c 128,-1,27
 624 834 624 834 514 834 c 0,28,29
 472 834 472 834 393.5 827.5 c 128,-1,30
 315 821 315 821 247 810 c 1,31,-1
 219 974 l 1,32,33
 341 988 341 988 410.5 994 c 128,-1,34
 480 1000 480 1000 527 1000 c 0,35,36
 709 1000 709 1000 803 904 c 128,-1,37
 897 808 897 808 898 618 c 2,38,-1
 900 330 l 2,39,40
 901 183 901 183 987 28 c 1,41,42
 818 -107 818 -107 818 -183 c 0,43,44
 818 -273 818 -273 906 -273 c 0,45,0
 937 -273 937 -273 962 -260 c 1,1,-1
612 157 m 128,-1,47
 671 184 671 184 703.5 234 c 128,-1,48
 736 284 736 284 736 349 c 2,49,-1
 736 358 l 1,50,51
 686 386 686 386 625 401.5 c 128,-1,52
 564 417 564 417 498 417 c 0,53,54
 391 417 391 417 327 379.5 c 128,-1,55
 263 342 263 342 263 276 c 0,56,57
 263 233 263 233 289.5 200 c 128,-1,58
 316 167 316 167 364 148.5 c 128,-1,59
 412 130 412 130 475 130 c 0,60,46
 553 130 553 130 612 157 c 128,-1,47
EndSplineSet
Validated: 1
EndChar

StartChar: ae
Encoding: 230 230 126
Width: 1704
GlyphClass: 2
Flags: W
AnchorPoint: "Anchor-3" 0 0 basechar 0
AnchorPoint: "Anchor-2" 841 974 basechar 0
AnchorPoint: "Anchor-1" 841 0 basechar 0
AnchorPoint: "Anchor-0" 938 10 basechar 0
LayerCount: 2
Back
Fore
SplineSet
1410 143 m 128,-1,1
 1485 158 1485 158 1560 187 c 1,2,-1
 1611 47 l 1,3,4
 1540 17 1540 17 1431 -3 c 128,-1,5
 1322 -23 1322 -23 1233 -23 c 0,6,7
 1077 -23 1077 -23 966 32.5 c 128,-1,8
 855 88 855 88 797 201 c 1,9,10
 795 141 795 141 742.5 89.5 c 128,-1,11
 690 38 690 38 607.5 7.5 c 128,-1,12
 525 -23 525 -23 438 -23 c 0,13,14
 339 -23 339 -23 260.5 8 c 128,-1,15
 182 39 182 39 136.5 104 c 128,-1,16
 91 169 91 169 91 266 c 0,17,18
 91 360 91 360 138 429.5 c 128,-1,19
 185 499 185 499 271.5 536 c 128,-1,20
 358 573 358 573 473 573 c 0,21,22
 610 573 610 573 737 502 c 1,23,24
 737 524 737 524 738 535 c 2,25,-1
 738 604 l 2,26,27
 738 724 738 724 682 779 c 128,-1,28
 626 834 626 834 516 834 c 0,29,30
 474 834 474 834 395.5 827.5 c 128,-1,31
 317 821 317 821 249 810 c 1,32,-1
 221 974 l 1,33,34
 343 988 343 988 412.5 994 c 128,-1,35
 482 1000 482 1000 529 1000 c 0,36,37
 757 1000 757 1000 846 851 c 1,38,39
 908 926 908 926 1004 965 c 128,-1,40
 1100 1004 1100 1004 1223 1004 c 0,41,42
 1358 1004 1358 1004 1449 941.5 c 128,-1,43
 1540 879 1540 879 1584 778.5 c 128,-1,44
 1628 678 1628 678 1628 563 c 0,45,46
 1628 484 1628 484 1606 405 c 1,47,-1
 910 400 l 1,48,49
 932 265 932 265 1022 196.5 c 128,-1,50
 1112 128 1112 128 1268 128 c 0,51,0
 1335 128 1335 128 1410 143 c 128,-1,1
987 765 m 128,-1,53
 915 683 915 683 905 544 c 1,54,-1
 1446 549 l 1,55,56
 1448 573 1448 573 1448 585 c 0,57,58
 1448 653 1448 653 1423 712.5 c 128,-1,59
 1398 772 1398 772 1342.5 809.5 c 128,-1,60
 1287 847 1287 847 1201 847 c 0,61,52
 1059 847 1059 847 987 765 c 128,-1,53
664.5 175.5 m 128,-1,63
 740 221 740 221 760 299 c 1,64,65
 750 338 750 338 747 361 c 1,66,67
 697 392 697 392 632.5 409.5 c 128,-1,68
 568 427 568 427 498 427 c 0,69,70
 392 427 392 427 327.5 386.5 c 128,-1,71
 263 346 263 346 263 276 c 0,72,73
 263 233 263 233 289.5 200 c 128,-1,74
 316 167 316 167 364 148.5 c 128,-1,75
 412 130 412 130 475 130 c 0,76,62
 589 130 589 130 664.5 175.5 c 128,-1,63
EndSplineSet
Validated: 1
EndChar

StartChar: b
Encoding: 98 98 127
Width: 1204
GlyphClass: 2
Flags: W
AnchorPoint: "Anchor-3" 0 0 basechar 0
AnchorPoint: "Anchor-2" 602 974 basechar 0
AnchorPoint: "Anchor-1" 602 0 basechar 0
AnchorPoint: "Anchor-0" 0 0 basechar 0
LayerCount: 2
Back
Fore
SplineSet
912.5 939.5 m 128,-1,1
 1011 879 1011 879 1060 768.5 c 128,-1,2
 1109 658 1109 658 1109 509 c 0,3,4
 1109 346 1109 346 1055 226.5 c 128,-1,5
 1001 107 1001 107 894.5 42 c 128,-1,6
 788 -23 788 -23 635 -23 c 0,7,8
 403 -23 403 -23 335 144 c 1,9,-1
 288 0 l 1,10,-1
 169 0 l 1,11,-1
 167 1516 l 1,12,-1
 332 1516 l 1,13,-1
 332 855 l 1,14,15
 467 1000 467 1000 671 1000 c 0,16,0
 814 1000 814 1000 912.5 939.5 c 128,-1,1
793.5 170 m 128,-1,18
 858 210 858 210 895.5 295.5 c 128,-1,19
 933 381 933 381 933 511 c 0,20,21
 933 606 933 606 900.5 679.5 c 128,-1,22
 868 753 868 753 804 794.5 c 128,-1,23
 740 836 740 836 651 836 c 0,24,25
 551 836 551 836 484.5 815.5 c 128,-1,26
 418 795 418 795 332 736 c 1,27,-1
 332 548 l 1,28,-1
 333 418 l 2,29,30
 333 308 333 308 384.5 243.5 c 128,-1,31
 436 179 436 179 507 154.5 c 128,-1,32
 578 130 578 130 647 130 c 0,33,17
 729 130 729 130 793.5 170 c 128,-1,18
EndSplineSet
Validated: 1
EndChar

StartChar: c
Encoding: 99 99 128
Width: 946
GlyphClass: 2
Flags: W
AnchorPoint: "Anchor-3" 0 0 basechar 0
AnchorPoint: "Anchor-2" 473 974 basechar 0
AnchorPoint: "Anchor-1" 573 0 basechar 0
AnchorPoint: "Anchor-0" 0 0 basechar 0
LayerCount: 2
Back
Fore
SplineSet
318 38 m 128,-1,1
 209 99 209 99 152 213.5 c 128,-1,2
 95 328 95 328 95 485 c 0,3,4
 95 641 95 641 153 757 c 128,-1,5
 211 873 211 873 323 936 c 128,-1,6
 435 999 435 999 592 998 c 0,7,8
 674 999 674 999 753 983.5 c 128,-1,9
 832 968 832 968 887 942 c 1,10,-1
 847 776 l 1,11,12
 725 831 725 831 593 831 c 0,13,14
 426 831 426 831 351 745.5 c 128,-1,15
 276 660 276 660 276 490 c 0,16,17
 276 312 276 312 361.5 225 c 128,-1,18
 447 138 447 138 611 138 c 0,19,20
 678 138 678 138 730.5 151.5 c 128,-1,21
 783 165 783 165 869 197 c 1,22,-1
 920 45 l 1,23,24
 836 13 836 13 747 -5 c 128,-1,25
 658 -23 658 -23 578 -23 c 0,26,0
 427 -23 427 -23 318 38 c 128,-1,1
EndSplineSet
Validated: 33
EndChar

StartChar: ccedilla
Encoding: 231 231 131
Width: 946
GlyphClass: 2
Flags: W
AnchorPoint: "Anchor-3" 0 0 basechar 0
AnchorPoint: "Anchor-2" 473 974 basechar 0
AnchorPoint: "Anchor-1" 575 -432 basechar 0
AnchorPoint: "Anchor-0" 0 0 basechar 0
LayerCount: 2
Back
Fore
SplineSet
766.5 -144 m 128,-1,1
 820 -184 820 -184 820 -256 c 0,2,3
 820 -432 820 -432 545 -432 c 0,4,5
 516 -432 516 -432 480 -430 c 1,6,-1
 480 -320 l 1,7,8
 523 -326 523 -326 550 -326 c 0,9,10
 671 -326 671 -326 671 -266 c 0,11,12
 671 -204 671 -204 562 -204 c 0,13,14
 549 -204 549 -204 521 -208 c 1,15,-1
 521 -21 l 1,16,17
 387 -10 387 -10 291 54 c 128,-1,18
 195 118 195 118 145 228 c 128,-1,19
 95 338 95 338 95 485 c 0,20,21
 95 641 95 641 153 757 c 128,-1,22
 211 873 211 873 323 936 c 128,-1,23
 435 999 435 999 592 998 c 0,24,25
 674 999 674 999 753 983.5 c 128,-1,26
 832 968 832 968 887 942 c 1,27,-1
 847 776 l 1,28,29
 725 831 725 831 593 831 c 0,30,31
 426 831 426 831 351 745.5 c 128,-1,32
 276 660 276 660 276 490 c 0,33,34
 276 312 276 312 361.5 225 c 128,-1,35
 447 138 447 138 611 138 c 0,36,37
 678 138 678 138 730.5 151.5 c 128,-1,38
 783 165 783 165 869 197 c 1,39,-1
 920 45 l 1,40,41
 767 -13 767 -13 620 -22 c 1,42,-1
 620 -104 l 1,43,0
 713 -104 713 -104 766.5 -144 c 128,-1,1
EndSplineSet
Validated: 33
EndChar

StartChar: d
Encoding: 100 100 133
Width: 1206
GlyphClass: 2
Flags: W
AnchorPoint: "Anchor-3" 1186 974 basechar 0
AnchorPoint: "Anchor-2" 603 974 basechar 0
AnchorPoint: "Anchor-1" 603 0 basechar 0
AnchorPoint: "Anchor-0" 0 0 basechar 0
LayerCount: 2
Back
Fore
SplineSet
914 -16 m 1,0,1
 905 84 905 84 897 168 c 1,2,3
 854 76 854 76 764 26.5 c 128,-1,4
 674 -23 674 -23 537 -23 c 0,5,6
 406 -23 406 -23 307 38.5 c 128,-1,7
 208 100 208 100 153.5 212 c 128,-1,8
 99 324 99 324 99 472 c 0,9,10
 99 629 99 629 160 748.5 c 128,-1,11
 221 868 221 868 332.5 934 c 128,-1,12
 444 1000 444 1000 591 1000 c 0,13,14
 742 1000 742 1000 876 896 c 1,15,-1
 876 1517 l 1,16,-1
 1040 1517 l 1,17,-1
 1036 330 l 2,18,19
 1036 211 1036 211 1061 -1 c 1,20,-1
 914 -16 l 1,0,1
799.5 217.5 m 128,-1,22
 876 301 876 301 876 453 c 2,23,-1
 876 753 l 1,24,25
 814 807 814 807 742 829 c 128,-1,26
 670 851 670 851 604 851 c 0,27,28
 503 851 503 851 429 806.5 c 128,-1,29
 355 762 355 762 315 679.5 c 128,-1,30
 275 597 275 597 275 483 c 0,31,32
 275 397 275 397 307 317 c 128,-1,33
 339 237 339 237 407 185.5 c 128,-1,34
 475 134 475 134 577 134 c 0,35,21
 723 134 723 134 799.5 217.5 c 128,-1,22
EndSplineSet
Validated: 1
EndChar

StartChar: eth
Encoding: 240 240 134
Width: 1145
GlyphClass: 2
Flags: W
LayerCount: 2
Back
Fore
SplineSet
315 41 m 128,-1,1
 209 104 209 104 152.5 221.5 c 128,-1,2
 96 339 96 339 96 500 c 256,3,4
 96 661 96 661 155 785 c 128,-1,5
 214 909 214 909 323 977.5 c 128,-1,6
 432 1046 432 1046 576 1046 c 0,7,8
 699 1046 699 1046 786 968 c 1,9,-1
 790 971 l 1,10,11
 699 1134 699 1134 592 1237 c 1,12,-1
 293 1086 l 1,13,-1
 242 1184 l 1,14,-1
 512 1315 l 1,15,16
 483 1341 483 1341 446 1368.5 c 128,-1,17
 409 1396 409 1396 403 1400 c 2,18,-1
 370 1424 l 1,19,-1
 479 1509 l 1,20,21
 542 1464 542 1464 641 1380 c 1,22,-1
 930 1524 l 1,23,-1
 985 1430 l 1,24,-1
 721 1300 l 1,25,26
 1048 992 1048 992 1048 526 c 0,27,28
 1048 366 1048 366 989.5 242 c 128,-1,29
 931 118 931 118 822 48 c 128,-1,30
 713 -22 713 -22 568 -22 c 0,31,0
 421 -22 421 -22 315 41 c 128,-1,1
738 163 m 128,-1,33
 806 212 806 212 843 301.5 c 128,-1,34
 880 391 880 391 880 510 c 0,35,36
 880 910 880 910 582 910 c 0,37,38
 484 910 484 910 412.5 861 c 128,-1,39
 341 812 341 812 302.5 721 c 128,-1,40
 264 630 264 630 264 506 c 0,41,42
 264 386 264 386 301.5 297.5 c 128,-1,43
 339 209 339 209 409.5 161.5 c 128,-1,44
 480 114 480 114 578 114 c 0,45,32
 670 114 670 114 738 163 c 128,-1,33
EndSplineSet
Validated: 1
EndChar

StartChar: dcroat
Encoding: 273 273 136
Width: 1206
GlyphClass: 2
Flags: W
AnchorPoint: "Anchor-3" 1186 974 basechar 0
AnchorPoint: "Anchor-2" 603 974 basechar 0
AnchorPoint: "Anchor-1" 603 0 basechar 0
AnchorPoint: "Anchor-0" 0 0 basechar 0
LayerCount: 2
Back
Fore
SplineSet
1040 1184 m 1,0,-1
 1040 330 l 2,1,2
 1041 183 1041 183 1127 28 c 1,3,-1
 982 -39 l 1,4,5
 925 64 925 64 898 163 c 1,6,7
 855 71 855 71 764.5 24 c 128,-1,8
 674 -23 674 -23 537 -23 c 0,9,10
 406 -23 406 -23 307 38.5 c 128,-1,11
 208 100 208 100 153.5 212 c 128,-1,12
 99 324 99 324 99 472 c 0,13,14
 99 629 99 629 160 748.5 c 128,-1,15
 221 868 221 868 332.5 934 c 128,-1,16
 444 1000 444 1000 591 1000 c 0,17,18
 742 1000 742 1000 876 896 c 1,19,-1
 876 1184 l 1,20,-1
 576 1184 l 1,21,-1
 576 1329 l 1,22,-1
 876 1329 l 1,23,-1
 876 1517 l 1,24,-1
 1040 1517 l 1,25,-1
 1040 1329 l 1,26,-1
 1174 1329 l 1,27,-1
 1174 1184 l 1,28,-1
 1040 1184 l 1,0,-1
799.5 217.5 m 128,-1,30
 876 301 876 301 876 453 c 2,31,-1
 876 753 l 1,32,33
 814 807 814 807 742 829 c 128,-1,34
 670 851 670 851 604 851 c 0,35,36
 503 851 503 851 429 806.5 c 128,-1,37
 355 762 355 762 315 679.5 c 128,-1,38
 275 597 275 597 275 483 c 0,39,40
 275 397 275 397 307 317 c 128,-1,41
 339 237 339 237 407 185.5 c 128,-1,42
 475 134 475 134 577 134 c 0,43,29
 723 134 723 134 799.5 217.5 c 128,-1,30
EndSplineSet
Validated: 1
EndChar

StartChar: e
Encoding: 101 101 137
Width: 1071
GlyphClass: 2
Flags: W
AnchorPoint: "Anchor-3" 0 0 basechar 0
AnchorPoint: "Anchor-2" 536 974 basechar 0
AnchorPoint: "Anchor-1" 536 0 basechar 0
AnchorPoint: "Anchor-0" 964 10 basechar 0
LayerCount: 2
Back
Fore
SplineSet
769 143 m 128,-1,1
 844 158 844 158 919 187 c 1,2,-1
 970 47 l 1,3,4
 899 17 899 17 790 -3 c 128,-1,5
 681 -23 681 -23 592 -23 c 0,6,7
 356 -23 356 -23 226 103.5 c 128,-1,8
 96 230 96 230 96 493 c 0,9,10
 96 657 96 657 153.5 771.5 c 128,-1,11
 211 886 211 886 320 945 c 128,-1,12
 429 1004 429 1004 582 1004 c 0,13,14
 717 1004 717 1004 808 941.5 c 128,-1,15
 899 879 899 879 943 778.5 c 128,-1,16
 987 678 987 678 987 563 c 0,17,18
 987 484 987 484 965 405 c 1,19,-1
 269 400 l 1,20,21
 291 265 291 265 381 196.5 c 128,-1,22
 471 128 471 128 627 128 c 0,23,0
 694 128 694 128 769 143 c 128,-1,1
346 765 m 128,-1,25
 274 683 274 683 264 544 c 1,26,-1
 805 549 l 1,27,28
 807 573 807 573 807 585 c 0,29,30
 807 653 807 653 782 712.5 c 128,-1,31
 757 772 757 772 701.5 809.5 c 128,-1,32
 646 847 646 847 560 847 c 0,33,24
 418 847 418 847 346 765 c 128,-1,25
EndSplineSet
Validated: 1
EndChar

StartChar: eogonek
Encoding: 281 281 145
Width: 1071
GlyphClass: 2
Flags: W
AnchorPoint: "Anchor-3" 0 0 basechar 0
AnchorPoint: "Anchor-2" 536 974 basechar 0
AnchorPoint: "Anchor-1" 536 0 basechar 0
AnchorPoint: "Anchor-0" 964 10 basechar 0
LayerCount: 2
Back
Fore
SplineSet
933 -250 m 1,1,-1
 974 -365 l 1,2,3
 934 -400 934 -400 856 -400 c 0,4,5
 638 -400 638 -400 638 -230 c 0,6,7
 638 -120 638 -120 780 -5 c 1,8,9
 674 -23 674 -23 592 -23 c 0,10,11
 356 -23 356 -23 226 103.5 c 128,-1,12
 96 230 96 230 96 493 c 0,13,14
 96 657 96 657 153.5 771.5 c 128,-1,15
 211 886 211 886 320 945 c 128,-1,16
 429 1004 429 1004 582 1004 c 0,17,18
 717 1004 717 1004 808 941.5 c 128,-1,19
 899 879 899 879 943 778.5 c 128,-1,20
 987 678 987 678 987 563 c 0,21,22
 987 484 987 484 965 405 c 1,23,-1
 269 400 l 1,24,25
 291 265 291 265 381 196.5 c 128,-1,26
 471 128 471 128 627 128 c 0,27,28
 694 128 694 128 769 143 c 128,-1,29
 844 158 844 158 919 187 c 1,30,-1
 970 48 l 1,31,-1
 970 47 l 1,32,-1
 967 46 l 1,33,34
 774 -99 774 -99 774 -183 c 0,35,36
 774 -273 774 -273 882 -273 c 0,37,0
 916 -273 916 -273 933 -250 c 1,1,-1
346 765 m 128,-1,39
 274 683 274 683 264 544 c 1,40,-1
 805 549 l 1,41,42
 807 573 807 573 807 585 c 0,43,44
 807 653 807 653 782 712.5 c 128,-1,45
 757 772 757 772 701.5 809.5 c 128,-1,46
 646 847 646 847 560 847 c 0,47,38
 418 847 418 847 346 765 c 128,-1,39
EndSplineSet
Validated: 1
EndChar

StartChar: f
Encoding: 102 102 146
Width: 641
GlyphClass: 2
Flags: W
AnchorPoint: "Anchor-3" 0 0 basechar 0
AnchorPoint: "Anchor-2" 321 974 basechar 0
AnchorPoint: "Anchor-1" 321 0 basechar 0
AnchorPoint: "Anchor-0" 0 0 basechar 0
LayerCount: 2
Back
Fore
SplineSet
442.5 1345.5 m 128,-1,1
 413 1320 413 1320 402 1270.5 c 128,-1,2
 391 1221 391 1221 391 1141 c 2,3,-1
 391 975 l 1,4,-1
 630 976 l 1,5,-1
 630 831 l 1,6,-1
 391 831 l 1,7,-1
 391 2 l 1,8,-1
 227 2 l 1,9,-1
 227 831 l 1,10,-1
 52 831 l 1,11,-1
 52 974 l 1,12,-1
 227 975 l 1,13,-1
 227 1131 l 2,14,15
 227 1319 227 1319 290 1426.5 c 128,-1,16
 353 1534 353 1534 514 1534 c 0,17,18
 548 1534 548 1534 642 1524 c 2,19,-1
 684 1519 l 1,20,-1
 648 1359 l 1,21,22
 611 1363 611 1363 601 1364 c 0,23,24
 552 1371 552 1371 527 1371 c 0,25,0
 472 1371 472 1371 442.5 1345.5 c 128,-1,1
EndSplineSet
Validated: 1
EndChar

StartChar: g
Encoding: 103 103 147
Width: 1206
GlyphClass: 2
Flags: W
AnchorPoint: "Anchor-3" 0 0 basechar 0
AnchorPoint: "Anchor-2" 603 974 basechar 0
AnchorPoint: "Anchor-1" 603 0 basechar 0
AnchorPoint: "Anchor-0" 0 0 basechar 0
LayerCount: 2
Back
Fore
SplineSet
1040 974 m 1,0,-1
 1040 0 l 2,1,2
 1040 -246 1040 -246 865.5 -363 c 128,-1,3
 691 -480 691 -480 375 -482 c 1,4,-1
 356 -328 l 1,5,6
 547 -319 547 -319 660.5 -275.5 c 128,-1,7
 774 -232 774 -232 825 -151.5 c 128,-1,8
 876 -71 876 -71 876 55 c 2,9,-1
 876 123 l 1,10,11
 780 -23 780 -23 537 -23 c 0,12,13
 406 -23 406 -23 307 38.5 c 128,-1,14
 208 100 208 100 153.5 212 c 128,-1,15
 99 324 99 324 99 472 c 0,16,17
 99 629 99 629 160 748.5 c 128,-1,18
 221 868 221 868 332.5 934 c 128,-1,19
 444 1000 444 1000 591 1000 c 0,20,21
 751 1000 751 1000 895 880 c 1,22,-1
 917 974 l 5,23,-1
 1040 974 l 1,0,-1
877 452 m 1,24,-1
 877 752 l 1,25,26
 815 806 815 806 742.5 828.5 c 128,-1,27
 670 851 670 851 604 851 c 0,28,29
 503 851 503 851 429 806.5 c 128,-1,30
 355 762 355 762 315 679.5 c 128,-1,31
 275 597 275 597 275 483 c 0,32,33
 275 397 275 397 307 317 c 128,-1,34
 339 237 339 237 407 185.5 c 128,-1,35
 475 134 475 134 577 134 c 0,36,37
 723 134 723 134 799.5 217.5 c 128,-1,38
 876 301 876 301 876 453 c 1,39,-1
 877 452 l 1,24,-1
EndSplineSet
Validated: 1
EndChar

StartChar: h
Encoding: 104 104 151
Width: 1159
GlyphClass: 2
Flags: W
AnchorPoint: "Anchor-3" 0 0 basechar 0
AnchorPoint: "Anchor-2" 580 974 basechar 0
AnchorPoint: "Anchor-1" 580 0 basechar 0
AnchorPoint: "Anchor-0" 0 0 basechar 0
LayerCount: 2
Back
Fore
SplineSet
842 950 m 128,-1,1
 929 900 929 900 972.5 812 c 128,-1,2
 1016 724 1016 724 1016 610 c 2,3,-1
 1016 0 l 1,4,-1
 852 0 l 1,5,-1
 852 564 l 2,6,7
 852 687 852 687 799 765 c 128,-1,8
 746 843 746 843 626 843 c 0,9,10
 540 843 540 843 464 812.5 c 128,-1,11
 388 782 388 782 329 728 c 1,12,-1
 329 0 l 1,13,-1
 165 0 l 1,14,-1
 165 1517 l 1,15,-1
 329 1517 l 1,16,-1
 329 887 l 1,17,18
 444 1000 444 1000 627 1000 c 0,19,0
 755 1000 755 1000 842 950 c 128,-1,1
EndSplineSet
Validated: 1
EndChar

StartChar: hbar
Encoding: 295 295 152
Width: 1159
GlyphClass: 2
Flags: W
AnchorPoint: "Anchor-3" 0 0 basechar 0
AnchorPoint: "Anchor-2" 580 974 basechar 0
AnchorPoint: "Anchor-1" 580 0 basechar 0
AnchorPoint: "Anchor-0" 0 0 basechar 0
LayerCount: 2
Back
Fore
SplineSet
842 950 m 128,-1,1
 929 900 929 900 972.5 812 c 128,-1,2
 1016 724 1016 724 1016 610 c 2,3,-1
 1016 0 l 1,4,-1
 852 0 l 1,5,-1
 852 564 l 2,6,7
 852 687 852 687 799 765 c 128,-1,8
 746 843 746 843 626 843 c 0,9,10
 540 843 540 843 464 812.5 c 128,-1,11
 388 782 388 782 329 728 c 1,12,-1
 329 0 l 1,13,-1
 165 0 l 1,14,-1
 165 1198 l 1,15,-1
 30 1198 l 1,16,-1
 30 1343 l 1,17,-1
 165 1343 l 1,18,-1
 165 1517 l 1,19,-1
 329 1517 l 1,20,-1
 329 1343 l 1,21,-1
 628 1343 l 1,22,-1
 628 1198 l 1,23,-1
 329 1198 l 1,24,-1
 329 887 l 1,25,26
 444 1000 444 1000 627 1000 c 0,27,0
 755 1000 755 1000 842 950 c 128,-1,1
EndSplineSet
Validated: 1
EndChar

StartChar: i
Encoding: 105 105 153
Width: 496
GlyphClass: 2
Flags: W
AnchorPoint: "Anchor-3" 0 0 basechar 0
AnchorPoint: "Anchor-2" 248 974 basechar 0
AnchorPoint: "Anchor-1" 248 0 basechar 0
AnchorPoint: "Anchor-0" 260 10 basechar 0
LayerCount: 2
Back
Fore
SplineSet
171 1311 m 128,-1,1
 139 1343 139 1343 139 1391 c 0,2,3
 139 1438 139 1438 171 1470 c 128,-1,4
 203 1502 203 1502 251 1502 c 0,5,6
 298 1502 298 1502 330 1470 c 128,-1,7
 362 1438 362 1438 362 1391 c 0,8,9
 362 1343 362 1343 330 1311 c 128,-1,10
 298 1279 298 1279 251 1279 c 0,11,0
 203 1279 203 1279 171 1311 c 128,-1,1
166 974 m 1,12,-1
 330 974 l 1,13,-1
 330 0 l 1,14,-1
 166 0 l 1,15,-1
 166 974 l 1,12,-1
EndSplineSet
Validated: 1
Substitution2: "Single Substitution lookup 13 subtable" dotlessi
Substitution2: "'locl' Localized Forms in Latin lookup 10 subtable" i.locl
Substitution2: "'locl' Localized Forms in Latin lookup 9 subtable" i.locl
Substitution2: "'locl' Localized Forms in Latin lookup 8 subtable" i.locl
Substitution2: "'locl' Localized Forms in Latin lookup 7 subtable" i.locl
Substitution2: "'locl' Localized Forms in Latin lookup 6 subtable" i.locl
AlternateSubs2: "'aalt' Access All Alternates in Latin lookup 1 subtable" dotlessi i.locl
EndChar

StartChar: dotlessi
Encoding: 305 305 154
Width: 496
GlyphClass: 2
Flags: W
AnchorPoint: "Anchor-3" 0 0 basechar 0
AnchorPoint: "Anchor-2" 248 974 basechar 0
AnchorPoint: "Anchor-1" 248 0 basechar 0
AnchorPoint: "Anchor-0" 260 10 basechar 0
LayerCount: 2
Back
Fore
SplineSet
166 974 m 1,0,-1
 330 974 l 1,1,-1
 330 0 l 1,2,-1
 166 0 l 1,3,-1
 166 974 l 1,0,-1
EndSplineSet
Validated: 1
EndChar

StartChar: j
Encoding: 106 106 163
Width: 496
GlyphClass: 2
Flags: W
AnchorPoint: "Anchor-3" 0 0 basechar 0
AnchorPoint: "Anchor-2" 248 974 basechar 0
AnchorPoint: "Anchor-1" 248 0 basechar 0
AnchorPoint: "Anchor-0" 0 0 basechar 0
LayerCount: 2
Back
Fore
SplineSet
172 1312 m 128,-1,1
 139 1345 139 1345 139 1391 c 256,2,3
 139 1437 139 1437 172 1469.5 c 128,-1,4
 205 1502 205 1502 251 1502 c 256,5,6
 297 1502 297 1502 329.5 1469.5 c 128,-1,7
 362 1437 362 1437 362 1391 c 256,8,9
 362 1345 362 1345 329.5 1312 c 128,-1,10
 297 1279 297 1279 251 1279 c 256,11,0
 205 1279 205 1279 172 1312 c 128,-1,1
-156 -322 m 1,12,13
 -28 -305 -28 -305 41 -262 c 128,-1,14
 110 -219 110 -219 138 -143.5 c 128,-1,15
 166 -68 166 -68 166 58 c 2,16,-1
 166 974 l 1,17,-1
 330 974 l 1,18,-1
 330 20 l 2,19,20
 330 -233 330 -233 204.5 -351.5 c 128,-1,21
 79 -470 79 -470 -135 -482 c 1,22,-1
 -156 -322 l 1,12,13
EndSplineSet
Validated: 1
Substitution2: "Single Substitution lookup 13 subtable" uni0237
Substitution2: "'aalt' Access All Alternates in Latin lookup 0 subtable" uni0237
EndChar

StartChar: uni0237
Encoding: 567 567 164
Width: 496
GlyphClass: 2
Flags: W
AnchorPoint: "Anchor-3" 0 0 basechar 0
AnchorPoint: "Anchor-2" 248 974 basechar 0
AnchorPoint: "Anchor-1" 248 0 basechar 0
AnchorPoint: "Anchor-0" 0 0 basechar 0
LayerCount: 2
Back
Fore
SplineSet
-156 -322 m 1,0,1
 -28 -305 -28 -305 41 -262 c 128,-1,2
 110 -219 110 -219 138 -143.5 c 128,-1,3
 166 -68 166 -68 166 58 c 2,4,-1
 166 974 l 1,5,-1
 330 974 l 1,6,-1
 330 20 l 2,7,8
 330 -233 330 -233 204.5 -351.5 c 128,-1,9
 79 -470 79 -470 -135 -482 c 1,10,-1
 -156 -322 l 1,0,1
EndSplineSet
Validated: 1
EndChar

StartChar: k
Encoding: 107 107 165
Width: 1018
GlyphClass: 2
Flags: W
AnchorPoint: "Anchor-3" 0 0 basechar 0
AnchorPoint: "Anchor-2" 509 974 basechar 0
AnchorPoint: "Anchor-1" 509 0 basechar 0
AnchorPoint: "Anchor-0" 0 0 basechar 0
LayerCount: 2
Back
Fore
SplineSet
514 494 m 1,0,-1
 330 291 l 1,1,-1
 330 0 l 1,2,-1
 166 0 l 1,3,-1
 166 1516 l 1,4,-1
 330 1516 l 1,5,-1
 330 501 l 1,6,7
 370 563 370 563 400 594 c 2,8,-1
 784 1000 l 1,9,-1
 949 974 l 1,10,-1
 623 614 l 1,11,-1
 992 -2 l 1,12,-1
 810 -2 l 1,13,-1
 514 494 l 1,0,-1
EndSplineSet
Validated: 1
EndChar

StartChar: l
Encoding: 108 108 167
Width: 496
GlyphClass: 2
Flags: W
AnchorPoint: "Anchor-3" 476 1031 basechar 0
AnchorPoint: "Anchor-2" 250 1364 basechar 0
AnchorPoint: "Anchor-1" 248 0 basechar 0
AnchorPoint: "Anchor-0" 0 0 basechar 0
LayerCount: 2
Back
Fore
SplineSet
166 1516 m 1,0,-1
 330 1516 l 1,1,-1
 330 0 l 1,2,-1
 166 0 l 1,3,-1
 166 1516 l 1,0,-1
EndSplineSet
Validated: 1
EndChar

StartChar: lslash
Encoding: 322 322 172
Width: 561
GlyphClass: 2
Flags: W
AnchorPoint: "Anchor-3" 506 1031 basechar 0
AnchorPoint: "Anchor-2" 280 1364 basechar 0
AnchorPoint: "Anchor-1" 278 0 basechar 0
AnchorPoint: "Anchor-0" 0 0 basechar 0
LayerCount: 2
Back
Fore
SplineSet
530 811 m 1,0,-1
 360 693 l 1,1,-1
 360 0 l 1,2,-1
 196 0 l 1,3,-1
 196 580 l 1,4,-1
 22 459 l 1,5,-1
 22 616 l 1,6,-1
 196 737 l 1,7,-1
 196 1516 l 1,8,-1
 360 1516 l 1,9,-1
 360 850 l 1,10,-1
 530 968 l 1,11,-1
 530 811 l 1,0,-1
EndSplineSet
Validated: 1
EndChar

StartChar: m
Encoding: 109 109 173
Width: 1764
GlyphClass: 2
Flags: W
AnchorPoint: "Anchor-3" 0 0 basechar 0
AnchorPoint: "Anchor-2" 882 974 basechar 0
AnchorPoint: "Anchor-1" 882 0 basechar 0
AnchorPoint: "Anchor-0" 0 0 basechar 0
LayerCount: 2
Back
Fore
SplineSet
1457.5 950 m 128,-1,1
 1538 900 1538 900 1578 812 c 128,-1,2
 1618 724 1618 724 1619 610 c 2,3,-1
 1619 0 l 1,4,-1
 1455 0 l 1,5,-1
 1455 564 l 2,6,7
 1453 688 1453 688 1403 765.5 c 128,-1,8
 1353 843 1353 843 1239 843 c 0,9,10
 1158 843 1158 843 1086.5 814.5 c 128,-1,11
 1015 786 1015 786 962 736 c 1,12,13
 976 675 976 675 976 610 c 2,14,-1
 976 0 l 1,15,-1
 812 0 l 1,16,-1
 812 564 l 2,17,18
 810 688 810 688 760 765.5 c 128,-1,19
 710 843 710 843 596 843 c 0,20,21
 520 843 520 843 452 814.5 c 128,-1,22
 384 786 384 786 331 735 c 1,23,-1
 329 0 l 1,24,-1
 165 0 l 1,25,-1
 167 974 l 1,26,-1
 288 974 l 1,27,-1
 319 878 l 1,28,29
 432 1000 432 1000 617 1000 c 0,30,31
 719 1000 719 1000 793.5 962 c 128,-1,32
 868 924 868 924 912 854 c 1,33,34
 1058 1000 1058 1000 1260 1000 c 0,35,0
 1377 1000 1377 1000 1457.5 950 c 128,-1,1
EndSplineSet
Validated: 1
EndChar

StartChar: n
Encoding: 110 110 174
Width: 1159
GlyphClass: 2
Flags: W
AnchorPoint: "Anchor-3" 0 0 basechar 0
AnchorPoint: "Anchor-2" 580 974 basechar 0
AnchorPoint: "Anchor-1" 580 0 basechar 0
AnchorPoint: "Anchor-0" 0 0 basechar 0
LayerCount: 2
Back
Fore
SplineSet
842 950 m 128,-1,1
 929 900 929 900 972.5 812 c 128,-1,2
 1016 724 1016 724 1016 610 c 2,3,-1
 1016 0 l 1,4,-1
 852 0 l 1,5,-1
 852 564 l 2,6,7
 852 687 852 687 799.5 765 c 128,-1,8
 747 843 747 843 626 844 c 0,9,10
 540 843 540 843 464.5 812.5 c 128,-1,11
 389 782 389 782 331 727 c 1,12,-1
 329 0 l 1,13,-1
 165 0 l 1,14,-1
 167 974 l 1,15,-1
 288 974 l 1,16,-1
 319 877 l 1,17,18
 435 1000 435 1000 627 1000 c 0,19,0
 755 1000 755 1000 842 950 c 128,-1,1
EndSplineSet
Validated: 1
EndChar

StartChar: eng
Encoding: 331 331 178
Width: 1159
GlyphClass: 2
Flags: W
AnchorPoint: "Anchor-3" 0 0 basechar 0
AnchorPoint: "Anchor-2" 580 974 basechar 0
AnchorPoint: "Anchor-1" 580 0 basechar 0
AnchorPoint: "Anchor-0" 0 0 basechar 0
LayerCount: 2
Back
Fore
SplineSet
842 950 m 128,-1,1
 929 900 929 900 972.5 812 c 128,-1,2
 1016 724 1016 724 1016 610 c 2,3,-1
 1016 0 l 1,4,-1
 1015 0 l 1,5,6
 1015 -243 1015 -243 889.5 -357 c 128,-1,7
 764 -471 764 -471 550 -482 c 1,8,-1
 529 -322 l 1,9,10
 657 -305 657 -305 726.5 -262 c 128,-1,11
 796 -219 796 -219 824 -143.5 c 128,-1,12
 852 -68 852 -68 852 58 c 2,13,-1
 852 564 l 2,14,15
 852 687 852 687 799.5 765 c 128,-1,16
 747 843 747 843 626 844 c 0,17,18
 540 843 540 843 464.5 812.5 c 128,-1,19
 389 782 389 782 331 727 c 1,20,-1
 329 0 l 1,21,-1
 165 0 l 1,22,-1
 167 974 l 1,23,-1
 288 974 l 1,24,-1
 319 877 l 1,25,26
 435 1000 435 1000 627 1000 c 0,27,0
 755 1000 755 1000 842 950 c 128,-1,1
EndSplineSet
Validated: 1
EndChar

StartChar: o
Encoding: 111 111 180
Width: 1200
GlyphClass: 2
Flags: W
AnchorPoint: "Anchor-3" 1180 974 basechar 0
AnchorPoint: "Anchor-2" 600 974 basechar 0
AnchorPoint: "Anchor-1" 600 0 basechar 0
AnchorPoint: "Anchor-0" 0 0 basechar 0
LayerCount: 2
Back
Fore
SplineSet
337.5 38 m 128,-1,1
 222 101 222 101 158.5 216.5 c 128,-1,2
 95 332 95 332 95 483 c 0,3,4
 95 636 95 636 158.5 753 c 128,-1,5
 222 870 222 870 337.5 934 c 128,-1,6
 453 998 453 998 605 998 c 0,7,8
 754 998 754 998 867 934 c 128,-1,9
 980 870 980 870 1041 753.5 c 128,-1,10
 1102 637 1102 637 1101 483 c 0,11,12
 1101 331 1101 331 1039.5 216 c 128,-1,13
 978 101 978 101 865.5 38 c 128,-1,14
 753 -25 753 -25 605 -25 c 0,15,0
 453 -25 453 -25 337.5 38 c 128,-1,1
771.5 176.5 m 128,-1,17
 844 220 844 220 884.5 299.5 c 128,-1,18
 925 379 925 379 927 483 c 0,19,20
 925 589 925 589 884 670 c 128,-1,21
 843 751 843 751 771 795.5 c 128,-1,22
 699 840 699 840 605 840 c 0,23,24
 505 840 505 840 428.5 795 c 128,-1,25
 352 750 352 750 310.5 669 c 128,-1,26
 269 588 269 588 269 481 c 0,27,28
 269 377 269 377 310.5 298 c 128,-1,29
 352 219 352 219 428 176 c 128,-1,30
 504 133 504 133 605 133 c 0,31,16
 699 133 699 133 771.5 176.5 c 128,-1,17
EndSplineSet
Validated: 33
EndChar

StartChar: oslash
Encoding: 248 248 187
Width: 1200
GlyphClass: 2
Flags: W
AnchorPoint: "Anchor-3" 1180 974 basechar 0
AnchorPoint: "Anchor-2" 600 974 basechar 0
AnchorPoint: "Anchor-1" 600 0 basechar 0
AnchorPoint: "Anchor-0" 0 0 basechar 0
LayerCount: 2
Back
Fore
SplineSet
1000 819 m 1,0,1
 1050 753 1050 753 1076 668 c 128,-1,2
 1102 583 1102 583 1101 483 c 0,3,4
 1101 331 1101 331 1039.5 216 c 128,-1,5
 978 101 978 101 865.5 38 c 128,-1,6
 753 -25 753 -25 605 -25 c 0,7,8
 511 -25 511 -25 430.5 -0.5 c 128,-1,9
 350 24 350 24 286 70 c 1,10,-1
 183 -38 l 1,11,-1
 105 35 l 1,12,-1
 208 143 l 1,13,14
 153 209 153 209 124 295.5 c 128,-1,15
 95 382 95 382 95 483 c 0,16,17
 95 636 95 636 158.5 753 c 128,-1,18
 222 870 222 870 337.5 934 c 128,-1,19
 453 998 453 998 605 998 c 0,20,21
 700 998 700 998 780.5 972 c 128,-1,22
 861 946 861 946 924 896 c 1,23,-1
 1037 1015 l 1,24,-1
 1116 940 l 1,25,-1
 1000 819 l 1,0,1
328 269 m 1,27,-1
 805 771 l 1,28,29
 722 840 722 840 605 840 c 0,30,31
 505 840 505 840 429 795.5 c 128,-1,32
 353 751 353 751 311 670 c 128,-1,33
 269 589 269 589 269 483 c 0,34,26
 269 358 269 358 328 269 c 1,27,-1
875 687 m 1,36,-1
 403 192 l 1,37,38
 487 133 487 133 605 133 c 0,39,40
 699 133 699 133 771.5 176.5 c 128,-1,41
 844 220 844 220 884.5 299.5 c 128,-1,42
 925 379 925 379 927 483 c 1,43,35
 924 601 924 601 875 687 c 1,36,-1
EndSplineSet
Validated: 33
EndChar

StartChar: oe
Encoding: 339 339 189
Width: 1900
GlyphClass: 2
Flags: W
AnchorPoint: "Anchor-3" 1181 974 basechar 0
AnchorPoint: "Anchor-2" 1373 974 basechar 0
AnchorPoint: "Anchor-1" 1373 0 basechar 0
AnchorPoint: "Anchor-0" 1801 10 basechar 0
LayerCount: 2
Back
Fore
SplineSet
1606 143 m 128,-1,1
 1681 158 1681 158 1756 187 c 1,2,-1
 1807 47 l 1,3,4
 1736 17 1736 17 1627 -3 c 128,-1,5
 1518 -23 1518 -23 1429 -23 c 0,6,7
 1285 -23 1285 -23 1179 24.5 c 128,-1,8
 1073 72 1073 72 1011 169 c 1,9,10
 946 76 946 76 842 25.5 c 128,-1,11
 738 -25 738 -25 606 -25 c 0,12,13
 454 -25 454 -25 338.5 38 c 128,-1,14
 223 101 223 101 159.5 216.5 c 128,-1,15
 96 332 96 332 96 483 c 0,16,17
 96 636 96 636 159.5 753 c 128,-1,18
 223 870 223 870 338.5 934 c 128,-1,19
 454 998 454 998 606 998 c 0,20,21
 737 998 737 998 841 948 c 128,-1,22
 945 898 945 898 1010 806 c 1,23,24
 1070 903 1070 903 1174 953.5 c 128,-1,25
 1278 1004 1278 1004 1419 1004 c 0,26,27
 1554 1004 1554 1004 1645 941.5 c 128,-1,28
 1736 879 1736 879 1780 778.5 c 128,-1,29
 1824 678 1824 678 1824 563 c 0,30,31
 1824 484 1824 484 1802 405 c 1,32,-1
 1106 400 l 1,33,34
 1128 265 1128 265 1218 196.5 c 128,-1,35
 1308 128 1308 128 1464 128 c 0,36,0
 1531 128 1531 128 1606 143 c 128,-1,1
1183 765 m 128,-1,38
 1111 683 1111 683 1101 544 c 1,39,-1
 1642 549 l 1,40,41
 1644 573 1644 573 1644 585 c 0,42,43
 1644 653 1644 653 1619 712.5 c 128,-1,44
 1594 772 1594 772 1538.5 809.5 c 128,-1,45
 1483 847 1483 847 1397 847 c 0,46,37
 1255 847 1255 847 1183 765 c 128,-1,38
772.5 176.5 m 128,-1,48
 845 220 845 220 885.5 299.5 c 128,-1,49
 926 379 926 379 928 483 c 0,50,51
 926 589 926 589 885 670 c 128,-1,52
 844 751 844 751 772 795.5 c 128,-1,53
 700 840 700 840 606 840 c 0,54,55
 506 840 506 840 429.5 795 c 128,-1,56
 353 750 353 750 311.5 669 c 128,-1,57
 270 588 270 588 270 481 c 0,58,59
 270 377 270 377 311.5 298 c 128,-1,60
 353 219 353 219 429 176 c 128,-1,61
 505 133 505 133 606 133 c 0,62,47
 700 133 700 133 772.5 176.5 c 128,-1,48
EndSplineSet
Validated: 1
EndChar

StartChar: p
Encoding: 112 112 190
Width: 1204
GlyphClass: 2
Flags: W
AnchorPoint: "Anchor-3" 0 0 basechar 0
AnchorPoint: "Anchor-2" 602 974 basechar 0
AnchorPoint: "Anchor-1" 602 0 basechar 0
AnchorPoint: "Anchor-0" 0 0 basechar 0
LayerCount: 2
Back
Fore
SplineSet
907.5 942.5 m 128,-1,1
 1006 885 1006 885 1057.5 774.5 c 128,-1,2
 1109 664 1109 664 1109 509 c 0,3,4
 1109 346 1109 346 1055 226.5 c 128,-1,5
 1001 107 1001 107 894.5 42 c 128,-1,6
 788 -23 788 -23 635 -23 c 0,7,8
 398 -23 398 -23 332 151 c 1,9,-1
 332 -470 l 1,10,-1
 167 -470 l 1,11,-1
 167 974 l 1,12,-1
 289 974 l 1,13,-1
 328 850 l 1,14,15
 395 922 395 922 483.5 961 c 128,-1,16
 572 1000 572 1000 671 1000 c 0,17,0
 809 1000 809 1000 907.5 942.5 c 128,-1,1
793.5 170 m 128,-1,19
 858 210 858 210 895.5 295.5 c 128,-1,20
 933 381 933 381 933 511 c 0,21,22
 933 666 933 666 859.5 751 c 128,-1,23
 786 836 786 836 651 836 c 0,24,25
 574 836 574 836 491.5 809.5 c 128,-1,26
 409 783 409 783 332 735 c 1,27,-1
 332 418 l 2,28,29
 332 308 332 308 384 243.5 c 128,-1,30
 436 179 436 179 507.5 154.5 c 128,-1,31
 579 130 579 130 647 130 c 0,32,18
 729 130 729 130 793.5 170 c 128,-1,19
EndSplineSet
Validated: 1
EndChar

StartChar: thorn
Encoding: 254 254 191
Width: 1204
GlyphClass: 2
Flags: W
AnchorPoint: "Anchor-3" 0 0 basechar 0
AnchorPoint: "Anchor-2" 602 974 basechar 0
AnchorPoint: "Anchor-1" 602 0 basechar 0
AnchorPoint: "Anchor-0" 0 0 basechar 0
LayerCount: 2
Back
Fore
SplineSet
907.5 942.5 m 128,-1,1
 1006 885 1006 885 1057.5 774.5 c 128,-1,2
 1109 664 1109 664 1109 509 c 0,3,4
 1109 346 1109 346 1055 226.5 c 128,-1,5
 1001 107 1001 107 894.5 42 c 128,-1,6
 788 -23 788 -23 635 -23 c 0,7,8
 398 -23 398 -23 332 151 c 1,9,-1
 332 -470 l 1,10,-1
 167 -470 l 1,11,-1
 167 974 l 1,12,-1
 169 974 l 1,13,-1
 169 1434 l 1,14,-1
 332 1434 l 1,15,-1
 332 855 l 1,16,17
 398 924 398 924 486 962 c 128,-1,18
 574 1000 574 1000 671 1000 c 0,19,0
 809 1000 809 1000 907.5 942.5 c 128,-1,1
793.5 170 m 128,-1,21
 858 210 858 210 895.5 295.5 c 128,-1,22
 933 381 933 381 933 511 c 0,23,24
 933 666 933 666 859.5 751 c 128,-1,25
 786 836 786 836 651 836 c 0,26,27
 574 836 574 836 491.5 809.5 c 128,-1,28
 409 783 409 783 332 735 c 1,29,-1
 332 418 l 2,30,31
 332 308 332 308 384 243.5 c 128,-1,32
 436 179 436 179 507.5 154.5 c 128,-1,33
 579 130 579 130 647 130 c 0,34,20
 729 130 729 130 793.5 170 c 128,-1,21
EndSplineSet
Validated: 1
EndChar

StartChar: q
Encoding: 113 113 192
Width: 1206
GlyphClass: 2
Flags: W
AnchorPoint: "Anchor-3" 0 0 basechar 0
AnchorPoint: "Anchor-2" 603 974 basechar 0
AnchorPoint: "Anchor-1" 603 0 basechar 0
AnchorPoint: "Anchor-0" 0 0 basechar 0
LayerCount: 2
Back
Fore
SplineSet
1040 974 m 1,0,-1
 1040 -472 l 1,1,-1
 876 -472 l 1,2,-1
 876 154 l 1,3,4
 781 -23 781 -23 537 -23 c 0,5,6
 406 -23 406 -23 307 38.5 c 128,-1,7
 208 100 208 100 153.5 212 c 128,-1,8
 99 324 99 324 99 472 c 0,9,10
 99 639 99 639 156.5 757.5 c 128,-1,11
 214 876 214 876 324.5 938 c 128,-1,12
 435 1000 435 1000 591 1000 c 0,13,14
 668 1000 668 1000 746.5 969 c 128,-1,15
 825 938 825 938 894 881 c 1,16,-1
 916 974 l 1,17,-1
 1040 974 l 1,0,-1
799.5 217.5 m 128,-1,19
 876 301 876 301 876 453 c 2,20,-1
 876 753 l 1,21,22
 821 800 821 800 751 825.5 c 128,-1,23
 681 851 681 851 604 851 c 0,24,25
 447 851 447 851 361 754.5 c 128,-1,26
 275 658 275 658 275 483 c 0,27,28
 275 397 275 397 307 317 c 128,-1,29
 339 237 339 237 407 185.5 c 128,-1,30
 475 134 475 134 577 134 c 0,31,18
 723 134 723 134 799.5 217.5 c 128,-1,19
EndSplineSet
Validated: 1
EndChar

StartChar: r
Encoding: 114 114 193
Width: 712
GlyphClass: 2
Flags: W
AnchorPoint: "Anchor-3" 0 0 basechar 0
AnchorPoint: "Anchor-2" 356 974 basechar 0
AnchorPoint: "Anchor-1" 250 0 basechar 0
AnchorPoint: "Anchor-0" 0 0 basechar 0
LayerCount: 2
Back
Fore
SplineSet
577 999 m 0,1,2
 622 999 622 999 671 990 c 1,3,-1
 643 834 l 1,4,5
 615 837 615 837 588 837 c 0,6,7
 433 837 433 837 331 741 c 1,8,-1
 331 0 l 1,9,-1
 167 0 l 1,10,-1
 167 974 l 1,11,-1
 291 974 l 1,12,-1
 313 880 l 1,13,0
 416 999 416 999 577 999 c 0,1,2
EndSplineSet
Validated: 1
EndChar

StartChar: s
Encoding: 115 115 197
Width: 869
GlyphClass: 2
Flags: W
AnchorPoint: "Anchor-3" 0 0 basechar 0
AnchorPoint: "Anchor-2" 435 974 basechar 0
AnchorPoint: "Anchor-1" 425 0 basechar 0
AnchorPoint: "Anchor-0" 0 0 basechar 0
LayerCount: 2
Back
Fore
SplineSet
86 53 m 1,1,-1
 140 200 l 1,2,3
 301 128 301 128 415 126 c 0,4,5
 623 129 623 129 624 263 c 0,6,7
 624 310 624 310 597.5 340 c 128,-1,8
 571 370 571 370 531.5 388 c 128,-1,9
 492 406 492 406 423 428 c 0,10,11
 332 457 332 457 275 485.5 c 128,-1,12
 218 514 218 514 177.5 571 c 128,-1,13
 137 628 137 628 137 722 c 0,14,15
 140 1002 140 1002 478 1002 c 0,16,17
 633 1002 633 1002 748 949 c 1,18,-1
 691 800 l 1,19,20
 576 851 576 851 478 851 c 0,21,22
 299 849 299 849 292 722 c 0,23,24
 292 684 292 684 316 659 c 128,-1,25
 340 634 340 634 375.5 618.5 c 128,-1,26
 411 603 411 603 475 582 c 0,27,28
 570 552 570 552 630.5 521.5 c 128,-1,29
 691 491 691 491 735 428.5 c 128,-1,30
 779 366 779 366 779 263 c 0,31,32
 779 -25 779 -25 415 -25 c 0,33,0
 257 -24 257 -24 86 53 c 1,1,-1
EndSplineSet
Validated: 1
EndChar

StartChar: scedilla
Encoding: 351 351 200
Width: 869
GlyphClass: 2
Flags: W
AnchorPoint: "Anchor-3" 0 0 basechar 0
AnchorPoint: "Anchor-2" 435 974 basechar 0
AnchorPoint: "Anchor-1" 427 -432 basechar 0
AnchorPoint: "Anchor-0" 0 0 basechar 0
LayerCount: 2
Back
Fore
SplineSet
472 -23 m 1,1,-1
 472 -104 l 1,2,3
 565 -104 565 -104 618.5 -144 c 128,-1,4
 672 -184 672 -184 672 -256 c 0,5,6
 672 -432 672 -432 397 -432 c 0,7,8
 368 -432 368 -432 332 -430 c 1,9,-1
 332 -320 l 1,10,11
 376 -326 376 -326 402 -326 c 0,12,13
 523 -326 523 -326 523 -266 c 0,14,15
 523 -204 523 -204 414 -204 c 0,16,17
 401 -204 401 -204 373 -208 c 1,18,-1
 373 -23 l 1,19,20
 237 -14 237 -14 86 53 c 1,21,-1
 140 200 l 1,22,23
 301 128 301 128 415 126 c 0,24,25
 623 129 623 129 624 263 c 0,26,27
 624 310 624 310 597.5 340 c 128,-1,28
 571 370 571 370 531.5 388 c 128,-1,29
 492 406 492 406 423 428 c 0,30,31
 332 457 332 457 275 485.5 c 128,-1,32
 218 514 218 514 177.5 571 c 128,-1,33
 137 628 137 628 137 722 c 0,34,35
 140 1002 140 1002 478 1002 c 0,36,37
 633 1002 633 1002 748 949 c 1,38,-1
 691 800 l 1,39,40
 576 851 576 851 478 851 c 0,41,42
 299 849 299 849 292 722 c 0,43,44
 292 684 292 684 316 659 c 128,-1,45
 340 634 340 634 375.5 618.5 c 128,-1,46
 411 603 411 603 475 582 c 0,47,48
 570 552 570 552 630.5 521.5 c 128,-1,49
 691 491 691 491 735 428.5 c 128,-1,50
 779 366 779 366 779 263 c 0,51,0
 779 -2 779 -2 472 -23 c 1,1,-1
EndSplineSet
Validated: 1
Substitution2: "'locl' Localized Forms in Latin lookup 5 subtable" uni0219
Substitution2: "'locl' Localized Forms in Latin lookup 4 subtable" uni0219
Substitution2: "'aalt' Access All Alternates in Latin lookup 0 subtable" uni0219
EndChar

StartChar: germandbls
Encoding: 223 223 202
Width: 1114
GlyphClass: 2
Flags: W
LayerCount: 2
Back
Fore
SplineSet
649.5 690.5 m 128,-1,1
 672 659 672 659 705.5 642 c 128,-1,2
 739 625 739 625 798 604 c 0,3,4
 875 578 875 578 924.5 549.5 c 128,-1,5
 974 521 974 521 1009 459.5 c 128,-1,6
 1044 398 1044 398 1044 293 c 0,7,8
 1044 142 1044 142 964.5 58.5 c 128,-1,9
 885 -25 885 -25 740 -25 c 0,10,11
 653 -24 653 -24 579 -10.5 c 128,-1,12
 505 3 505 3 411 35 c 1,13,-1
 439 209 l 1,14,15
 537 167 537 167 604.5 150 c 128,-1,16
 672 133 672 133 740 132 c 0,17,18
 878 135 878 135 877 293 c 0,19,20
 877 345 877 345 853.5 378 c 128,-1,21
 830 411 830 411 795 429.5 c 128,-1,22
 760 448 760 448 700 469 c 0,23,24
 623 497 623 497 576 524 c 128,-1,25
 529 551 529 551 495.5 607.5 c 128,-1,26
 462 664 462 664 462 758 c 0,27,28
 462 828 462 828 486 874.5 c 128,-1,29
 510 921 510 921 544.5 948 c 128,-1,30
 579 975 579 975 635 1007 c 0,31,32
 685 1036 685 1036 714.5 1058.5 c 128,-1,33
 744 1081 744 1081 764 1116.5 c 128,-1,34
 784 1152 784 1152 784 1204 c 0,35,36
 784 1283 784 1283 733.5 1330.5 c 128,-1,37
 683 1378 683 1378 600 1378 c 0,38,39
 519 1378 519 1378 458 1343.5 c 128,-1,40
 397 1309 397 1309 363.5 1246.5 c 128,-1,41
 330 1184 330 1184 330 1102 c 2,42,-1
 330 2 l 1,43,-1
 166 2 l 1,44,-1
 166 1116 l 2,45,46
 166 1240 166 1240 221 1334.5 c 128,-1,47
 276 1429 276 1429 376.5 1480.5 c 128,-1,48
 477 1532 477 1532 609 1532 c 0,49,50
 708 1532 708 1532 783 1493 c 128,-1,51
 858 1454 858 1454 899 1383 c 128,-1,52
 940 1312 940 1312 940 1218 c 0,53,54
 940 1116 940 1116 911 1053 c 128,-1,55
 882 990 882 990 842 959 c 128,-1,56
 802 928 802 928 740 898 c 0,57,58
 700 879 700 879 678.5 864.5 c 128,-1,59
 657 850 657 850 642 828 c 128,-1,60
 627 806 627 806 627 774 c 0,61,0
 627 722 627 722 649.5 690.5 c 128,-1,1
EndSplineSet
Validated: 33
EndChar

StartChar: t
Encoding: 116 116 203
Width: 694
GlyphClass: 2
Flags: W
AnchorPoint: "Anchor-3" 554 894 basechar 0
AnchorPoint: "Anchor-2" 347 974 basechar 0
AnchorPoint: "Anchor-1" 357 0 basechar 0
AnchorPoint: "Anchor-0" 0 0 basechar 0
LayerCount: 2
Back
Fore
SplineSet
373 828 m 1,0,-1
 373 302 l 2,1,2
 373 258 373 258 392.5 216.5 c 128,-1,3
 412 175 412 175 452 148.5 c 128,-1,4
 492 122 492 122 549 122 c 0,5,6
 589 122 589 122 640 129 c 1,7,-1
 640 -18 l 1,8,9
 575 -24 575 -24 508 -24 c 0,10,11
 415 -24 415 -24 350 16 c 128,-1,12
 285 56 285 56 252 123.5 c 128,-1,13
 219 191 219 191 219 273 c 2,14,-1
 219 828 l 1,15,-1
 43 828 l 1,16,-1
 43 973 l 1,17,-1
 219 973 l 1,18,-1
 219 1323 l 1,19,-1
 373 1323 l 1,20,-1
 373 973 l 1,21,-1
 641 973 l 1,22,-1
 641 828 l 1,23,-1
 373 828 l 1,0,-1
EndSplineSet
Validated: 1
EndChar

StartChar: tbar
Encoding: 359 359 204
Width: 694
GlyphClass: 2
Flags: W
AnchorPoint: "Anchor-3" 554 894 basechar 0
AnchorPoint: "Anchor-2" 347 974 basechar 0
AnchorPoint: "Anchor-1" 357 0 basechar 0
AnchorPoint: "Anchor-0" 0 0 basechar 0
LayerCount: 2
Back
Fore
SplineSet
373 828 m 1,0,-1
 373 683 l 1,1,-1
 641 683 l 1,2,-1
 641 538 l 1,3,-1
 373 538 l 1,4,-1
 373 302 l 2,5,6
 373 258 373 258 392.5 216.5 c 128,-1,7
 412 175 412 175 452 148.5 c 128,-1,8
 492 122 492 122 549 122 c 0,9,10
 589 122 589 122 640 129 c 1,11,-1
 640 -18 l 1,12,13
 575 -24 575 -24 508 -24 c 0,14,15
 415 -24 415 -24 350 16 c 128,-1,16
 285 56 285 56 252 123.5 c 128,-1,17
 219 191 219 191 219 273 c 2,18,-1
 219 538 l 1,19,-1
 43 538 l 1,20,-1
 43 683 l 1,21,-1
 219 683 l 1,22,-1
 219 828 l 1,23,-1
 43 828 l 1,24,-1
 43 973 l 1,25,-1
 219 973 l 1,26,-1
 219 1323 l 1,27,-1
 373 1323 l 1,28,-1
 373 973 l 1,29,-1
 641 973 l 1,30,-1
 641 828 l 1,31,-1
 373 828 l 1,0,-1
EndSplineSet
Validated: 1
EndChar

StartChar: uni0163
Encoding: 355 355 206
Width: 694
GlyphClass: 2
Flags: W
AnchorPoint: "Anchor-3" 554 894 basechar 0
AnchorPoint: "Anchor-2" 347 974 basechar 0
AnchorPoint: "Anchor-1" 359 -432 basechar 0
AnchorPoint: "Anchor-0" 0 0 basechar 0
LayerCount: 2
Back
Fore
SplineSet
373 828 m 1,0,-1
 373 302 l 2,1,2
 373 258 373 258 392.5 216.5 c 128,-1,3
 412 175 412 175 452 148.5 c 128,-1,4
 492 122 492 122 549 122 c 0,5,6
 589 122 589 122 640 129 c 1,7,-1
 640 -18 l 1,8,9
 575 -24 575 -24 508 -24 c 0,10,11
 454 -24 454 -24 404 -8 c 1,12,-1
 404 -104 l 1,13,14
 497 -104 497 -104 550.5 -144 c 128,-1,15
 604 -184 604 -184 604 -256 c 0,16,17
 604 -432 604 -432 329 -432 c 0,18,19
 300 -432 300 -432 264 -430 c 1,20,-1
 264 -320 l 1,21,22
 307 -326 307 -326 334 -326 c 0,23,24
 455 -326 455 -326 455 -266 c 0,25,26
 455 -204 455 -204 346 -204 c 0,27,28
 333 -204 333 -204 305 -208 c 1,29,-1
 305 50 l 1,30,31
 263 91 263 91 241 149 c 128,-1,32
 219 207 219 207 219 273 c 2,33,-1
 219 828 l 1,34,-1
 43 828 l 1,35,-1
 43 973 l 1,36,-1
 219 973 l 1,37,-1
 219 1323 l 1,38,-1
 373 1323 l 1,39,-1
 373 973 l 1,40,-1
 641 973 l 1,41,-1
 641 828 l 1,42,-1
 373 828 l 1,0,-1
EndSplineSet
Validated: 1
Substitution2: "'locl' Localized Forms in Latin lookup 5 subtable" uni021B
Substitution2: "'locl' Localized Forms in Latin lookup 4 subtable" uni021B
Substitution2: "'aalt' Access All Alternates in Latin lookup 0 subtable" uni021B
EndChar

StartChar: u
Encoding: 117 117 208
Width: 1159
GlyphClass: 2
Flags: WO
AnchorPoint: "Anchor-3" 1139 974 basechar 0
AnchorPoint: "Anchor-2" 580 974 basechar 0
AnchorPoint: "Anchor-1" 580 0 basechar 0
AnchorPoint: "Anchor-0" 946 10 basechar 0
LayerCount: 2
Back
Fore
SplineSet
869 -16 m 1,0,1
 849 157 l 1,2,3
 834 116 834 116 796 77.5 c 0,4,5
 755 36 755 36 687 7 c 128,-1,6
 619 -22 619 -22 533 -22 c 0,7,8
 392 -22 392 -22 305 33 c 128,-1,9
 218 88 218 88 181 175.5 c 128,-1,10
 144 263 144 263 144 368 c 2,11,-1
 144 973 l 1,12,-1
 308 973 l 1,13,-1
 308 419 l 2,14,15
 308 288 308 288 362.5 209 c 128,-1,16
 417 130 417 130 569 130 c 0,17,18
 682 130 682 130 756 183.5 c 128,-1,19
 830 237 830 237 830 362 c 2,20,-1
 830 974 l 1,21,-1
 994 974 l 1,22,-1
 993 430 l 6,23,24
 992 154 992 154 1012 0 c 1,25,-1
 869 -16 l 1,0,1
EndSplineSet
EndChar

StartChar: uogonek
Encoding: 371 371 215
Width: 1159
GlyphClass: 2
Flags: W
AnchorPoint: "Anchor-3" 1139 974 basechar 0
AnchorPoint: "Anchor-2" 580 974 basechar 0
AnchorPoint: "Anchor-1" 580 0 basechar 0
AnchorPoint: "Anchor-0" 1043 10 basechar 0
LayerCount: 2
Back
Fore
SplineSet
1048 -260 m 1,1,-1
 1078 -387 l 1,2,3
 1043 -400 1043 -400 966 -400 c 0,4,5
 881 -400 881 -400 829.5 -359 c 128,-1,6
 778 -318 778 -318 778 -250 c 0,7,8
 778 -186 778 -186 811 -126.5 c 128,-1,9
 844 -67 844 -67 916 -2 c 1,10,11
 875 80 875 80 854 157 c 1,12,13
 839 116 839 116 796.5 75 c 128,-1,14
 754 34 754 34 686.5 6 c 128,-1,15
 619 -22 619 -22 533 -22 c 0,16,17
 392 -22 392 -22 305 33 c 128,-1,18
 218 88 218 88 181 175.5 c 128,-1,19
 144 263 144 263 144 368 c 2,20,-1
 144 973 l 1,21,-1
 308 973 l 1,22,-1
 308 419 l 2,23,24
 308 288 308 288 362.5 209 c 128,-1,25
 417 130 417 130 569 130 c 0,26,27
 682 130 682 130 756 183.5 c 128,-1,28
 830 237 830 237 830 362 c 2,29,-1
 830 974 l 1,30,-1
 994 974 l 1,31,-1
 994 330 l 2,32,33
 995 183 995 183 1081 28 c 1,34,35
 993 -44 993 -44 953.5 -94 c 128,-1,36
 914 -144 914 -144 914 -183 c 0,37,38
 914 -230 914 -230 932.5 -251.5 c 128,-1,39
 951 -273 951 -273 992 -273 c 0,40,0
 1026 -273 1026 -273 1048 -260 c 1,1,-1
EndSplineSet
Validated: 1
EndChar

StartChar: v
Encoding: 118 118 217
Width: 981
GlyphClass: 2
Flags: W
AnchorPoint: "Anchor-3" 0 0 basechar 0
AnchorPoint: "Anchor-2" 490 974 basechar 0
AnchorPoint: "Anchor-1" 490 0 basechar 0
AnchorPoint: "Anchor-0" 0 0 basechar 0
LayerCount: 2
Back
Fore
SplineSet
16 974 m 1,0,-1
 191 974 l 1,1,-1
 451 305 l 2,2,3
 459 285 459 285 472.5 231 c 128,-1,4
 486 177 486 177 487 161 c 1,5,-1
 491 161 l 1,6,7
 493 182 493 182 504 234 c 128,-1,8
 515 286 515 286 521 301 c 2,9,-1
 793 974 l 1,10,-1
 973 974 l 1,11,-1
 565 -5 l 1,12,-1
 404 -5 l 1,13,-1
 16 974 l 1,0,-1
EndSplineSet
Validated: 1
EndChar

StartChar: w
Encoding: 119 119 218
Width: 1480
GlyphClass: 2
Flags: W
AnchorPoint: "Anchor-3" 0 0 basechar 0
AnchorPoint: "Anchor-2" 740 974 basechar 0
AnchorPoint: "Anchor-1" 740 0 basechar 0
AnchorPoint: "Anchor-0" 0 0 basechar 0
LayerCount: 2
Back
Fore
SplineSet
24 974 m 1,0,-1
 191 974 l 1,1,-1
 403 278 l 2,2,3
 407 262 407 262 411 232 c 128,-1,4
 415 202 415 202 416 188 c 1,5,-1
 424 188 l 1,6,7
 425 200 425 200 431.5 235.5 c 128,-1,8
 438 271 438 271 442 283 c 2,9,-1
 674 975 l 1,10,-1
 824 975 l 1,11,-1
 1040 279 l 2,12,13
 1043 270 1043 270 1048.5 235.5 c 128,-1,14
 1054 201 1054 201 1055 187 c 1,15,-1
 1063 187 l 1,16,17
 1064 197 1064 197 1070 227.5 c 128,-1,18
 1076 258 1076 258 1081 277 c 2,19,-1
 1289 974 l 1,20,-1
 1457 974 l 1,21,-1
 1150 -5 l 1,22,-1
 980 -5 l 1,23,-1
 768 653 l 2,24,25
 762 674 762 674 755.5 705.5 c 128,-1,26
 749 737 749 737 748 746 c 1,27,-1
 744 746 l 1,28,29
 743 737 743 737 735.5 705.5 c 128,-1,30
 728 674 728 674 722 654 c 2,31,-1
 498 -5 l 1,32,-1
 334 -5 l 1,33,-1
 24 974 l 1,0,-1
EndSplineSet
Validated: 1
EndChar

StartChar: x
Encoding: 120 120 223
Width: 940
GlyphClass: 2
Flags: W
AnchorPoint: "Anchor-3" 0 0 basechar 0
AnchorPoint: "Anchor-2" 470 974 basechar 0
AnchorPoint: "Anchor-1" 470 0 basechar 0
AnchorPoint: "Anchor-0" 0 0 basechar 0
LayerCount: 2
Back
Fore
SplineSet
366 472 m 1,0,-1
 42 974 l 1,1,-1
 230 974 l 1,2,-1
 470 584 l 1,3,-1
 474 584 l 1,4,-1
 730 974 l 1,5,-1
 916 974 l 1,6,-1
 582 486 l 1,7,-1
 910 0 l 1,8,-1
 722 0 l 1,9,-1
 475 380 l 1,10,-1
 471 380 l 1,11,-1
 219 0 l 1,12,-1
 27 0 l 1,13,-1
 366 472 l 1,0,-1
EndSplineSet
Validated: 1
EndChar

StartChar: y
Encoding: 121 121 224
Width: 991
GlyphClass: 2
Flags: W
AnchorPoint: "Anchor-3" 0 0 basechar 0
AnchorPoint: "Anchor-2" 495 974 basechar 0
AnchorPoint: "Anchor-1" 495 0 basechar 0
AnchorPoint: "Anchor-0" 0 0 basechar 0
LayerCount: 2
Back
Fore
SplineSet
73 -329 m 1,0,1
 158 -310 158 -310 216.5 -275.5 c 128,-1,2
 275 -241 275 -241 316 -185 c 128,-1,3
 357 -129 357 -129 389 -42 c 2,4,-1
 407 5 l 1,5,-1
 15 974 l 1,6,-1
 207 974 l 1,7,-1
 471 276 l 1,8,-1
 491 198 l 1,9,-1
 497 198 l 1,10,-1
 517 274 l 1,11,-1
 793 974 l 1,12,-1
 984 976 l 1,13,-1
 529 -138 l 2,14,15
 478 -269 478 -269 415 -338 c 128,-1,16
 352 -407 352 -407 289.5 -432.5 c 128,-1,17
 227 -458 227 -458 131 -478 c 2,18,-1
 110 -482 l 1,19,-1
 73 -329 l 1,0,1
EndSplineSet
Validated: 1
EndChar

StartChar: z
Encoding: 122 122 229
Width: 926
GlyphClass: 2
Flags: W
AnchorPoint: "Anchor-3" 0 0 basechar 0
AnchorPoint: "Anchor-2" 463 974 basechar 0
AnchorPoint: "Anchor-1" 463 0 basechar 0
AnchorPoint: "Anchor-0" 0 0 basechar 0
LayerCount: 2
Back
Fore
SplineSet
53 51 m 1,0,-1
 611 827 l 1,1,-1
 80 827 l 1,2,-1
 80 974 l 1,3,-1
 870 974 l 1,4,-1
 870 927 l 1,5,-1
 302 147 l 1,6,-1
 874 147 l 1,7,-1
 874 0 l 1,8,-1
 53 0 l 1,9,-1
 53 51 l 1,0,-1
EndSplineSet
Validated: 1
EndChar

StartChar: zero
Encoding: 48 48 233
Width: 1104
Flags: W
LayerCount: 2
Back
Fore
SplineSet
293 57 m 128,-1,1
 191 141 191 141 138 301 c 128,-1,2
 85 461 85 461 85 687 c 0,3,4
 85 931 85 931 142 1104 c 128,-1,5
 199 1277 199 1277 307.5 1367.5 c 128,-1,6
 416 1458 416 1458 569 1458 c 1,7,-1
 569 1456 l 1,8,9
 712 1456 712 1456 813.5 1370 c 128,-1,10
 915 1284 915 1284 968 1119 c 128,-1,11
 1021 954 1021 954 1021 722 c 0,12,13
 1021 485 1021 485 964.5 317 c 128,-1,14
 908 149 908 149 799.5 61 c 128,-1,15
 691 -27 691 -27 538 -27 c 0,16,0
 395 -27 395 -27 293 57 c 128,-1,1
556 124 m 1,17,18
 647 124 647 124 711 192.5 c 128,-1,19
 775 261 775 261 808.5 391.5 c 128,-1,20
 842 522 842 522 842 706 c 0,21,22
 842 897 842 897 809 1032 c 128,-1,23
 776 1167 776 1167 713.5 1237.5 c 128,-1,24
 651 1308 651 1308 562 1308 c 0,25,26
 468 1308 468 1308 401.5 1236 c 128,-1,27
 335 1164 335 1164 300 1026.5 c 128,-1,28
 265 889 265 889 265 694 c 0,29,30
 265 513 265 513 299 385 c 128,-1,31
 333 257 333 257 398 190 c 128,-1,32
 463 123 463 123 555 123 c 1,33,-1
 556 124 l 1,17,18
EndSplineSet
Validated: 1
EndChar

StartChar: one
Encoding: 49 49 234
Width: 1104
Flags: W
LayerCount: 2
Back
Fore
SplineSet
551 1277 m 1,0,-1
 249 1177 l 1,1,-1
 213 1320 l 1,2,-1
 609 1466 l 1,3,-1
 724 1466 l 1,4,-1
 725 -1 l 1,5,-1
 551 -1 l 1,6,-1
 551 1277 l 1,0,-1
EndSplineSet
Validated: 1
Substitution2: "'sups' Superscript in Latin lookup 11 subtable" uni00B9
Substitution2: "'aalt' Access All Alternates in Latin lookup 0 subtable" uni00B9
EndChar

StartChar: two
Encoding: 50 50 235
Width: 1104
Flags: W
LayerCount: 2
Back
Fore
SplineSet
108 61 m 2,0,1
 108 228 108 228 161.5 343.5 c 128,-1,2
 215 459 215 459 290.5 529 c 128,-1,3
 366 599 366 599 487 682 c 0,4,5
 582 747 582 747 635 793 c 128,-1,6
 688 839 688 839 724 904.5 c 128,-1,7
 760 970 760 970 760 1058 c 0,8,9
 760 1303 760 1303 469 1303 c 0,10,11
 403 1303 403 1303 341.5 1293.5 c 128,-1,12
 280 1284 280 1284 191 1267 c 2,13,-1
 153 1259 l 1,14,-1
 127 1418 l 1,15,-1
 167 1425 l 1,16,17
 352 1462 352 1462 482 1462 c 0,18,19
 680 1462 680 1462 809 1376 c 128,-1,20
 938 1290 938 1290 938 1073 c 0,21,22
 938 933 938 933 890.5 836 c 128,-1,23
 843 739 843 739 776 679 c 128,-1,24
 709 619 709 619 598 544 c 0,25,26
 505 482 505 482 451 436.5 c 128,-1,27
 397 391 397 391 360.5 324.5 c 128,-1,28
 324 258 324 258 324 167 c 1,29,-1
 993 167 l 1,30,-1
 993 0 l 1,31,-1
 108 0 l 1,32,-1
 108 61 l 2,0,1
EndSplineSet
Validated: 1
Substitution2: "'sups' Superscript in Latin lookup 11 subtable" uni00B2
Substitution2: "'aalt' Access All Alternates in Latin lookup 0 subtable" uni00B2
EndChar

StartChar: three
Encoding: 51 51 236
Width: 1104
Flags: W
LayerCount: 2
Back
Fore
SplineSet
167 183 m 1,0,1
 224 166 224 166 301.5 152.5 c 128,-1,2
 379 139 379 139 456 139 c 0,3,4
 597 139 597 139 688 196 c 128,-1,5
 779 253 779 253 779 390 c 0,6,7
 779 671 779 671 334 671 c 1,8,-1
 328 810 l 1,9,10
 728 810 728 810 728 1074 c 0,11,12
 728 1206 728 1206 650 1259 c 128,-1,13
 572 1312 572 1312 449 1312 c 0,14,15
 393 1312 393 1312 340 1304.5 c 128,-1,16
 287 1297 287 1297 252 1290 c 128,-1,17
 217 1283 217 1283 208 1281 c 1,18,-1
 190 1431 l 1,19,-1
 216 1435 l 2,20,21
 285 1446 285 1446 345 1453 c 128,-1,22
 405 1460 405 1460 473 1460 c 0,23,24
 657 1460 657 1460 779.5 1384.5 c 128,-1,25
 902 1309 902 1309 902 1115 c 0,26,27
 902 831 902 831 675 751 c 1,28,-1
 675 747 l 1,29,30
 763 736 763 736 825.5 686.5 c 128,-1,31
 888 637 888 637 919.5 563 c 128,-1,32
 951 489 951 489 951 405 c 0,33,34
 951 168 951 168 803.5 73.5 c 128,-1,35
 656 -21 656 -21 442 -21 c 0,36,37
 350 -21 350 -21 265 -7.5 c 128,-1,38
 180 6 180 6 139 19 c 1,39,-1
 167 183 l 1,0,1
EndSplineSet
Validated: 1
Substitution2: "'sups' Superscript in Latin lookup 11 subtable" uni00B3
Substitution2: "'aalt' Access All Alternates in Latin lookup 0 subtable" uni00B3
EndChar

StartChar: four
Encoding: 52 52 237
Width: 1104
Flags: W
LayerCount: 2
Back
Fore
SplineSet
687 286 m 1,0,-1
 13 286 l 1,1,-1
 13 428 l 1,2,-1
 675 1434 l 1,3,-1
 849 1433 l 1,4,-1
 849 436 l 1,5,-1
 1033 436 l 1,6,-1
 1033 286 l 1,7,-1
 849 286 l 1,8,-1
 849 -1 l 1,9,-1
 687 -1 l 1,10,-1
 687 286 l 1,0,-1
687 436 m 1,11,-1
 687 1188 l 1,12,-1
 198 436 l 1,13,-1
 687 436 l 1,11,-1
EndSplineSet
Validated: 1
EndChar

StartChar: five
Encoding: 53 53 238
Width: 1104
Flags: W
LayerCount: 2
Back
Fore
SplineSet
161 197 m 1,0,1
 210 178 210 178 296.5 159 c 128,-1,2
 383 140 383 140 470 140 c 0,3,4
 609 140 609 140 699 205 c 128,-1,5
 789 270 789 270 789 428 c 0,6,7
 789 571 789 571 692 644 c 128,-1,8
 595 717 595 717 432 717 c 0,9,10
 391 717 391 717 311.5 713 c 128,-1,11
 232 709 232 709 191 705 c 1,12,-1
 240 1434 l 1,13,-1
 903 1434 l 1,14,-1
 903 1266 l 1,15,-1
 392 1266 l 1,16,-1
 363 865 l 1,17,-1
 412 867 l 2,18,19
 457 870 457 870 485 870 c 0,20,21
 646 870 646 870 754 815 c 128,-1,22
 862 760 862 760 914.5 663 c 128,-1,23
 967 566 967 566 967 441 c 0,24,25
 967 187 967 187 818.5 83 c 128,-1,26
 670 -21 670 -21 456 -21 c 0,27,28
 384 -21 384 -21 315 -11.5 c 128,-1,29
 246 -2 246 -2 196.5 11.5 c 128,-1,30
 147 25 147 25 130 36 c 1,31,-1
 161 197 l 1,0,1
EndSplineSet
Validated: 1
EndChar

StartChar: six
Encoding: 54 54 239
Width: 1104
Flags: W
LayerCount: 2
Back
Fore
SplineSet
839.5 836.5 m 128,-1,1
 934 773 934 773 978 671.5 c 128,-1,2
 1022 570 1022 570 1022 456 c 0,3,4
 1022 303 1022 303 961.5 194 c 128,-1,5
 901 85 901 85 798.5 29.5 c 128,-1,6
 696 -26 696 -26 571 -26 c 0,7,8
 305 -26 305 -26 208 166.5 c 128,-1,9
 111 359 111 359 111 630 c 0,10,11
 111 920 111 920 173 1101.5 c 128,-1,12
 235 1283 235 1283 362 1369 c 128,-1,13
 489 1455 489 1455 687 1455 c 0,14,15
 789 1455 789 1455 916 1432 c 1,16,-1
 886 1268 l 1,17,18
 790 1285 790 1285 704 1285 c 0,19,20
 547 1285 547 1285 457.5 1222.5 c 128,-1,21
 368 1160 368 1160 331.5 1050 c 128,-1,22
 295 940 295 940 291 776 c 1,23,24
 332 828 332 828 409 864 c 128,-1,25
 486 900 486 900 602 900 c 0,26,0
 745 900 745 900 839.5 836.5 c 128,-1,1
782.5 218.5 m 128,-1,28
 845 302 845 302 845 432 c 0,29,30
 845 516 845 516 817 587 c 128,-1,31
 789 658 789 658 726.5 702.5 c 128,-1,32
 664 747 664 747 566 747 c 0,33,34
 457 747 457 747 388 712.5 c 128,-1,35
 319 678 319 678 292 633 c 1,36,-1
 292 621 l 1,37,-1
 293 580 l 2,38,39
 296 452 296 452 312 361.5 c 128,-1,40
 328 271 328 271 390 203 c 128,-1,41
 452 135 452 135 579 135 c 0,42,27
 720 135 720 135 782.5 218.5 c 128,-1,28
EndSplineSet
Validated: 1
EndChar

StartChar: seven
Encoding: 55 55 240
Width: 1104
Flags: W
LayerCount: 2
Back
Fore
SplineSet
807 1276 m 1,0,-1
 98 1276 l 1,1,-1
 98 1434 l 1,2,-1
 1010 1434 l 1,3,-1
 1012 1341 l 1,4,-1
 521 0 l 1,5,-1
 335 0 l 1,6,-1
 807 1276 l 1,0,-1
EndSplineSet
Validated: 1
EndChar

StartChar: eight
Encoding: 56 56 241
Width: 1104
Flags: W
LayerCount: 2
Back
Fore
SplineSet
303 35.5 m 128,-1,1
 198 94 198 94 145 190.5 c 128,-1,2
 92 287 92 287 92 400 c 0,3,4
 92 492 92 492 130.5 569 c 128,-1,5
 169 646 169 646 229.5 698 c 128,-1,6
 290 750 290 750 358 776 c 1,7,8
 264 829 264 829 209.5 910.5 c 128,-1,9
 155 992 155 992 155 1090 c 0,10,11
 155 1186 155 1186 202 1270.5 c 128,-1,12
 249 1355 249 1355 340 1406.5 c 128,-1,13
 431 1458 431 1458 556 1458 c 0,14,15
 654 1458 654 1458 746.5 1417.5 c 128,-1,16
 839 1377 839 1377 899 1294 c 128,-1,17
 959 1211 959 1211 959 1090 c 0,18,19
 959 992 959 992 904.5 911 c 128,-1,20
 850 830 850 830 757 776 c 1,21,22
 824 750 824 750 884 697 c 128,-1,23
 944 644 944 644 982.5 567.5 c 128,-1,24
 1021 491 1021 491 1021 400 c 0,25,26
 1021 286 1021 286 966.5 189 c 128,-1,27
 912 92 912 92 806.5 34.5 c 128,-1,28
 701 -23 701 -23 555 -23 c 0,29,0
 408 -23 408 -23 303 35.5 c 128,-1,1
666 873.5 m 128,-1,31
 717 901 717 901 750 954.5 c 128,-1,32
 783 1008 783 1008 783 1081 c 0,33,34
 783 1141 783 1141 757.5 1194.5 c 128,-1,35
 732 1248 732 1248 682 1281.5 c 128,-1,36
 632 1315 632 1315 563 1315 c 256,37,38
 494 1315 494 1315 440.5 1284 c 128,-1,39
 387 1253 387 1253 357.5 1199.5 c 128,-1,40
 328 1146 328 1146 328 1081 c 0,41,42
 328 1024 328 1024 355 970 c 128,-1,43
 382 916 382 916 435 881 c 128,-1,44
 488 846 488 846 561 846 c 0,45,30
 615 846 615 846 666 873.5 c 128,-1,31
718 167 m 128,-1,47
 782 209 782 209 812.5 274.5 c 128,-1,48
 843 340 843 340 843 413 c 0,49,50
 843 505 843 505 801.5 570 c 128,-1,51
 760 635 760 635 695 668 c 128,-1,52
 630 701 630 701 559 701 c 0,53,54
 466 701 466 701 402 659 c 128,-1,55
 338 617 338 617 306.5 551 c 128,-1,56
 275 485 275 485 275 414 c 0,57,58
 275 317 275 317 314 252 c 128,-1,59
 353 187 353 187 418 156 c 128,-1,60
 483 125 483 125 560 125 c 0,61,46
 654 125 654 125 718 167 c 128,-1,47
EndSplineSet
Validated: 1
EndChar

StartChar: nine
Encoding: 57 57 242
Width: 1104
Flags: W
LayerCount: 2
Back
Fore
SplineSet
890 1289.5 m 128,-1,1
 995 1120 995 1120 995 799 c 0,2,3
 995 418 995 418 868 197.5 c 128,-1,4
 741 -23 741 -23 427 -23 c 0,5,6
 337 -23 337 -23 235 -4 c 1,7,-1
 255 165 l 1,8,9
 353 143 353 143 433 143 c 0,10,11
 566 143 566 143 646 201.5 c 128,-1,12
 726 260 726 260 764 367.5 c 128,-1,13
 802 475 802 475 812 635 c 1,14,15
 727 530 727 530 494 530 c 0,16,17
 386 530 386 530 292.5 582.5 c 128,-1,18
 199 635 199 635 142.5 738.5 c 128,-1,19
 86 842 86 842 86 988 c 0,20,21
 86 1124 86 1124 142.5 1231 c 128,-1,22
 199 1338 199 1338 304 1398.5 c 128,-1,23
 409 1459 409 1459 548 1459 c 0,24,0
 785 1459 785 1459 890 1289.5 c 128,-1,1
817 805 m 1,26,-1
 817 815 l 2,27,28
 816 993 816 993 789 1098.5 c 128,-1,29
 762 1204 762 1204 701.5 1252.5 c 128,-1,30
 641 1301 641 1301 537 1301 c 0,31,32
 392 1301 392 1301 330.5 1219 c 128,-1,33
 269 1137 269 1137 269 1011 c 0,34,35
 269 905 269 905 304.5 832.5 c 128,-1,36
 340 760 340 760 401.5 724 c 128,-1,37
 463 688 463 688 540 688 c 0,38,25
 746 688 746 688 817 805 c 1,26,-1
EndSplineSet
Validated: 1
EndChar

StartChar: onehalf
Encoding: 189 189 243
Width: 1906
Flags: W
LayerCount: 2
Back
Fore
SplineSet
387 0 m 1,0,-1
 1262 1472 l 1,1,-1
 1405 1412 l 1,2,-1
 531 -60 l 1,3,-1
 387 0 l 1,0,-1
394 1266 m 1,4,-1
 166 1190 l 1,5,-1
 130 1323 l 1,6,-1
 484 1449 l 1,7,-1
 539 1449 l 1,8,-1
 540 586 l 1,9,-1
 394 586 l 1,10,-1
 394 1266 l 1,4,-1
1184 61 m 2,11,12
 1184 125 1184 125 1213.5 178 c 128,-1,13
 1243 231 1243 231 1284.5 271 c 128,-1,14
 1326 311 1326 311 1395 367 c 0,15,16
 1452 413 1452 413 1486 444.5 c 128,-1,17
 1520 476 1520 476 1543 514 c 128,-1,18
 1566 552 1566 552 1566 594 c 0,19,20
 1566 714 1566 714 1414 714 c 0,21,22
 1373 714 1373 714 1331 707 c 128,-1,23
 1289 700 1289 700 1239 689 c 2,24,-1
 1219 685 l 1,25,-1
 1193 834 l 1,26,27
 1198 835 1198 835 1228 841 c 0,28,29
 1290 853 1290 853 1338.5 860.5 c 128,-1,30
 1387 868 1387 868 1440 868 c 0,31,32
 1564 868 1564 868 1644 810.5 c 128,-1,33
 1724 753 1724 753 1724 609 c 0,34,35
 1724 536 1724 536 1691.5 475.5 c 128,-1,36
 1659 415 1659 415 1615.5 373 c 128,-1,37
 1572 331 1572 331 1505 276 c 0,38,39
 1449 232 1449 232 1424.5 206.5 c 128,-1,40
 1400 181 1400 181 1400 157 c 1,41,-1
 1749 157 l 1,42,-1
 1749 0 l 1,43,-1
 1184 0 l 1,44,-1
 1184 61 l 2,11,12
EndSplineSet
Validated: 1
Ligature2: "'frac' Diagonal Fractions in Latin lookup 12 subtable" one slash two
EndChar

StartChar: onequarter
Encoding: 188 188 244
Width: 1856
Flags: W
LayerCount: 2
Back
Fore
SplineSet
381 0 m 1,0,-1
 1256 1472 l 1,1,-1
 1399 1412 l 1,2,-1
 525 -60 l 1,3,-1
 381 0 l 1,0,-1
384 1266 m 1,4,-1
 156 1190 l 1,5,-1
 120 1323 l 1,6,-1
 474 1449 l 1,7,-1
 529 1449 l 1,8,-1
 530 586 l 1,9,-1
 384 586 l 1,10,-1
 384 1266 l 1,4,-1
1459 176 m 1,11,-1
 1063 176 l 1,12,-1
 1063 328 l 1,13,-1
 1425 854 l 1,14,-1
 1599 853 l 1,15,-1
 1599 306 l 1,16,-1
 1703 306 l 1,17,-1
 1703 176 l 1,18,-1
 1599 176 l 1,19,-1
 1599 -1 l 1,20,-1
 1459 -1 l 1,21,-1
 1459 176 l 1,11,-1
1459 306 m 1,22,-1
 1459 638 l 1,23,-1
 1217 306 l 1,24,-1
 1459 306 l 1,22,-1
EndSplineSet
Validated: 1
Ligature2: "'frac' Diagonal Fractions in Latin lookup 12 subtable" one slash four
EndChar

StartChar: threequarters
Encoding: 190 190 245
Width: 1950
Flags: W
LayerCount: 2
Back
Fore
SplineSet
447 0 m 1,0,-1
 1322 1472 l 1,1,-1
 1465 1412 l 1,2,-1
 591 -60 l 1,3,-1
 447 0 l 1,0,-1
247 573 m 128,-1,5
 184 582 184 582 141 597 c 1,6,-1
 161 743 l 1,7,8
 207 730 207 730 267.5 722.5 c 128,-1,9
 328 715 328 715 382 715 c 0,10,11
 438 715 438 715 472 741.5 c 128,-1,12
 506 768 506 768 506 812 c 0,13,14
 506 868 506 868 444 901.5 c 128,-1,15
 382 935 382 935 280 935 c 1,16,-1
 276 1089 l 1,17,18
 368 1089 368 1089 424 1127 c 128,-1,19
 480 1165 480 1165 480 1227 c 0,20,21
 480 1268 480 1268 457 1292 c 128,-1,22
 434 1316 434 1316 396 1316 c 0,23,24
 345 1316 345 1316 287.5 1306.5 c 128,-1,25
 230 1297 230 1297 188 1282 c 1,26,-1
 168 1418 l 1,27,28
 211 1435 211 1435 276.5 1445 c 128,-1,29
 342 1455 342 1455 407 1455 c 0,30,31
 475 1455 475 1455 527 1430 c 128,-1,32
 579 1405 579 1405 607.5 1359.5 c 128,-1,33
 636 1314 636 1314 636 1254 c 0,34,35
 636 1178 636 1178 597 1117 c 128,-1,36
 558 1056 558 1056 493 1032 c 1,37,-1
 493 1028 l 1,38,39
 571 1006 571 1006 618 946 c 128,-1,40
 665 886 665 886 665 807 c 0,41,42
 665 735 665 735 628.5 680 c 128,-1,43
 592 625 592 625 525 594.5 c 128,-1,44
 458 564 458 564 370 564 c 0,45,4
 310 564 310 564 247 573 c 128,-1,5
1519 176 m 1,46,-1
 1123 176 l 1,47,-1
 1123 328 l 1,48,-1
 1485 854 l 1,49,-1
 1659 853 l 1,50,-1
 1659 306 l 1,51,-1
 1763 306 l 1,52,-1
 1763 176 l 1,53,-1
 1659 176 l 1,54,-1
 1659 -1 l 1,55,-1
 1519 -1 l 1,56,-1
 1519 176 l 1,46,-1
1519 306 m 1,57,-1
 1519 638 l 1,58,-1
 1277 306 l 1,59,-1
 1519 306 l 1,57,-1
EndSplineSet
Validated: 1
Ligature2: "'frac' Diagonal Fractions in Latin lookup 12 subtable" three slash four
EndChar

StartChar: uni00B9
Encoding: 185 185 246
Width: 719
Flags: W
LayerCount: 2
Back
Fore
SplineSet
369 1563 m 1,0,-1
 141 1487 l 1,1,-1
 105 1620 l 1,2,-1
 459 1746 l 1,3,-1
 514 1746 l 1,4,-1
 515 883 l 1,5,-1
 369 883 l 1,6,-1
 369 1563 l 1,0,-1
EndSplineSet
Validated: 1
EndChar

StartChar: uni00B2
Encoding: 178 178 247
Width: 750
Flags: W
LayerCount: 2
Back
Fore
SplineSet
98 946 m 2,0,1
 98 1010 98 1010 127.5 1063 c 128,-1,2
 157 1116 157 1116 198.5 1156 c 128,-1,3
 240 1196 240 1196 309 1252 c 0,4,5
 366 1298 366 1298 400 1329.5 c 128,-1,6
 434 1361 434 1361 457 1399 c 128,-1,7
 480 1437 480 1437 480 1479 c 0,8,9
 480 1599 480 1599 328 1599 c 0,10,11
 287 1599 287 1599 245 1592 c 128,-1,12
 203 1585 203 1585 153 1574 c 2,13,-1
 133 1570 l 1,14,-1
 107 1719 l 1,15,16
 112 1720 112 1720 142 1726 c 0,17,18
 204 1738 204 1738 252.5 1745.5 c 128,-1,19
 301 1753 301 1753 354 1753 c 0,20,21
 478 1753 478 1753 558 1695.5 c 128,-1,22
 638 1638 638 1638 638 1494 c 0,23,24
 638 1421 638 1421 605.5 1360.5 c 128,-1,25
 573 1300 573 1300 529.5 1258 c 128,-1,26
 486 1216 486 1216 419 1161 c 0,27,28
 363 1117 363 1117 338.5 1091.5 c 128,-1,29
 314 1066 314 1066 314 1042 c 1,30,-1
 663 1042 l 1,31,-1
 663 885 l 1,32,-1
 98 885 l 1,33,-1
 98 946 l 2,0,1
EndSplineSet
Validated: 1
EndChar

StartChar: uni00B3
Encoding: 179 179 248
Width: 750
Flags: W
LayerCount: 2
Back
Fore
SplineSet
237 872 m 128,-1,1
 174 881 174 881 131 896 c 1,2,-1
 151 1042 l 1,3,4
 197 1029 197 1029 257.5 1021.5 c 128,-1,5
 318 1014 318 1014 372 1014 c 0,6,7
 428 1014 428 1014 462 1040.5 c 128,-1,8
 496 1067 496 1067 496 1111 c 0,9,10
 496 1167 496 1167 434 1200.5 c 128,-1,11
 372 1234 372 1234 270 1234 c 1,12,-1
 266 1388 l 1,13,14
 358 1388 358 1388 414 1426 c 128,-1,15
 470 1464 470 1464 470 1526 c 0,16,17
 470 1567 470 1567 447 1591 c 128,-1,18
 424 1615 424 1615 386 1615 c 0,19,20
 335 1615 335 1615 277.5 1605.5 c 128,-1,21
 220 1596 220 1596 178 1581 c 1,22,-1
 158 1717 l 1,23,24
 201 1734 201 1734 266.5 1744 c 128,-1,25
 332 1754 332 1754 397 1754 c 0,26,27
 465 1754 465 1754 517 1729 c 128,-1,28
 569 1704 569 1704 597.5 1658.5 c 128,-1,29
 626 1613 626 1613 626 1553 c 0,30,31
 626 1477 626 1477 587 1416 c 128,-1,32
 548 1355 548 1355 483 1331 c 1,33,-1
 483 1327 l 1,34,35
 561 1305 561 1305 608 1245 c 128,-1,36
 655 1185 655 1185 655 1106 c 0,37,38
 655 1034 655 1034 618.5 979 c 128,-1,39
 582 924 582 924 515 893.5 c 128,-1,40
 448 863 448 863 360 863 c 0,41,0
 300 863 300 863 237 872 c 128,-1,1
EndSplineSet
Validated: 1
EndChar

StartChar: asterisk
Encoding: 42 42 249
Width: 854
Flags: W
LayerCount: 2
Back
Fore
SplineSet
527 1078 m 1,0,-1
 771 959 l 1,1,-1
 703 841 l 1,2,-1
 478 994 l 1,3,-1
 497 722 l 1,4,-1
 361 722 l 1,5,-1
 380 993 l 1,6,-1
 155 841 l 1,7,-1
 87 959 l 1,8,-1
 331 1078 l 1,9,-1
 87 1197 l 1,10,-1
 155 1315 l 1,11,-1
 380 1163 l 1,12,-1
 361 1434 l 1,13,-1
 497 1434 l 1,14,-1
 478 1163 l 1,15,-1
 703 1315 l 1,16,-1
 771 1197 l 1,17,-1
 527 1078 l 1,0,-1
EndSplineSet
Validated: 1
EndChar

StartChar: backslash
Encoding: 92 92 250
Width: 776
Flags: W
LayerCount: 2
Back
Fore
SplineSet
-26 1434 m 1,0,-1
 107 1484 l 1,1,-1
 776 -190 l 1,2,-1
 647 -240 l 1,3,-1
 -26 1434 l 1,0,-1
EndSplineSet
Validated: 1
EndChar

StartChar: periodcentered
Encoding: 183 183 251
Width: 444
Flags: W
LayerCount: 2
Back
Fore
SplineSet
141.5 530.5 m 128,-1,1
 111 561 111 561 111 612 c 256,2,3
 111 663 111 663 141.5 694 c 128,-1,4
 172 725 172 725 223 725 c 256,5,6
 274 725 274 725 305 694 c 128,-1,7
 336 663 336 663 336 612 c 256,8,9
 336 561 336 561 305 530.5 c 128,-1,10
 274 500 274 500 223 500 c 256,11,0
 172 500 172 500 141.5 530.5 c 128,-1,1
EndSplineSet
Validated: 1
EndChar

StartChar: bullet
Encoding: 8226 8226 252
Width: 832
Flags: W
LayerCount: 2
Back
Fore
SplineSet
543.5 301.5 m 128,-1,1
 601 335 601 335 634.5 392.5 c 128,-1,2
 668 450 668 450 668 518 c 0,3,4
 668 587 668 587 634.5 645 c 128,-1,5
 601 703 601 703 543.5 737.5 c 128,-1,6
 486 772 486 772 418 772 c 256,7,8
 350 772 350 772 291.5 737 c 128,-1,9
 233 702 233 702 198.5 643.5 c 128,-1,10
 164 585 164 585 164 518 c 0,11,12
 164 450 164 450 198.5 392.5 c 128,-1,13
 233 335 233 335 291 301.5 c 128,-1,14
 349 268 349 268 418 268 c 0,15,0
 486 268 486 268 543.5 301.5 c 128,-1,1
EndSplineSet
Validated: 9
EndChar

StartChar: colon
Encoding: 58 58 253
Width: 444
Flags: W
LayerCount: 2
Back
Fore
SplineSet
129 777.5 m 128,-1,1
 91 814 91 814 91 868 c 0,2,3
 91 923 91 923 129 959.5 c 128,-1,4
 167 996 167 996 223 996 c 0,5,6
 280 996 280 996 318 959.5 c 128,-1,7
 356 923 356 923 356 868 c 0,8,9
 356 814 356 814 318 777.5 c 128,-1,10
 280 741 280 741 223 741 c 0,11,0
 167 741 167 741 129 777.5 c 128,-1,1
129 14.5 m 128,-1,13
 91 51 91 51 91 105 c 0,14,15
 91 160 91 160 129 196.5 c 128,-1,16
 167 233 167 233 223 233 c 0,17,18
 280 233 280 233 318 196.5 c 128,-1,19
 356 160 356 160 356 105 c 0,20,21
 356 51 356 51 318 14.5 c 128,-1,22
 280 -22 280 -22 223 -22 c 0,23,12
 167 -22 167 -22 129 14.5 c 128,-1,13
EndSplineSet
Validated: 1
EndChar

StartChar: comma
Encoding: 44 44 254
Width: 444
Flags: W
LayerCount: 2
Back
Fore
SplineSet
39 -194 m 1,0,1
 106 -69 106 -69 131 19 c 128,-1,2
 156 107 156 107 156 228 c 1,3,-1
 336 228 l 1,4,5
 336 104 336 104 292.5 -30.5 c 128,-1,6
 249 -165 249 -165 176 -264 c 1,7,-1
 39 -194 l 1,0,1
EndSplineSet
Validated: 1
EndChar

StartChar: exclam
Encoding: 33 33 256
Width: 582
Flags: W
LayerCount: 2
Back
Fore
SplineSet
203 1434 m 1,0,-1
 375 1434 l 1,1,-1
 356 344 l 1,2,-1
 221 344 l 1,3,-1
 203 1434 l 1,0,-1
209.5 8.5 m 128,-1,5
 179 39 179 39 179 90 c 256,6,7
 179 141 179 141 209.5 172 c 128,-1,8
 240 203 240 203 291 203 c 256,9,10
 342 203 342 203 373 172 c 128,-1,11
 404 141 404 141 404 90 c 256,12,13
 404 39 404 39 373 8.5 c 128,-1,14
 342 -22 342 -22 291 -22 c 256,15,4
 240 -22 240 -22 209.5 8.5 c 128,-1,5
EndSplineSet
Validated: 1
EndChar

StartChar: numbersign
Encoding: 35 35 258
Width: 1210
Flags: W
LayerCount: 2
Back
Fore
SplineSet
881 925 m 1,0,-1
 817 625 l 1,1,-1
 1100 625 l 1,2,-1
 1071 518 l 1,3,-1
 794 518 l 1,4,-1
 710 123 l 1,5,-1
 583 123 l 1,6,-1
 667 518 l 1,7,-1
 416 518 l 1,8,-1
 332 119 l 1,9,-1
 212 119 l 1,10,-1
 295 518 l 1,11,-1
 24 518 l 1,12,-1
 53 625 l 1,13,-1
 318 625 l 1,14,-1
 381 925 l 1,15,-1
 94 925 l 1,16,-1
 123 1032 l 1,17,-1
 403 1032 l 1,18,-1
 487 1434 l 1,19,-1
 610 1434 l 1,20,-1
 525 1032 l 1,21,-1
 777 1032 l 1,22,-1
 864 1438 l 1,23,-1
 991 1438 l 1,24,-1
 904 1032 l 1,25,-1
 1170 1032 l 1,26,-1
 1141 925 l 1,27,-1
 881 925 l 1,0,-1
754 925 m 1,28,-1
 502 925 l 1,29,-1
 439 625 l 1,30,-1
 690 625 l 1,31,-1
 754 925 l 1,28,-1
EndSplineSet
Validated: 1
EndChar

StartChar: period
Encoding: 46 46 259
Width: 444
Flags: W
LayerCount: 2
Back
Fore
SplineSet
141.5 8.5 m 128,-1,1
 111 39 111 39 111 90 c 256,2,3
 111 141 111 141 141.5 172 c 128,-1,4
 172 203 172 203 223 203 c 256,5,6
 274 203 274 203 305 172 c 128,-1,7
 336 141 336 141 336 90 c 256,8,9
 336 39 336 39 305 8.5 c 128,-1,10
 274 -22 274 -22 223 -22 c 256,11,0
 172 -22 172 -22 141.5 8.5 c 128,-1,1
EndSplineSet
Validated: 1
EndChar

StartChar: question
Encoding: 63 63 260
Width: 918
Flags: W
LayerCount: 2
Back
Fore
SplineSet
325 522 m 2,0,1
 325 630 325 630 351 700 c 128,-1,2
 377 770 377 770 414 809.5 c 128,-1,3
 451 849 451 849 510 893 c 0,4,5
 555 927 555 927 581 952 c 128,-1,6
 607 977 607 977 624 1015 c 128,-1,7
 641 1053 641 1053 641 1107 c 0,8,9
 641 1199 641 1199 580 1250.5 c 128,-1,10
 519 1302 519 1302 407 1303 c 0,11,12
 314 1303 314 1303 161 1268 c 1,13,-1
 124 1420 l 1,14,15
 192 1438 192 1438 269.5 1448 c 128,-1,16
 347 1458 347 1458 420 1458 c 0,17,18
 601 1458 601 1458 700 1370.5 c 128,-1,19
 799 1283 799 1283 799 1123 c 0,20,21
 799 1022 799 1022 774.5 955.5 c 128,-1,22
 750 889 750 889 715.5 851.5 c 128,-1,23
 681 814 681 814 624 770 c 0,24,25
 577 734 577 734 549.5 706 c 128,-1,26
 522 678 522 678 504 634.5 c 128,-1,27
 486 591 486 591 486 528 c 2,28,-1
 486 360 l 1,29,-1
 325 360 l 1,30,-1
 325 522 l 2,0,1
333.5 8.5 m 128,-1,32
 303 39 303 39 303 90 c 256,33,34
 303 141 303 141 333.5 172 c 128,-1,35
 364 203 364 203 415 203 c 256,36,37
 466 203 466 203 497 172 c 128,-1,38
 528 141 528 141 528 90 c 256,39,40
 528 39 528 39 497 8.5 c 128,-1,41
 466 -22 466 -22 415 -22 c 256,42,31
 364 -22 364 -22 333.5 8.5 c 128,-1,32
EndSplineSet
Validated: 1
EndChar

StartChar: quotedbl
Encoding: 34 34 262
Width: 803
Flags: W
LayerCount: 2
Back
Fore
SplineSet
163 1469 m 1,0,-1
 308 1469 l 1,1,-1
 308 1000 l 1,2,-1
 163 1000 l 1,3,-1
 163 1469 l 1,0,-1
495 1469 m 1,4,-1
 640 1469 l 1,5,-1
 640 1000 l 1,6,-1
 495 1000 l 1,7,-1
 495 1469 l 1,4,-1
EndSplineSet
Validated: 1
EndChar

StartChar: quotesingle
Encoding: 39 39 263
Width: 471
Flags: W
LayerCount: 2
Back
Fore
SplineSet
163 1469 m 1,0,-1
 308 1469 l 1,1,-1
 308 1000 l 1,2,-1
 163 1000 l 1,3,-1
 163 1469 l 1,0,-1
EndSplineSet
Validated: 1
EndChar

StartChar: semicolon
Encoding: 59 59 264
Width: 444
Flags: W
LayerCount: 2
Back
Fore
SplineSet
139 839.5 m 128,-1,1
 103 875 103 875 103 926 c 256,2,3
 103 977 103 977 139 1011.5 c 128,-1,4
 175 1046 175 1046 226 1046 c 256,5,6
 277 1046 277 1046 312.5 1011.5 c 128,-1,7
 348 977 348 977 348 926 c 256,8,9
 348 875 348 875 312.5 839.5 c 128,-1,10
 277 804 277 804 226 804 c 256,11,0
 175 804 175 804 139 839.5 c 128,-1,1
39 -194 m 1,12,13
 106 -69 106 -69 131 19 c 128,-1,14
 156 107 156 107 156 228 c 1,15,-1
 336 228 l 1,16,17
 336 104 336 104 292.5 -30.5 c 128,-1,18
 249 -165 249 -165 176 -264 c 1,19,-1
 39 -194 l 1,12,13
EndSplineSet
Validated: 1
EndChar

StartChar: braceleft
Encoding: 123 123 267
Width: 618
Flags: W
LayerCount: 2
Back
Fore
SplineSet
248 -16 m 2,1,-1
 248 284 l 2,2,3
 248 486 248 486 92 496 c 1,4,-1
 92 612 l 1,5,6
 248 623 248 623 248 828 c 2,7,-1
 248 1120 l 2,8,9
 248 1430 248 1430 555 1434 c 1,10,-1
 555 1306 l 1,11,12
 396 1302 396 1302 396 1108 c 2,13,-1
 396 815 l 2,14,15
 396 605 396 605 246 557 c 1,16,-1
 246 553 l 1,17,18
 396 508 396 508 396 297 c 2,19,-1
 396 8 l 2,20,21
 396 -67 396 -67 411.5 -111.5 c 128,-1,22
 427 -156 427 -156 461.5 -177 c 128,-1,23
 496 -198 496 -198 555 -200 c 1,24,-1
 555 -326 l 1,25,0
 248 -322 248 -322 248 -16 c 2,1,-1
EndSplineSet
Validated: 1
EndChar

StartChar: bracketleft
Encoding: 91 91 269
Width: 618
Flags: W
LayerCount: 2
Back
Fore
SplineSet
200 1434 m 1,0,-1
 568 1434 l 1,1,-1
 568 1315 l 1,2,-1
 346 1315 l 1,3,-1
 346 -207 l 1,4,-1
 568 -207 l 1,5,-1
 568 -326 l 1,6,-1
 200 -326 l 1,7,-1
 200 1434 l 1,0,-1
EndSplineSet
Validated: 1
EndChar

StartChar: parenleft
Encoding: 40 40 271
Width: 618
Flags: W
LayerCount: 2
Back
Fore
SplineSet
219.5 71.5 m 128,-1,1
 148 274 148 274 148 549 c 0,2,3
 148 816 148 816 217.5 1018.5 c 128,-1,4
 287 1221 287 1221 441 1404 c 1,5,-1
 537 1324 l 1,6,7
 415 1149 415 1149 359.5 965.5 c 128,-1,8
 304 782 304 782 304 549 c 0,9,10
 304 322 304 322 362 138.5 c 128,-1,11
 420 -45 420 -45 549 -226 c 1,12,-1
 451 -306 l 1,13,0
 291 -131 291 -131 219.5 71.5 c 128,-1,1
EndSplineSet
Validated: 1
EndChar

StartChar: emdash
Encoding: 8212 8212 273
Width: 2048
Flags: W
LayerCount: 2
Back
Fore
SplineSet
2024 456 m 1,0,-1
 0 456 l 1,1,-1
 0 585 l 1,2,-1
 2024 585 l 1,3,-1
 2024 456 l 1,0,-1
EndSplineSet
Validated: 1
EndChar

StartChar: endash
Encoding: 8211 8211 274
Width: 1024
Flags: W
LayerCount: 2
Back
Fore
SplineSet
1024 456 m 1,0,-1
 0 456 l 1,1,-1
 0 585 l 1,2,-1
 1024 585 l 1,3,-1
 1024 456 l 1,0,-1
EndSplineSet
Validated: 1
EndChar

StartChar: hyphen
Encoding: 45 45 275
Width: 819
Flags: W
LayerCount: 2
Back
Fore
SplineSet
144 585 m 1,0,-1
 690 585 l 1,1,-1
 690 456 l 1,2,-1
 144 456 l 1,3,-1
 144 585 l 1,0,-1
EndSplineSet
Validated: 1
EndChar

StartChar: guillemotleft
Encoding: 171 171 277
Width: 1036
Flags: W
LayerCount: 2
Back
Fore
SplineSet
92 487 m 1,0,-1
 391 831 l 1,1,-1
 609 831 l 1,2,-1
 304 487 l 1,3,-1
 607 151 l 1,4,-1
 391 151 l 1,5,-1
 92 487 l 1,0,-1
480 487 m 1,6,-1
 779 831 l 1,7,-1
 997 831 l 1,8,-1
 692 487 l 1,9,-1
 995 151 l 1,10,-1
 779 151 l 1,11,-1
 480 487 l 1,6,-1
EndSplineSet
Validated: 1
EndChar

StartChar: guillemotright
Encoding: 187 187 278
Width: 1036
Flags: W
LayerCount: 2
Back
Fore
SplineSet
74 151 m 1,0,-1
 377 487 l 1,1,-1
 72 831 l 1,2,-1
 290 831 l 1,3,-1
 589 487 l 1,4,-1
 290 151 l 1,5,-1
 74 151 l 1,0,-1
462 151 m 1,6,-1
 765 487 l 1,7,-1
 460 831 l 1,8,-1
 678 831 l 1,9,-1
 977 487 l 1,10,-1
 678 151 l 1,11,-1
 462 151 l 1,6,-1
EndSplineSet
Validated: 1
EndChar

StartChar: guilsinglleft
Encoding: 8249 8249 279
Width: 647
Flags: W
LayerCount: 2
Back
Fore
SplineSet
92 487 m 1,0,-1
 391 831 l 1,1,-1
 609 831 l 1,2,-1
 304 487 l 1,3,-1
 607 151 l 1,4,-1
 391 151 l 1,5,-1
 92 487 l 1,0,-1
EndSplineSet
Validated: 1
EndChar

StartChar: quotedblleft
Encoding: 8220 8220 282
Width: 772
Flags: W
LayerCount: 2
Back
Fore
SplineSet
382 1409 m 1,0,1
 315 1284 315 1284 290 1196 c 128,-1,2
 265 1108 265 1108 265 987 c 1,3,-1
 85 987 l 1,4,5
 85 1111 85 1111 128.5 1245.5 c 128,-1,6
 172 1380 172 1380 245 1479 c 1,7,-1
 382 1409 l 1,0,1
687 1409 m 1,8,9
 620 1284 620 1284 595 1196 c 128,-1,10
 570 1108 570 1108 570 987 c 1,11,-1
 390 987 l 1,12,13
 390 1111 390 1111 433.5 1245.5 c 128,-1,14
 477 1380 477 1380 550 1479 c 1,15,-1
 687 1409 l 1,8,9
EndSplineSet
Validated: 1
EndChar

StartChar: quotedblright
Encoding: 8221 8221 283
Width: 772
Flags: W
LayerCount: 2
Back
Fore
SplineSet
93 1035 m 1,0,1
 160 1160 160 1160 185 1248 c 128,-1,2
 210 1336 210 1336 210 1457 c 1,3,-1
 390 1457 l 1,4,5
 390 1333 390 1333 346.5 1198.5 c 128,-1,6
 303 1064 303 1064 230 965 c 1,7,-1
 93 1035 l 1,0,1
398 1035 m 1,8,9
 465 1160 465 1160 490 1248 c 128,-1,10
 515 1336 515 1336 515 1457 c 1,11,-1
 695 1457 l 1,12,13
 695 1333 695 1333 651.5 1198.5 c 128,-1,14
 608 1064 608 1064 535 965 c 1,15,-1
 398 1035 l 1,8,9
EndSplineSet
Validated: 1
EndChar

StartChar: quoteleft
Encoding: 8216 8216 284
Width: 469
Flags: W
LayerCount: 2
Back
Fore
SplineSet
382 1409 m 1,0,1
 315 1284 315 1284 290 1196 c 128,-1,2
 265 1108 265 1108 265 987 c 1,3,-1
 85 987 l 1,4,5
 85 1111 85 1111 128.5 1245.5 c 128,-1,6
 172 1380 172 1380 245 1479 c 1,7,-1
 382 1409 l 1,0,1
EndSplineSet
Validated: 1
EndChar

StartChar: cent
Encoding: 162 162 288
Width: 1104
Flags: W
LayerCount: 2
Back
Fore
SplineSet
722 -21 m 1,1,-1
 722 -209 l 1,2,-1
 607 -209 l 1,3,-1
 607 -20 l 1,4,5
 474 -8 474 -8 379 56 c 128,-1,6
 284 120 284 120 234 229.5 c 128,-1,7
 184 339 184 339 184 485 c 0,8,9
 184 628 184 628 233.5 737.5 c 128,-1,10
 283 847 283 847 378 914 c 128,-1,11
 473 981 473 981 607 995 c 1,12,-1
 607 1213 l 1,13,-1
 722 1213 l 1,14,-1
 722 998 l 1,15,16
 794 995 794 995 861.5 980 c 128,-1,17
 929 965 929 965 976 942 c 1,18,-1
 936 776 l 1,19,20
 836 822 836 822 722 830 c 1,21,-1
 722 138 l 1,22,23
 781 141 781 141 829 154 c 128,-1,24
 877 167 877 167 958 197 c 1,25,-1
 1009 45 l 1,26,0
 859 -11 859 -11 722 -21 c 1,1,-1
426.5 253.5 m 128,-1,28
 488 168 488 168 607 146 c 1,29,-1
 607 826 l 1,30,31
 481 808 481 808 423 723.5 c 128,-1,32
 365 639 365 639 365 490 c 0,33,27
 365 339 365 339 426.5 253.5 c 128,-1,28
EndSplineSet
Validated: 1
EndChar

StartChar: currency
Encoding: 164 164 289
Width: 1138
Flags: W
LayerCount: 2
Back
Fore
SplineSet
100 219 m 1,0,-1
 238 353 l 1,1,2
 162 465 162 465 162 590 c 0,3,4
 162 720 162 720 238 827 c 1,5,-1
 100 963 l 1,6,-1
 192 1059 l 1,7,-1
 330 922 l 1,8,9
 440 999 440 999 570 999 c 0,10,11
 698 999 698 999 807 922 c 1,12,-1
 946 1059 l 1,13,-1
 1038 963 l 1,14,-1
 901 827 l 1,15,16
 979 714 979 714 979 590 c 0,17,18
 979 469 979 469 901 353 c 1,19,-1
 1038 219 l 1,20,-1
 946 123 l 1,21,-1
 809 261 l 1,22,23
 705 185 705 185 570 185 c 0,24,25
 433 185 433 185 330 261 c 1,26,-1
 192 123 l 1,27,-1
 100 219 l 1,0,-1
698 371.5 m 128,-1,29
 757 406 757 406 791.5 464.5 c 128,-1,30
 826 523 826 523 826 592 c 0,31,32
 826 660 826 660 790.5 719 c 128,-1,33
 755 778 755 778 696 812.5 c 128,-1,34
 637 847 637 847 570 847 c 0,35,36
 499 847 499 847 440.5 812.5 c 128,-1,37
 382 778 382 778 348.5 719.5 c 128,-1,38
 315 661 315 661 315 592 c 256,39,40
 315 523 315 523 349.5 464.5 c 128,-1,41
 384 406 384 406 442.5 371.5 c 128,-1,42
 501 337 501 337 570 337 c 256,43,28
 639 337 639 337 698 371.5 c 128,-1,29
EndSplineSet
Validated: 1
EndChar

StartChar: dollar
Encoding: 36 36 290
Width: 1104
Flags: W
LayerCount: 2
Back
Fore
SplineSet
821 720.5 m 128,-1,1
 897 671 897 671 948.5 589 c 128,-1,2
 1000 507 1000 507 1000 386 c 0,3,4
 1000 226 1000 226 904 124 c 128,-1,5
 808 22 808 22 631 -3 c 1,6,-1
 631 -209 l 1,7,-1
 525 -209 l 1,8,-1
 525 -11 l 1,9,-1
 521 -11 l 2,10,11
 414 -12 414 -12 318.5 13.5 c 128,-1,12
 223 39 223 39 100 98 c 1,13,-1
 165 247 l 1,14,15
 278 189 278 189 359.5 166.5 c 128,-1,16
 441 144 441 144 521 144 c 2,17,-1
 525 144 l 1,18,-1
 525 675 l 1,19,20
 404 724 404 724 331 765.5 c 128,-1,21
 258 807 258 807 207 883 c 128,-1,22
 156 959 156 959 156 1078 c 0,23,24
 156 1242 156 1242 255 1332.5 c 128,-1,25
 354 1423 354 1423 525 1442 c 1,26,-1
 525 1620 l 1,27,-1
 631 1620 l 1,28,-1
 631 1447 l 1,29,30
 797 1444 797 1444 958 1380 c 1,31,-1
 893 1223 l 1,32,-1
 868 1232 l 2,33,34
 806 1255 806 1255 754.5 1268 c 128,-1,35
 703 1281 703 1281 631 1282 c 1,36,-1
 631 820 l 1,37,0
 745 770 745 770 821 720.5 c 128,-1,1
377 962.5 m 128,-1,39
 428 913 428 913 525 867 c 1,40,-1
 525 1275 l 1,41,42
 434 1260 434 1260 380 1214.5 c 128,-1,43
 326 1169 326 1169 326 1088 c 0,44,38
 326 1012 326 1012 377 962.5 c 128,-1,39
775 237.5 m 128,-1,46
 821 299 821 299 821 386 c 0,47,48
 821 475 821 475 772 530 c 128,-1,49
 723 585 723 585 631 629 c 1,50,-1
 631 155 l 1,51,45
 729 176 729 176 775 237.5 c 128,-1,46
EndSplineSet
Validated: 33
EndChar

StartChar: Euro
Encoding: 8364 8364 291
Width: 1104
Flags: W
LayerCount: 2
Back
Fore
SplineSet
1060 65 m 1,0,1
 991 29 991 29 901 4.5 c 128,-1,2
 811 -20 811 -20 729 -20 c 0,3,4
 523 -20 523 -20 392.5 110.5 c 128,-1,5
 262 241 262 241 221 485 c 1,6,-1
 102 485 l 1,7,-1
 102 625 l 1,8,-1
 205 625 l 1,9,10
 203 681 203 681 203 713 c 0,11,12
 203 762 203 762 206 807 c 1,13,-1
 102 807 l 1,14,-1
 102 947 l 1,15,-1
 223 947 l 1,16,17
 267 1194 267 1194 409.5 1327 c 128,-1,18
 552 1460 552 1460 775 1460 c 0,19,20
 895 1460 895 1460 1029 1416 c 1,21,-1
 980 1266 l 1,22,23
 950 1279 950 1279 880 1290.5 c 128,-1,24
 810 1302 810 1302 773 1302 c 0,25,26
 629 1302 629 1302 533.5 1210.5 c 128,-1,27
 438 1119 438 1119 401 947 c 1,28,-1
 896 947 l 1,29,-1
 896 807 l 1,30,-1
 382 807 l 1,31,32
 379 765 379 765 379 721 c 0,33,34
 379 672 379 672 382 625 c 1,35,-1
 896 625 l 1,36,-1
 896 485 l 1,37,-1
 401 485 l 1,38,39
 437 315 437 315 527 223.5 c 128,-1,40
 617 132 617 132 752 132 c 0,41,42
 812 132 812 132 874.5 153 c 128,-1,43
 937 174 937 174 1004 208 c 1,44,-1
 1060 65 l 1,0,1
EndSplineSet
Validated: 1
EndChar

StartChar: florin
Encoding: 402 402 292
Width: 1104
Flags: W
LayerCount: 2
Back
Fore
SplineSet
84 -262 m 1,1,-1
 120 -132 l 1,2,3
 147 -140 147 -140 180 -140 c 0,4,5
 330 -140 330 -140 370 152 c 2,6,-1
 461 788 l 1,7,-1
 358 788 l 1,8,-1
 358 926 l 1,9,-1
 482 926 l 1,10,-1
 510 1145 l 2,11,12
 521 1232 521 1232 564.5 1297.5 c 128,-1,13
 608 1363 608 1363 678 1398.5 c 128,-1,14
 748 1434 748 1434 836 1434 c 0,15,16
 901 1434 901 1434 952 1415 c 1,17,-1
 922 1280 l 1,18,19
 890 1294 890 1294 844 1294 c 0,20,21
 698 1294 698 1294 674 1134 c 2,22,-1
 643 926 l 1,23,-1
 809 926 l 1,24,-1
 809 788 l 1,25,-1
 622 788 l 1,26,-1
 532 140 l 2,27,28
 474 -278 474 -278 184 -278 c 0,29,0
 147 -278 147 -278 84 -262 c 1,1,-1
EndSplineSet
Validated: 1
EndChar

StartChar: sterling
Encoding: 163 163 293
Width: 1104
Flags: W
LayerCount: 2
Back
Fore
SplineSet
888 136 m 1,0,-1
 888 0 l 1,1,-1
 80 0 l 1,2,-1
 80 136 l 1,3,4
 332 282 332 282 332 469 c 2,5,-1
 332 641 l 1,6,-1
 115 641 l 1,7,-1
 115 764 l 1,8,-1
 332 765 l 1,9,-1
 332 1001 l 2,10,11
 332 1212 332 1212 419.5 1333 c 128,-1,12
 507 1454 507 1454 729 1454 c 0,13,14
 753 1454 753 1454 779 1449.5 c 128,-1,15
 805 1445 805 1445 844 1436 c 2,16,-1
 879 1429 l 1,17,-1
 863 1304 l 1,18,19
 848 1307 848 1307 836 1309.5 c 128,-1,20
 824 1312 824 1312 815 1314 c 0,21,22
 767 1326 767 1326 742 1326 c 0,23,24
 639 1326 639 1326 583 1291 c 128,-1,25
 527 1256 527 1256 506.5 1189 c 128,-1,26
 486 1122 486 1122 486 1011 c 2,27,-1
 486 765 l 1,28,-1
 751 766 l 1,29,-1
 751 641 l 1,30,-1
 486 641 l 1,31,-1
 486 469 l 1,32,33
 472 275 472 275 271 136 c 1,34,-1
 888 136 l 1,0,-1
EndSplineSet
Validated: 1
EndChar

StartChar: yen
Encoding: 165 165 294
Width: 1104
Flags: W
LayerCount: 2
Back
Fore
SplineSet
694 698 m 1,0,-1
 971 698 l 1,1,-1
 971 558 l 1,2,-1
 643 558 l 1,3,-1
 643 373 l 1,4,-1
 971 373 l 1,5,-1
 971 233 l 1,6,-1
 643 233 l 1,7,-1
 643 0 l 1,8,-1
 485 0 l 1,9,-1
 485 233 l 1,10,-1
 129 233 l 1,11,-1
 129 373 l 1,12,-1
 485 373 l 1,13,-1
 485 558 l 1,14,-1
 129 558 l 1,15,-1
 129 698 l 1,16,-1
 430 698 l 1,17,-1
 69 1434 l 1,18,-1
 247 1434 l 1,19,-1
 531 831 l 2,20,21
 537 818 537 818 547 792.5 c 128,-1,22
 557 767 557 767 566 743 c 1,23,-1
 569 743 l 1,24,25
 574 760 574 760 588 791 c 128,-1,26
 602 822 602 822 606 831 c 2,27,-1
 875 1434 l 1,28,-1
 1041 1434 l 1,29,-1
 694 698 l 1,0,-1
EndSplineSet
Validated: 1
EndChar

StartChar: asciitilde
Encoding: 126 126 295
Width: 1401
Flags: W
LayerCount: 2
Back
Fore
SplineSet
247 555 m 128,-1,1
 282 625 282 625 344 662.5 c 128,-1,2
 406 700 406 700 490 700 c 0,3,4
 545 700 545 700 599 675.5 c 128,-1,5
 653 651 653 651 730 603 c 0,6,7
 802 560 802 560 842.5 541 c 128,-1,8
 883 522 883 522 922 522 c 0,9,10
 982 522 982 522 1019.5 570.5 c 128,-1,11
 1057 619 1057 619 1059 700 c 1,12,-1
 1194 700 l 1,13,14
 1187 552 1187 552 1113.5 471 c 128,-1,15
 1040 390 1040 390 914 390 c 0,16,17
 852 390 852 390 796 415.5 c 128,-1,18
 740 441 740 441 662 490 c 0,19,20
 602 528 602 528 564 547 c 128,-1,21
 526 566 526 566 490 566 c 0,22,23
 350 566 350 566 344 390 c 1,24,-1
 209 390 l 1,25,0
 212 485 212 485 247 555 c 128,-1,1
EndSplineSet
Validated: 1
EndChar

StartChar: divide
Encoding: 247 247 296
Width: 1401
Flags: W
LayerCount: 2
Back
Fore
SplineSet
634 898.5 m 128,-1,1
 604 929 604 929 604 973 c 0,2,3
 604 1019 604 1019 633.5 1050.5 c 128,-1,4
 663 1082 663 1082 708 1082 c 0,5,6
 811 1082 811 1082 811 975 c 0,7,8
 811 929 811 929 781 898.5 c 128,-1,9
 751 868 751 868 708 868 c 0,10,0
 664 868 664 868 634 898.5 c 128,-1,1
232 664 m 1,11,-1
 1172 664 l 1,12,-1
 1172 530 l 1,13,-1
 232 530 l 1,14,-1
 232 664 l 1,11,-1
629 142 m 128,-1,16
 598 172 598 172 598 215 c 0,17,18
 598 261 598 261 628.5 293.5 c 128,-1,19
 659 326 659 326 704 326 c 0,20,21
 805 326 805 326 805 217 c 0,22,23
 805 172 805 172 776 142 c 128,-1,24
 747 112 747 112 704 112 c 0,25,15
 660 112 660 112 629 142 c 128,-1,16
EndSplineSet
Validated: 1
EndChar

StartChar: equal
Encoding: 61 61 297
Width: 1401
Flags: W
LayerCount: 2
Back
Fore
SplineSet
232 876 m 1,0,-1
 1172 876 l 1,1,-1
 1172 744 l 1,2,-1
 232 744 l 1,3,-1
 232 876 l 1,0,-1
232 450 m 1,4,-1
 1172 450 l 1,5,-1
 1172 318 l 1,6,-1
 232 318 l 1,7,-1
 232 450 l 1,4,-1
EndSplineSet
Validated: 1
EndChar

StartChar: greater
Encoding: 62 62 298
Width: 1401
Flags: W
LayerCount: 2
Back
Fore
SplineSet
272 276 m 1,0,-1
 916 588 l 1,1,-1
 916 594 l 1,2,-1
 272 950 l 1,3,-1
 272 1100 l 1,4,-1
 1132 618 l 1,5,-1
 1132 559 l 1,6,-1
 272 127 l 1,7,-1
 272 276 l 1,0,-1
EndSplineSet
Validated: 1
EndChar

StartChar: logicalnot
Encoding: 172 172 300
Width: 1401
Flags: W
LayerCount: 2
Back
Fore
SplineSet
1040 684 m 1,0,-1
 232 684 l 1,1,-1
 232 817 l 1,2,-1
 1172 817 l 1,3,-1
 1172 254 l 1,4,-1
 1040 254 l 1,5,-1
 1040 684 l 1,0,-1
EndSplineSet
Validated: 1
EndChar

StartChar: mu
Encoding: 181 181 301
Width: 1182
Flags: W
LayerCount: 2
Back
Fore
SplineSet
956 -39 m 1,0,1
 898 65 898 65 874 157 c 1,2,3
 859 116 859 116 816.5 75 c 128,-1,4
 774 34 774 34 706.5 6 c 128,-1,5
 639 -22 639 -22 553 -22 c 0,6,7
 418 -22 418 -22 327 32 c 1,8,-1
 327 -396 l 1,9,-1
 165 -396 l 1,10,-1
 165 333 l 2,11,12
 164 345 164 345 164 368 c 2,13,-1
 164 973 l 1,14,-1
 328 973 l 1,15,-1
 328 419 l 2,16,17
 328 288 328 288 382.5 209 c 128,-1,18
 437 130 437 130 589 130 c 0,19,20
 702 130 702 130 776 183.5 c 128,-1,21
 850 237 850 237 850 362 c 2,22,-1
 850 974 l 1,23,-1
 1014 974 l 1,24,-1
 1014 330 l 2,25,26
 1015 183 1015 183 1101 28 c 1,27,-1
 956 -39 l 1,0,1
EndSplineSet
Validated: 1
EndChar

StartChar: multiply
Encoding: 215 215 302
Width: 1401
Flags: W
LayerCount: 2
Back
Fore
SplineSet
268 258 m 1,0,-1
 608 596 l 1,1,-1
 268 936 l 1,2,-1
 362 1030 l 1,3,-1
 700 690 l 1,4,-1
 1040 1030 l 1,5,-1
 1134 936 l 1,6,-1
 794 596 l 1,7,-1
 1134 258 l 1,8,-1
 1040 164 l 1,9,-1
 700 504 l 1,10,-1
 362 164 l 1,11,-1
 268 258 l 1,0,-1
EndSplineSet
Validated: 1
EndChar

